<svg width="1087" height="869" viewBox="0 0 1087 869" fill="none" xmlns="http://www.w3.org/2000/svg">
<mask id="path-1-inside-1_883_1701" fill="white">
<path d="M0 4.5C0 2.29086 1.79086 0.5 4 0.5H1048C1050.21 0.5 1052 2.29086 1052 4.5V245.5C1052 246.052 1051.55 246.5 1051 246.5H1C0.44772 246.5 0 246.052 0 245.5V4.5Z"/>
</mask>
<path d="M0 4.5C0 2.29086 1.79086 0.5 4 0.5H1048C1050.21 0.5 1052 2.29086 1052 4.5V245.5C1052 246.052 1051.55 246.5 1051 246.5H1C0.44772 246.5 0 246.052 0 245.5V4.5Z" fill="#F5F5FE"/>
<path d="M0 0.5H1052H0ZM1052 245.5C1052 248.261 1049.76 250.5 1047 250.5H5C2.23858 250.5 0 248.261 0 245.5V242.5C0 242.5 0.447715 242.5 1 242.5H1051C1051.55 242.5 1052 242.5 1052 242.5V245.5ZM0 246.5V0.5V246.5ZM1052 0.5V246.5V0.5Z" fill="#000091" mask="url(#path-1-inside-1_883_1701)"/>
<path d="M413.872 116.436V78.804L403.184 84.756L399.6 79.764L414 71.636H420.848V116.436H413.872ZM450.346 70.42C457.45 70.42 461.994 73.62 465.002 77.908L459.498 82.26C457.002 78.74 454.186 76.82 450.282 76.82C442.922 76.82 439.082 82.644 438.698 92.756C441.706 89.812 445.674 88.212 450.41 88.212C459.05 88.212 464.746 94.548 464.746 102.548C464.746 110.804 458.858 117.78 448.938 117.78C437.93 117.78 431.402 109.844 431.402 94.612C431.402 80.34 437.162 70.42 450.346 70.42ZM449.258 94.484C445.098 94.484 441.386 96.212 438.89 99.732C439.914 108.18 443.69 111.38 448.81 111.38C454.25 111.38 457.514 107.668 457.514 102.804C457.514 98.068 454.058 94.484 449.258 94.484ZM493.107 77.076C490.675 77.076 488.627 75.028 488.627 72.596C488.627 70.164 490.675 68.116 493.107 68.116C495.539 68.116 497.587 70.164 497.587 72.596C497.587 75.028 495.539 77.076 493.107 77.076ZM496.499 120.404C496.499 128.468 492.595 132.5 485.043 132.5C482.547 132.5 480.755 132.18 479.219 131.54V125.716C480.307 126.164 481.843 126.42 484.019 126.42C487.603 126.42 489.907 125.012 489.907 120.404V84.244H496.499V120.404ZM522.258 82.964C532.754 82.964 539.794 90.836 539.794 100.372C539.794 109.908 532.754 117.78 522.258 117.78C511.826 117.78 504.722 109.908 504.722 100.372C504.722 90.836 511.826 82.964 522.258 82.964ZM522.322 111.572C528.402 111.572 532.882 106.516 532.882 100.372C532.882 94.1 528.402 89.172 522.322 89.172C516.114 89.172 511.634 94.164 511.634 100.372C511.634 106.58 516.114 111.572 522.322 111.572ZM569.92 102.676V84.244H576.576V102.356C576.576 112.02 571.008 117.78 561.984 117.78C552.896 117.78 547.328 112.02 547.328 102.356V84.244H553.984V102.676C553.984 108.244 556.928 111.572 561.984 111.572C566.912 111.572 569.92 108.244 569.92 102.676ZM586.595 116.5V84.244H593.187V87.892C595.427 85.396 598.243 83.604 602.211 83.604C603.235 83.604 604.195 83.796 605.027 84.052V90.516C604.003 90.26 602.979 90.068 601.635 90.068C597.539 90.068 594.851 92.244 593.187 94.996V116.5H586.595ZM609.082 111.956L613.626 107.988C615.738 110.676 618.298 112.404 621.498 112.404C624.634 112.404 626.362 110.484 626.362 108.052C626.362 101.524 610.554 103.892 610.554 92.5C610.554 87.188 615.034 82.964 621.498 82.964C626.234 82.964 630.394 85.268 632.698 88.34L628.218 92.244C626.49 89.94 624.25 88.34 621.562 88.34C618.49 88.34 616.954 90.132 616.954 92.308C616.954 98.772 632.762 96.596 632.762 107.668C632.698 114.004 627.578 117.78 621.562 117.78C616.122 117.78 612.09 115.604 609.082 111.956ZM200.662 177.06C196.702 177.06 194.022 174.86 194.022 171.42C194.022 168.38 196.342 166.22 200.622 165.5L207.422 164.38V162.98C207.422 160.18 205.422 158.58 202.542 158.58C200.222 158.58 198.342 159.66 197.102 161.38L194.542 159.42C196.302 157.02 199.142 155.54 202.662 155.54C207.782 155.54 210.822 158.54 210.822 162.98V176.5H207.422V173.94C205.902 175.9 203.262 177.06 200.662 177.06ZM197.462 171.3C197.462 173.02 198.862 174.26 201.222 174.26C203.902 174.26 206.102 172.98 207.422 170.82V166.86L201.462 167.86C198.702 168.34 197.462 169.58 197.462 171.3ZM214.408 156.34H218.088L224.528 172.94L230.968 156.34H234.648L226.768 176.5H222.288L214.408 156.34ZM243.904 177.06C239.944 177.06 237.264 174.86 237.264 171.42C237.264 168.38 239.584 166.22 243.864 165.5L250.664 164.38V162.98C250.664 160.18 248.664 158.58 245.784 158.58C243.464 158.58 241.584 159.66 240.344 161.38L237.784 159.42C239.544 157.02 242.384 155.54 245.904 155.54C251.024 155.54 254.064 158.54 254.064 162.98V176.5H250.664V173.94C249.144 175.9 246.504 177.06 243.904 177.06ZM240.704 171.3C240.704 173.02 242.104 174.26 244.464 174.26C247.144 174.26 249.344 172.98 250.664 170.82V166.86L244.704 167.86C241.944 168.34 240.704 169.58 240.704 171.3ZM260.885 176.5V156.34H264.285V158.62C265.925 156.82 268.005 155.54 271.005 155.54C275.525 155.54 278.885 158.58 278.885 164.3V176.5H275.485V164.42C275.485 160.82 273.445 158.74 270.325 158.74C267.405 158.74 265.565 160.42 264.285 162.54V176.5H260.885ZM286.889 169.74V159.42H283.089V156.34H286.889V151.3H290.329V156.34H297.329V159.42H290.329V169.74C290.329 172.9 291.929 173.78 294.369 173.78C295.689 173.78 296.609 173.62 297.369 173.3V176.34C296.409 176.74 295.329 176.9 293.889 176.9C289.409 176.9 286.889 174.66 286.889 169.74ZM310.667 156.34H314.467V153.86C314.467 149.58 317.227 146.5 321.627 146.5C323.467 146.5 324.947 147.02 326.067 147.66L324.547 150.5C323.787 149.94 322.867 149.58 321.707 149.58C319.427 149.58 317.907 151.14 317.907 153.78V156.34H324.907V159.42H317.907V176.5H314.467V159.42H310.667V156.34ZM345.836 173.18C343.956 175.7 340.956 177.3 337.196 177.3C330.396 177.3 326.196 172.3 326.196 166.42C326.196 160.3 330.116 155.54 336.356 155.54C341.836 155.54 345.396 159.38 345.396 164.34C345.396 165.14 345.276 165.9 345.156 166.46H329.676C329.796 171.3 332.876 174.22 337.196 174.22C339.796 174.22 341.996 173.02 343.316 171.22L345.836 173.18ZM336.276 158.42C332.956 158.42 330.636 160.38 329.916 163.86H341.996C341.876 160.9 339.836 158.42 336.276 158.42ZM351.159 176.5V156.34H354.559V158.86C356.039 157.1 357.879 155.94 360.439 155.94C361.079 155.94 361.679 156.02 362.159 156.18V159.5C361.559 159.34 360.959 159.26 360.159 159.26C357.519 159.26 355.799 160.62 354.559 162.66V176.5H351.159ZM367.057 176.5V156.34H370.457V158.54C371.977 156.78 373.977 155.54 376.777 155.54C379.697 155.54 382.097 156.86 383.337 159.42C384.937 157.22 387.057 155.54 390.537 155.54C394.857 155.54 398.017 158.42 398.017 163.9V176.5H394.617V164.02C394.617 160.66 392.737 158.74 389.857 158.74C387.297 158.74 385.497 160.18 384.177 162.54C384.217 162.98 384.257 163.42 384.257 163.9V176.5H380.857V164.02C380.857 160.66 379.017 158.74 376.097 158.74C373.337 158.74 371.617 160.46 370.457 162.54V176.5H367.057ZM422.79 173.18C420.91 175.7 417.91 177.3 414.15 177.3C407.35 177.3 403.15 172.3 403.15 166.42C403.15 160.3 407.07 155.54 413.31 155.54C418.79 155.54 422.35 159.38 422.35 164.34C422.35 165.14 422.23 165.9 422.11 166.46H406.63C406.75 171.3 409.83 174.22 414.15 174.22C416.75 174.22 418.95 173.02 420.27 171.22L422.79 173.18ZM413.23 158.42C409.91 158.42 407.59 160.38 406.87 163.86H418.95C418.83 160.9 416.79 158.42 413.23 158.42ZM429.155 169.74V159.42H425.355V156.34H429.155V151.3H432.595V156.34H439.595V159.42H432.595V169.74C432.595 172.9 434.195 173.78 436.635 173.78C437.955 173.78 438.875 173.62 439.635 173.3V176.34C438.675 176.74 437.595 176.9 436.155 176.9C431.675 176.9 429.155 174.66 429.155 169.74ZM458.714 167.86V156.34H462.114V167.74C462.114 173.78 458.634 177.3 453.154 177.3C447.714 177.3 444.234 173.78 444.234 167.74V156.34H447.634V167.86C447.634 171.82 449.754 174.1 453.194 174.1C456.554 174.1 458.714 171.82 458.714 167.86ZM468.815 176.5V156.34H472.215V158.86C473.695 157.1 475.535 155.94 478.095 155.94C478.735 155.94 479.335 156.02 479.815 156.18V159.5C479.215 159.34 478.615 159.26 477.815 159.26C475.175 159.26 473.455 160.62 472.215 162.66V176.5H468.815ZM501.422 173.18C499.542 175.7 496.542 177.3 492.782 177.3C485.982 177.3 481.782 172.3 481.782 166.42C481.782 160.3 485.702 155.54 491.942 155.54C497.422 155.54 500.982 159.38 500.982 164.34C500.982 165.14 500.862 165.9 500.742 166.46H485.262C485.382 171.3 488.462 174.22 492.782 174.22C495.382 174.22 497.582 173.02 498.902 171.22L501.422 173.18ZM491.862 158.42C488.542 158.42 486.222 160.38 485.502 163.86H497.582C497.462 160.9 495.422 158.42 491.862 158.42ZM515.806 166.42C515.806 160.54 519.846 155.54 526.166 155.54C529.166 155.54 531.526 156.7 533.326 158.74V146.5H536.726V176.5H533.326V174.1C531.526 176.14 529.166 177.3 526.166 177.3C519.846 177.3 515.806 172.3 515.806 166.42ZM519.406 166.42C519.406 170.7 522.286 174.1 526.566 174.1C529.366 174.1 531.846 172.74 533.326 170.38V162.46C531.766 160.06 529.326 158.74 526.566 158.74C522.286 158.74 519.406 162.14 519.406 166.42ZM561.813 173.18C559.933 175.7 556.933 177.3 553.173 177.3C546.373 177.3 542.173 172.3 542.173 166.42C542.173 160.3 546.093 155.54 552.333 155.54C557.813 155.54 561.373 159.38 561.373 164.34C561.373 165.14 561.253 165.9 561.133 166.46H545.653C545.773 171.3 548.853 174.22 553.173 174.22C555.773 174.22 557.973 173.02 559.293 171.22L561.813 173.18ZM552.253 158.42C548.933 158.42 546.613 160.38 545.893 163.86H557.973C557.853 160.9 555.813 158.42 552.253 158.42ZM564.819 173.74L567.219 171.7C568.619 173.46 570.299 174.46 572.339 174.46C574.579 174.46 575.859 173.1 575.859 171.34C575.859 166.82 565.779 168.42 565.779 161.3C565.779 158.14 568.459 155.54 572.339 155.54C575.219 155.54 577.699 156.9 579.099 158.86L576.739 160.86C575.659 159.34 574.139 158.38 572.379 158.38C570.219 158.38 569.059 159.66 569.059 161.22C569.059 165.74 579.179 164.3 579.179 171.18C579.139 174.94 576.139 177.3 572.379 177.3C569.179 177.3 566.659 176.02 564.819 173.74ZM604.775 174.1C607.255 174.1 609.295 172.9 610.535 171.14L613.215 173.18C611.335 175.7 608.415 177.3 604.735 177.3C598.055 177.3 593.775 172.3 593.775 166.42C593.775 160.54 598.055 155.54 604.735 155.54C608.375 155.54 611.335 157.18 613.215 159.66L610.535 161.7C609.295 159.94 607.255 158.74 604.735 158.74C600.415 158.74 597.335 162.14 597.335 166.42C597.335 170.74 600.415 174.1 604.775 174.1ZM623.084 177.06C619.124 177.06 616.444 174.86 616.444 171.42C616.444 168.38 618.764 166.22 623.044 165.5L629.844 164.38V162.98C629.844 160.18 627.844 158.58 624.964 158.58C622.644 158.58 620.764 159.66 619.524 161.38L616.964 159.42C618.724 157.02 621.564 155.54 625.084 155.54C630.204 155.54 633.244 158.54 633.244 162.98V176.5H629.844V173.94C628.324 175.9 625.684 177.06 623.084 177.06ZM619.884 171.3C619.884 173.02 621.284 174.26 623.644 174.26C626.324 174.26 628.524 172.98 629.844 170.82V166.86L623.884 167.86C621.124 168.34 619.884 169.58 619.884 171.3ZM640.065 176.5V156.34H643.465V158.62C645.105 156.82 647.185 155.54 650.185 155.54C654.705 155.54 658.065 158.58 658.065 164.3V176.5H654.665V164.42C654.665 160.82 652.625 158.74 649.505 158.74C646.585 158.74 644.745 160.42 643.465 162.54V176.5H640.065ZM663.189 166.42C663.189 160.54 667.229 155.54 673.549 155.54C676.549 155.54 678.909 156.7 680.709 158.74V146.5H684.109V176.5H680.709V174.1C678.909 176.14 676.549 177.3 673.549 177.3C667.229 177.3 663.189 172.3 663.189 166.42ZM666.789 166.42C666.789 170.7 669.669 174.1 673.949 174.1C676.749 174.1 679.229 172.74 680.709 170.38V162.46C679.149 160.06 676.709 158.74 673.949 158.74C669.669 158.74 666.789 162.14 666.789 166.42ZM692.996 151.1C691.676 151.1 690.596 150.02 690.596 148.7C690.596 147.42 691.676 146.34 692.996 146.34C694.316 146.34 695.356 147.42 695.356 148.7C695.356 150.02 694.316 151.1 692.996 151.1ZM691.276 176.5V156.34H694.676V176.5H691.276ZM700.142 166.42C700.142 160.54 704.182 155.54 710.502 155.54C713.502 155.54 715.862 156.7 717.662 158.74V146.5H721.062V176.5H717.662V174.1C715.862 176.14 713.502 177.3 710.502 177.3C704.182 177.3 700.142 172.3 700.142 166.42ZM703.742 166.42C703.742 170.7 706.622 174.1 710.902 174.1C713.702 174.1 716.182 172.74 717.662 170.38V162.46C716.102 160.06 713.662 158.74 710.902 158.74C706.622 158.74 703.742 162.14 703.742 166.42ZM733.709 177.06C729.749 177.06 727.069 174.86 727.069 171.42C727.069 168.38 729.389 166.22 733.669 165.5L740.469 164.38V162.98C740.469 160.18 738.469 158.58 735.589 158.58C733.269 158.58 731.389 159.66 730.149 161.38L727.589 159.42C729.349 157.02 732.189 155.54 735.709 155.54C740.829 155.54 743.869 158.54 743.869 162.98V176.5H740.469V173.94C738.949 175.9 736.309 177.06 733.709 177.06ZM730.509 171.3C730.509 173.02 731.909 174.26 734.269 174.26C736.949 174.26 739.149 172.98 740.469 170.82V166.86L734.509 167.86C731.749 168.34 730.509 169.58 730.509 171.3ZM751.85 169.74V159.42H748.05V156.34H751.85V151.3H755.29V156.34H762.29V159.42H755.29V169.74C755.29 172.9 756.89 173.78 759.33 173.78C760.65 173.78 761.57 173.62 762.33 173.3V176.34C761.37 176.74 760.29 176.9 758.85 176.9C754.37 176.9 751.85 174.66 751.85 169.74ZM781.41 167.86V156.34H784.81V167.74C784.81 173.78 781.33 177.3 775.85 177.3C770.41 177.3 766.93 173.78 766.93 167.74V156.34H770.33V167.86C770.33 171.82 772.45 174.1 775.89 174.1C779.25 174.1 781.41 171.82 781.41 167.86ZM791.51 176.5V156.34H794.91V158.86C796.39 157.1 798.23 155.94 800.79 155.94C801.43 155.94 802.03 156.02 802.51 156.18V159.5C801.91 159.34 801.31 159.26 800.51 159.26C797.87 159.26 796.15 160.62 794.91 162.66V176.5H791.51ZM824.118 173.18C822.238 175.7 819.238 177.3 815.478 177.3C808.678 177.3 804.478 172.3 804.478 166.42C804.478 160.3 808.398 155.54 814.638 155.54C820.118 155.54 823.678 159.38 823.678 164.34C823.678 165.14 823.558 165.9 823.438 166.46H807.958C808.078 171.3 811.158 174.22 815.478 174.22C818.078 174.22 820.278 173.02 821.598 171.22L824.118 173.18ZM814.558 158.42C811.238 158.42 808.918 160.38 808.198 163.86H820.278C820.158 160.9 818.118 158.42 814.558 158.42ZM827.124 173.74L829.524 171.7C830.924 173.46 832.604 174.46 834.644 174.46C836.884 174.46 838.164 173.1 838.164 171.34C838.164 166.82 828.084 168.42 828.084 161.3C828.084 158.14 830.764 155.54 834.644 155.54C837.524 155.54 840.004 156.9 841.404 158.86L839.044 160.86C837.964 159.34 836.444 158.38 834.684 158.38C832.524 158.38 831.364 159.66 831.364 161.22C831.364 165.74 841.484 164.3 841.484 171.18C841.444 174.94 838.444 177.3 834.684 177.3C831.484 177.3 828.964 176.02 827.124 173.74Z" fill="black"/>
<g clip-path="url(#clip0_883_1701)">
<g clip-path="url(#clip1_883_1701)">
<path d="M340.887 472.176C346.332 475.953 353.86 474.624 357.143 468.866C367.478 450.741 373.532 430.431 374.765 409.495C376.233 384.556 370.804 359.693 359.073 337.637C347.341 315.58 329.761 297.18 308.26 284.457C286.76 271.734 262.171 265.18 237.19 265.512C212.21 265.845 187.803 273.051 166.649 286.342C145.495 299.633 128.411 318.493 117.27 340.855C106.13 363.216 101.364 388.214 103.496 413.105C105.286 434.001 111.878 454.143 122.692 471.987C126.126 477.654 133.687 478.783 139.03 474.862L141.61 472.969C146.953 469.048 148.041 461.565 144.732 455.823C136.805 442.068 131.96 426.699 130.597 410.784C128.891 390.871 132.704 370.873 141.616 352.984C150.528 335.095 164.196 320.006 181.119 309.374C198.043 298.741 217.568 292.976 237.552 292.71C257.537 292.444 277.208 297.688 294.408 307.866C311.609 318.044 325.673 332.764 335.058 350.409C344.443 368.055 348.787 387.945 347.612 407.896C346.673 423.841 342.238 439.334 334.68 453.295C331.525 459.123 332.812 466.574 338.258 470.352L340.887 472.176Z" fill="#EEEEEE"/>
<path d="M303.118 296.454C306.61 290.82 304.893 283.371 298.975 280.39C274.505 268.063 246.786 263.373 219.453 267.092C188.143 271.353 159.293 286.384 137.859 309.603C116.426 332.822 103.747 362.78 102 394.331C100.474 421.874 107.363 449.129 121.604 472.536C125.049 478.198 132.611 479.314 137.948 475.384L140.524 473.486C145.861 469.556 146.936 462.072 143.617 456.335C133.055 438.08 127.982 417.064 129.158 395.835C130.556 370.594 140.699 346.628 157.846 328.052C174.993 309.477 198.072 297.453 223.121 294.044C244.189 291.177 265.543 294.555 284.583 303.626C290.566 306.476 297.941 304.807 301.432 299.173L303.118 296.454Z" fill="url(#paint0_linear_883_1701)"/>
<path d="M241 308.5V319.5" stroke="#D9D9D9" stroke-width="2" stroke-linecap="round"/>
<path d="M310.001 338.291L306.997 341.295" stroke="#D9D9D9" stroke-width="2" stroke-linecap="round"/>
<path d="M156.95 357.308L165.145 362.039" stroke="#D9D9D9" stroke-width="2" stroke-linecap="round"/>
<path d="M192.328 321.93L194.452 325.609" stroke="#D9D9D9" stroke-width="2" stroke-linecap="round"/>
<path d="M145 406.5L149 406.5" stroke="#D9D9D9" stroke-width="2" stroke-linecap="round"/>
<path d="M145 406.5L149 406.5" stroke="#D9D9D9" stroke-width="2" stroke-linecap="round"/>
<path d="M149.293 431.652L153.397 430.553" stroke="#D9D9D9" stroke-width="2" stroke-linecap="round"/>
<path d="M215.639 312.274L216.739 316.378" stroke="#D9D9D9" stroke-width="2" stroke-linecap="round"/>
<path d="M289.983 322.93L287.859 326.609" stroke="#D9D9D9" stroke-width="2" stroke-linecap="round"/>
<path d="M148.293 381.62L152.397 382.719" stroke="#D9D9D9" stroke-width="2" stroke-linecap="round"/>
<path d="M267.672 312.274L266.572 316.378" stroke="#D9D9D9" stroke-width="2" stroke-linecap="round"/>
<path d="M324.361 358.308L316.166 363.039" stroke="#D9D9D9" stroke-width="2" stroke-linecap="round"/>
<path d="M172.31 337.291L175.314 340.295" stroke="#D9D9D9" stroke-width="2" stroke-linecap="round"/>
<path d="M313.167 448.232L321.361 452.963" stroke="#D9D9D9" stroke-width="2" stroke-linecap="round"/>
<path d="M330 406.5L334 406.5" stroke="#D9D9D9" stroke-width="2" stroke-linecap="round"/>
<path d="M327.877 383.069L331.981 381.97" stroke="#D9D9D9" stroke-width="2" stroke-linecap="round"/>
<path d="M326.877 429.203L330.981 430.302" stroke="#D9D9D9" stroke-width="2" stroke-linecap="round"/>
<path d="M168.145 449.232L159.949 453.964" stroke="#D9D9D9" stroke-width="2" stroke-linecap="round"/>
<circle cx="241" cy="401.5" r="12" fill="#D9D9D9"/>
<path d="M282.404 331.25C283.032 330.324 284.277 330.056 285.23 330.641V330.641C286.183 331.227 286.507 332.459 285.964 333.437L246.135 405.216C244.549 408.075 240.898 409.033 238.112 407.321V407.321C235.326 405.61 234.531 401.92 236.365 399.213L282.404 331.25Z" fill="#39056C"/>
<circle cx="241.5" cy="402" r="2.5" fill="white"/>
<path d="M177.588 441.86C179.7 441.86 180.732 443.804 180.732 446.3C180.732 448.796 179.7 450.74 177.588 450.74C175.5 450.74 174.456 448.796 174.456 446.3C174.456 443.804 175.5 441.86 177.588 441.86ZM177.6 442.868C176.256 442.868 175.56 444.332 175.56 446.3C175.56 448.268 176.256 449.732 177.6 449.732C178.932 449.732 179.616 448.268 179.616 446.3C179.616 444.332 178.932 442.868 177.6 442.868Z" fill="#D9D9D9"/>
<path d="M169.816 377.5V376.528L172.66 373.6C173.644 372.568 174.088 372.1 174.088 371.212C174.088 370.336 173.452 369.832 172.6 369.832C171.712 369.832 171.136 370.276 170.644 371.092L169.756 370.552C170.44 369.484 171.376 368.86 172.684 368.86C174.088 368.86 175.204 369.772 175.204 371.14C175.204 372.28 174.46 373.132 173.452 374.188L171.148 376.528H175.432V377.5H169.816ZM179.783 368.86C181.895 368.86 182.927 370.804 182.927 373.3C182.927 375.796 181.895 377.74 179.783 377.74C177.695 377.74 176.651 375.796 176.651 373.3C176.651 370.804 177.695 368.86 179.783 368.86ZM179.795 369.868C178.451 369.868 177.755 371.332 177.755 373.3C177.755 375.268 178.451 376.732 179.795 376.732C181.127 376.732 181.811 375.268 181.811 373.3C181.811 371.332 181.127 369.868 179.795 369.868ZM187.061 368.86C189.173 368.86 190.205 370.804 190.205 373.3C190.205 375.796 189.173 377.74 187.061 377.74C184.973 377.74 183.929 375.796 183.929 373.3C183.929 370.804 184.973 368.86 187.061 368.86ZM187.073 369.868C185.729 369.868 185.033 371.332 185.033 373.3C185.033 375.268 185.729 376.732 187.073 376.732C188.405 376.732 189.089 375.268 189.089 373.3C189.089 371.332 188.405 369.868 187.073 369.868Z" fill="#D9D9D9"/>
<path d="M230.48 335.076V334.104L234.428 329.1H235.736V334.104H236.708V335.076H235.736V337.5H234.656V335.076H230.48ZM231.632 334.104H234.656V330.276L231.632 334.104ZM240.83 328.86C242.942 328.86 243.974 330.804 243.974 333.3C243.974 335.796 242.942 337.74 240.83 337.74C238.742 337.74 237.698 335.796 237.698 333.3C237.698 330.804 238.742 328.86 240.83 328.86ZM240.842 329.868C239.498 329.868 238.802 331.332 238.802 333.3C238.802 335.268 239.498 336.732 240.842 336.732C242.174 336.732 242.858 335.268 242.858 333.3C242.858 331.332 242.174 329.868 240.842 329.868ZM248.108 328.86C250.22 328.86 251.252 330.804 251.252 333.3C251.252 335.796 250.22 337.74 248.108 337.74C246.02 337.74 244.976 335.796 244.976 333.3C244.976 330.804 246.02 328.86 248.108 328.86ZM248.12 329.868C246.776 329.868 246.08 331.332 246.08 333.3C246.08 335.268 246.776 336.732 248.12 336.732C249.452 336.732 250.136 335.268 250.136 333.3C250.136 331.332 249.452 329.868 248.12 329.868Z" fill="#D9D9D9"/>
<path d="M293.996 368.86C295.292 368.86 296.108 369.436 296.696 370.288L295.844 370.948C295.352 370.216 294.776 369.844 294.008 369.844C292.472 369.844 291.716 371.116 291.656 373.192C292.256 372.592 293.048 372.256 293.972 372.256C295.556 372.256 296.636 373.444 296.636 374.92C296.636 376.444 295.556 377.74 293.744 377.74C291.776 377.74 290.54 376.348 290.54 373.432C290.54 370.708 291.608 368.86 293.996 368.86ZM293.804 373.228C292.964 373.228 292.208 373.588 291.704 374.308C291.884 376.084 292.652 376.756 293.72 376.756C294.848 376.756 295.508 375.964 295.508 374.956C295.508 373.984 294.788 373.228 293.804 373.228ZM300.666 368.86C302.778 368.86 303.81 370.804 303.81 373.3C303.81 375.796 302.778 377.74 300.666 377.74C298.578 377.74 297.534 375.796 297.534 373.3C297.534 370.804 298.578 368.86 300.666 368.86ZM300.678 369.868C299.334 369.868 298.638 371.332 298.638 373.3C298.638 375.268 299.334 376.732 300.678 376.732C302.01 376.732 302.694 375.268 302.694 373.3C302.694 371.332 302.01 369.868 300.678 369.868ZM307.943 368.86C310.055 368.86 311.087 370.804 311.087 373.3C311.087 375.796 310.055 377.74 307.943 377.74C305.855 377.74 304.811 375.796 304.811 373.3C304.811 370.804 305.855 368.86 307.943 368.86ZM307.955 369.868C306.611 369.868 305.915 371.332 305.915 373.3C305.915 375.268 306.611 376.732 307.955 376.732C309.287 376.732 309.971 375.268 309.971 373.3C309.971 371.332 309.287 369.868 307.955 369.868Z" fill="#D9D9D9"/>
<path d="M291.6 438.86C293.28 438.86 294.252 439.856 294.252 441.056C294.252 441.896 293.82 442.556 293.028 442.904C294.072 443.276 294.66 444.092 294.66 445.172C294.66 446.624 293.52 447.74 291.6 447.74C289.692 447.74 288.54 446.624 288.54 445.172C288.54 444.092 289.128 443.276 290.172 442.904C289.368 442.556 288.936 441.896 288.936 441.056C288.936 439.856 289.908 438.86 291.6 438.86ZM291.612 442.496C292.512 442.496 293.136 441.944 293.136 441.152C293.136 440.348 292.512 439.796 291.612 439.796C290.676 439.796 290.064 440.348 290.064 441.152C290.064 441.956 290.676 442.496 291.612 442.496ZM291.612 446.792C292.764 446.792 293.544 446.108 293.544 445.124C293.544 444.128 292.764 443.42 291.612 443.42C290.436 443.42 289.656 444.128 289.656 445.124C289.656 446.12 290.436 446.792 291.612 446.792ZM298.596 438.86C300.708 438.86 301.74 440.804 301.74 443.3C301.74 445.796 300.708 447.74 298.596 447.74C296.508 447.74 295.464 445.796 295.464 443.3C295.464 440.804 296.508 438.86 298.596 438.86ZM298.608 439.868C297.264 439.868 296.568 441.332 296.568 443.3C296.568 445.268 297.264 446.732 298.608 446.732C299.94 446.732 300.624 445.268 300.624 443.3C300.624 441.332 299.94 439.868 298.608 439.868ZM305.873 438.86C307.985 438.86 309.017 440.804 309.017 443.3C309.017 445.796 307.985 447.74 305.873 447.74C303.785 447.74 302.741 445.796 302.741 443.3C302.741 440.804 303.785 438.86 305.873 438.86ZM305.885 439.868C304.541 439.868 303.845 441.332 303.845 443.3C303.845 445.268 304.541 446.732 305.885 446.732C307.217 446.732 307.901 445.268 307.901 443.3C307.901 441.332 307.217 439.868 305.885 439.868Z" fill="#D9D9D9"/>
<path d="M205.42 481.72L206.218 466.9H222.064V471.536H211.12L210.816 477.084H212.868C219.936 477.084 223.052 480.314 223.052 485.482C223.052 490.916 218.796 494.26 213.324 494.26C208.384 494.26 205.116 492.094 202.912 488.256L207.396 485.482C208.916 488.408 210.74 489.7 213.324 489.7C215.946 489.7 217.808 488.142 217.808 485.672C217.808 483.164 215.946 481.72 212.64 481.72H205.42ZM235.388 466.14C242.38 466.14 245.648 472.22 245.648 480.2C245.648 488.18 242.38 494.26 235.388 494.26C228.396 494.26 225.128 488.18 225.128 480.2C225.128 472.22 228.396 466.14 235.388 466.14ZM235.388 470.89C232.006 470.89 230.372 474.614 230.372 480.2C230.372 485.824 232.006 489.51 235.388 489.51C238.732 489.51 240.366 485.786 240.366 480.2C240.366 474.576 238.732 470.89 235.388 470.89ZM257.747 466.14C264.739 466.14 268.007 472.22 268.007 480.2C268.007 488.18 264.739 494.26 257.747 494.26C250.755 494.26 247.487 488.18 247.487 480.2C247.487 472.22 250.755 466.14 257.747 466.14ZM257.747 470.89C254.365 470.89 252.731 474.614 252.731 480.2C252.731 485.824 254.365 489.51 257.747 489.51C261.091 489.51 262.725 485.786 262.725 480.2C262.725 474.576 261.091 470.89 257.747 470.89Z" fill="black"/>
</g>
<path d="M110.956 546.5V524.1H115.692L127.212 541.796V524.1H130.892V546.5H126.124L114.604 528.804V546.5H110.956ZM144.301 529.732C149.549 529.732 153.069 533.668 153.069 538.436C153.069 543.204 149.549 547.14 144.301 547.14C139.085 547.14 135.533 543.204 135.533 538.436C135.533 533.668 139.085 529.732 144.301 529.732ZM144.333 544.036C147.373 544.036 149.613 541.508 149.613 538.436C149.613 535.3 147.373 532.836 144.333 532.836C141.229 532.836 138.989 535.332 138.989 538.436C138.989 541.54 141.229 544.036 144.333 544.036ZM157.188 546.5V530.372H160.484V531.876C161.636 530.628 163.14 529.732 165.284 529.732C167.492 529.732 169.348 530.724 170.372 532.644C171.62 531.044 173.22 529.732 176.004 529.732C179.364 529.732 181.956 532.036 181.956 536.484V546.5H178.628V536.612C178.628 534.244 177.316 532.836 175.236 532.836C173.316 532.836 172.068 534.052 171.204 535.588C171.236 535.876 171.236 536.164 171.236 536.484V546.5H167.908V536.612C167.908 534.244 166.628 532.836 164.516 532.836C162.468 532.836 161.252 534.244 160.484 535.62V546.5H157.188ZM204.023 538.436C204.023 543.14 200.855 547.14 195.799 547.14C193.463 547.14 191.735 546.308 190.359 544.836V546.5H187.063V522.5H190.359V532.036C191.735 530.564 193.463 529.732 195.799 529.732C200.855 529.732 204.023 533.732 204.023 538.436ZM195.383 532.836C193.271 532.836 191.479 533.828 190.359 535.556V541.316C191.543 543.076 193.303 544.036 195.383 544.036C198.487 544.036 200.567 541.604 200.567 538.436C200.567 535.268 198.487 532.836 195.383 532.836ZM208.157 546.5V530.372H211.453V532.196C212.573 530.948 213.981 530.052 215.965 530.052C216.477 530.052 216.957 530.148 217.373 530.276V533.508C216.861 533.38 216.349 533.284 215.677 533.284C213.629 533.284 212.285 534.372 211.453 535.748V546.5H208.157ZM234.717 543.876C233.213 545.892 230.749 547.14 227.741 547.14C222.173 547.14 218.877 543.14 218.877 538.436C218.877 533.604 221.949 529.732 227.069 529.732C231.517 529.732 234.397 532.772 234.397 536.868C234.397 537.604 234.301 538.34 234.173 538.82H222.269C222.493 542.34 224.637 544.164 227.741 544.164C229.693 544.164 231.325 543.3 232.317 541.956L234.717 543.876ZM227.005 532.484C224.605 532.484 222.941 533.86 222.429 536.356H231.101C231.037 534.34 229.597 532.484 227.005 532.484ZM246.064 538.436C246.064 533.732 249.232 529.732 254.32 529.732C256.624 529.732 258.352 530.564 259.696 532.004V522.5H263.056V546.5H259.696V544.868C258.352 546.308 256.624 547.14 254.32 547.14C249.232 547.14 246.064 543.14 246.064 538.436ZM249.552 538.436C249.552 541.604 251.632 544.036 254.736 544.036C256.816 544.036 258.608 543.044 259.696 541.348V535.524C258.512 533.764 256.752 532.836 254.736 532.836C251.632 532.836 249.552 535.268 249.552 538.436ZM269.971 532.964H266.931L269.715 524.1H273.459L269.971 532.964ZM279.04 526.788C277.824 526.788 276.799 525.764 276.799 524.548C276.799 523.332 277.824 522.308 279.04 522.308C280.256 522.308 281.28 523.332 281.28 524.548C281.28 525.764 280.256 526.788 279.04 526.788ZM277.376 546.5V530.372H280.672V546.5H277.376ZM286.063 546.5V530.372H289.359V531.94C290.575 530.66 292.175 529.732 294.479 529.732C298.031 529.732 300.751 532.132 300.751 536.804V546.5H297.423V536.932C297.423 534.372 296.015 532.836 293.711 532.836C291.503 532.836 290.191 534.212 289.359 535.62V546.5H286.063ZM304.276 544.228L306.548 542.244C307.604 543.588 308.884 544.452 310.484 544.452C312.052 544.452 312.916 543.492 312.916 542.276C312.916 539.012 305.012 540.196 305.012 534.5C305.012 531.844 307.252 529.732 310.484 529.732C312.852 529.732 314.932 530.884 316.084 532.42L313.844 534.372C312.98 533.22 311.86 532.42 310.516 532.42C308.98 532.42 308.212 533.316 308.212 534.404C308.212 537.636 316.116 536.548 316.116 542.084C316.084 545.252 313.524 547.14 310.516 547.14C307.796 547.14 305.78 546.052 304.276 544.228ZM327.678 544.036C329.502 544.036 330.974 543.14 331.87 541.892L334.462 543.876C332.99 545.86 330.622 547.14 327.646 547.14C322.238 547.14 318.846 543.14 318.846 538.436C318.846 533.732 322.238 529.732 327.646 529.732C330.59 529.732 332.99 531.012 334.462 532.996L331.87 534.98C330.974 533.732 329.502 532.836 327.646 532.836C324.542 532.836 322.302 535.268 322.302 538.436C322.302 541.636 324.542 544.036 327.678 544.036ZM337.907 546.5V530.372H341.203V532.196C342.323 530.948 343.731 530.052 345.715 530.052C346.227 530.052 346.707 530.148 347.123 530.276V533.508C346.611 533.38 346.099 533.284 345.427 533.284C343.379 533.284 342.035 534.372 341.203 535.748V546.5H337.907ZM352.415 526.788C351.199 526.788 350.174 525.764 350.174 524.548C350.174 523.332 351.199 522.308 352.415 522.308C353.631 522.308 354.655 523.332 354.655 524.548C354.655 525.764 353.631 526.788 352.415 526.788ZM350.751 546.5V530.372H354.047V546.5H350.751ZM360.398 540.9V533.348H357.358V530.372H360.398V526.34H363.726V530.372H369.07V533.348H363.726V540.9C363.726 543.076 364.878 543.78 366.67 543.78C367.758 543.78 368.494 543.652 369.07 543.428V546.34C368.302 546.66 367.406 546.82 366.158 546.82C362.382 546.82 360.398 544.836 360.398 540.9Z" fill="black"/>
</g>
<mask id="path-35-inside-2_883_1701" fill="white">
<path d="M661 308.5H1035V361.5H661V308.5Z"/>
</mask>
<path d="M661 308.5H1035V361.5H661V308.5Z" fill="#F5F5FE"/>
<path d="M1035 360.5H661V362.5H1035V360.5Z" fill="#000091" mask="url(#path-35-inside-2_883_1701)"/>
<path d="M683.556 341.868C685.812 341.868 687.66 340.764 688.788 339.132L690.588 340.524C689.052 342.612 686.58 343.98 683.556 343.98C678.3 343.98 674.724 339.9 674.724 335.1C674.724 330.3 678.3 326.22 683.556 326.22C686.58 326.22 689.052 327.612 690.588 329.676L688.788 331.068C687.66 329.436 685.812 328.332 683.556 328.332C679.764 328.332 677.052 331.356 677.052 335.1C677.052 338.844 679.764 341.868 683.556 341.868ZM699.11 330.924C702.998 330.924 705.662 333.924 705.662 337.452C705.662 340.98 702.998 343.98 699.11 343.98C695.198 343.98 692.558 340.98 692.558 337.452C692.558 333.924 695.198 330.924 699.11 330.924ZM699.134 342.06C701.654 342.06 703.502 339.948 703.502 337.452C703.502 334.932 701.654 332.844 699.134 332.844C696.542 332.844 694.694 334.932 694.694 337.452C694.694 339.972 696.542 342.06 699.134 342.06ZM708.941 343.5V331.404H710.981V332.772C711.965 331.692 713.213 330.924 715.013 330.924C717.725 330.924 719.741 332.748 719.741 336.18V343.5H717.701V336.252C717.701 334.092 716.477 332.844 714.605 332.844C712.853 332.844 711.749 333.852 710.981 335.124V343.5H708.941ZM721.906 331.404H724.114L727.978 341.364L731.842 331.404H734.05L729.322 343.5H726.634L721.906 331.404ZM747.115 341.508C745.987 343.02 744.187 343.98 741.931 343.98C737.851 343.98 735.331 340.98 735.331 337.452C735.331 333.78 737.683 330.924 741.427 330.924C744.715 330.924 746.851 333.228 746.851 336.204C746.851 336.684 746.779 337.14 746.707 337.476H737.419C737.491 340.38 739.339 342.132 741.931 342.132C743.491 342.132 744.811 341.412 745.603 340.332L747.115 341.508ZM741.379 332.652C739.387 332.652 737.995 333.828 737.563 335.916H744.811C744.739 334.14 743.515 332.652 741.379 332.652ZM750.308 343.5V331.404H752.348V332.916C753.236 331.86 754.34 331.164 755.876 331.164C756.26 331.164 756.62 331.212 756.908 331.308V333.3C756.548 333.204 756.188 333.156 755.708 333.156C754.124 333.156 753.092 333.972 752.348 335.196V343.5H750.308ZM758.552 341.844L759.992 340.62C760.832 341.676 761.84 342.276 763.064 342.276C764.408 342.276 765.176 341.46 765.176 340.404C765.176 337.692 759.128 338.652 759.128 334.38C759.128 332.484 760.736 330.924 763.064 330.924C764.792 330.924 766.28 331.74 767.12 332.916L765.704 334.116C765.056 333.204 764.144 332.628 763.088 332.628C761.792 332.628 761.096 333.396 761.096 334.332C761.096 337.044 767.168 336.18 767.168 340.308C767.144 342.564 765.344 343.98 763.088 343.98C761.168 343.98 759.656 343.212 758.552 341.844ZM773.729 343.836C771.353 343.836 769.745 342.516 769.745 340.452C769.745 338.628 771.137 337.332 773.705 336.9L777.785 336.228V335.388C777.785 333.708 776.585 332.748 774.857 332.748C773.465 332.748 772.337 333.396 771.593 334.428L770.057 333.252C771.113 331.812 772.817 330.924 774.929 330.924C778.001 330.924 779.825 332.724 779.825 335.388V343.5H777.785V341.964C776.873 343.14 775.289 343.836 773.729 343.836ZM771.809 340.38C771.809 341.412 772.649 342.156 774.065 342.156C775.673 342.156 776.993 341.388 777.785 340.092V337.716L774.209 338.316C772.553 338.604 771.809 339.348 771.809 340.38ZM784.614 339.444V333.252H782.334V331.404H784.614V328.38H786.678V331.404H790.878V333.252H786.678V339.444C786.678 341.34 787.638 341.868 789.102 341.868C789.894 341.868 790.446 341.772 790.902 341.58V343.404C790.326 343.644 789.678 343.74 788.814 343.74C786.126 343.74 784.614 342.396 784.614 339.444ZM795.028 328.26C794.236 328.26 793.588 327.612 793.588 326.82C793.588 326.052 794.236 325.404 795.028 325.404C795.82 325.404 796.444 326.052 796.444 326.82C796.444 327.612 795.82 328.26 795.028 328.26ZM793.996 343.5V331.404H796.036V343.5H793.996ZM805.868 330.924C809.756 330.924 812.42 333.924 812.42 337.452C812.42 340.98 809.756 343.98 805.868 343.98C801.956 343.98 799.316 340.98 799.316 337.452C799.316 333.924 801.956 330.924 805.868 330.924ZM805.892 342.06C808.412 342.06 810.26 339.948 810.26 337.452C810.26 334.932 808.412 332.844 805.892 332.844C803.3 332.844 801.452 334.932 801.452 337.452C801.452 339.972 803.3 342.06 805.892 342.06ZM815.699 343.5V331.404H817.739V332.772C818.723 331.692 819.971 330.924 821.771 330.924C824.483 330.924 826.499 332.748 826.499 336.18V343.5H824.459V336.252C824.459 334.092 823.235 332.844 821.363 332.844C819.611 332.844 818.507 333.852 817.739 335.124V343.5H815.699ZM840.602 343.5V328.884L836.162 331.284L835.058 329.748L840.578 326.7H842.738V343.5H840.602Z" fill="black"/>
<path d="M1011.33 322.634H1004.71C1003.49 322.634 1002.5 323.622 1002.5 324.841V340.293C1002.5 341.512 1003.49 342.5 1004.71 342.5H1020.16C1021.38 342.5 1022.37 341.512 1022.37 340.293V333.671" stroke="black" stroke-linecap="round" stroke-linejoin="round"/>
<path d="M1009.67 332.015L1018.5 323.186C1019.42 322.271 1020.9 322.271 1021.81 323.186C1022.73 324.1 1022.73 325.582 1021.81 326.497L1012.98 335.326L1008.02 336.982L1009.67 332.015Z" stroke="black" stroke-linecap="round" stroke-linejoin="round"/>
<mask id="path-40-inside-3_883_1701" fill="white">
<path d="M661 371.5H1035V424.5H661V371.5Z"/>
</mask>
<path d="M661 371.5H1035V424.5H661V371.5Z" fill="#F5F5FE"/>
<path d="M1035 423.5H661V425.5H1035V423.5Z" fill="#000091" mask="url(#path-40-inside-3_883_1701)"/>
<path d="M682.056 404.868C684.312 404.868 686.16 403.764 687.288 402.132L689.088 403.524C687.552 405.612 685.08 406.98 682.056 406.98C676.8 406.98 673.224 402.9 673.224 398.1C673.224 393.3 676.8 389.22 682.056 389.22C685.08 389.22 687.552 390.612 689.088 392.676L687.288 394.068C686.16 392.436 684.312 391.332 682.056 391.332C678.264 391.332 675.552 394.356 675.552 398.1C675.552 401.844 678.264 404.868 682.056 404.868ZM697.61 393.924C701.498 393.924 704.162 396.924 704.162 400.452C704.162 403.98 701.498 406.98 697.61 406.98C693.698 406.98 691.058 403.98 691.058 400.452C691.058 396.924 693.698 393.924 697.61 393.924ZM697.634 405.06C700.154 405.06 702.002 402.948 702.002 400.452C702.002 397.932 700.154 395.844 697.634 395.844C695.042 395.844 693.194 397.932 693.194 400.452C693.194 402.972 695.042 405.06 697.634 405.06ZM707.441 406.5V394.404H709.481V395.772C710.465 394.692 711.713 393.924 713.513 393.924C716.225 393.924 718.241 395.748 718.241 399.18V406.5H716.201V399.252C716.201 397.092 714.977 395.844 713.105 395.844C711.353 395.844 710.249 396.852 709.481 398.124V406.5H707.441ZM720.406 394.404H722.614L726.478 404.364L730.342 394.404H732.55L727.822 406.5H725.134L720.406 394.404ZM745.615 404.508C744.487 406.02 742.687 406.98 740.431 406.98C736.351 406.98 733.831 403.98 733.831 400.452C733.831 396.78 736.183 393.924 739.927 393.924C743.215 393.924 745.351 396.228 745.351 399.204C745.351 399.684 745.279 400.14 745.207 400.476H735.919C735.991 403.38 737.839 405.132 740.431 405.132C741.991 405.132 743.311 404.412 744.103 403.332L745.615 404.508ZM739.879 395.652C737.887 395.652 736.495 396.828 736.063 398.916H743.311C743.239 397.14 742.015 395.652 739.879 395.652ZM748.808 406.5V394.404H750.848V395.916C751.736 394.86 752.84 394.164 754.376 394.164C754.76 394.164 755.12 394.212 755.408 394.308V396.3C755.048 396.204 754.688 396.156 754.208 396.156C752.624 396.156 751.592 396.972 750.848 398.196V406.5H748.808ZM757.052 404.844L758.492 403.62C759.332 404.676 760.34 405.276 761.564 405.276C762.908 405.276 763.676 404.46 763.676 403.404C763.676 400.692 757.628 401.652 757.628 397.38C757.628 395.484 759.236 393.924 761.564 393.924C763.292 393.924 764.78 394.74 765.62 395.916L764.204 397.116C763.556 396.204 762.644 395.628 761.588 395.628C760.292 395.628 759.596 396.396 759.596 397.332C759.596 400.044 765.668 399.18 765.668 403.308C765.644 405.564 763.844 406.98 761.588 406.98C759.668 406.98 758.156 406.212 757.052 404.844ZM772.229 406.836C769.853 406.836 768.245 405.516 768.245 403.452C768.245 401.628 769.637 400.332 772.205 399.9L776.285 399.228V398.388C776.285 396.708 775.085 395.748 773.357 395.748C771.965 395.748 770.837 396.396 770.093 397.428L768.557 396.252C769.613 394.812 771.317 393.924 773.429 393.924C776.501 393.924 778.325 395.724 778.325 398.388V406.5H776.285V404.964C775.373 406.14 773.789 406.836 772.229 406.836ZM770.309 403.38C770.309 404.412 771.149 405.156 772.565 405.156C774.173 405.156 775.493 404.388 776.285 403.092V400.716L772.709 401.316C771.053 401.604 770.309 402.348 770.309 403.38ZM783.114 402.444V396.252H780.834V394.404H783.114V391.38H785.178V394.404H789.378V396.252H785.178V402.444C785.178 404.34 786.138 404.868 787.602 404.868C788.394 404.868 788.946 404.772 789.402 404.58V406.404C788.826 406.644 788.178 406.74 787.314 406.74C784.626 406.74 783.114 405.396 783.114 402.444ZM793.528 391.26C792.736 391.26 792.088 390.612 792.088 389.82C792.088 389.052 792.736 388.404 793.528 388.404C794.32 388.404 794.944 389.052 794.944 389.82C794.944 390.612 794.32 391.26 793.528 391.26ZM792.496 406.5V394.404H794.536V406.5H792.496ZM804.368 393.924C808.256 393.924 810.92 396.924 810.92 400.452C810.92 403.98 808.256 406.98 804.368 406.98C800.456 406.98 797.816 403.98 797.816 400.452C797.816 396.924 800.456 393.924 804.368 393.924ZM804.392 405.06C806.912 405.06 808.76 402.948 808.76 400.452C808.76 397.932 806.912 395.844 804.392 395.844C801.8 395.844 799.952 397.932 799.952 400.452C799.952 402.972 801.8 405.06 804.392 405.06ZM814.199 406.5V394.404H816.239V395.772C817.223 394.692 818.471 393.924 820.271 393.924C822.983 393.924 824.999 395.748 824.999 399.18V406.5H822.959V399.252C822.959 397.092 821.735 395.844 819.863 395.844C818.111 395.844 817.007 396.852 816.239 398.124V406.5H814.199ZM835.046 406.5V404.556L840.734 398.7C842.702 396.636 843.59 395.7 843.59 393.924C843.59 392.172 842.318 391.164 840.614 391.164C838.838 391.164 837.686 392.052 836.702 393.684L834.926 392.604C836.294 390.468 838.166 389.22 840.782 389.22C843.59 389.22 845.822 391.044 845.822 393.78C845.822 396.06 844.334 397.764 842.318 399.876L837.71 404.556H846.278V406.5H835.046Z" fill="black"/>
<path d="M1012.83 385.634H1006.21C1004.99 385.634 1004 386.622 1004 387.841V403.293C1004 404.512 1004.99 405.5 1006.21 405.5H1021.66C1022.88 405.5 1023.87 404.512 1023.87 403.293V396.671" stroke="black" stroke-linecap="round" stroke-linejoin="round"/>
<path d="M1011.17 395.015L1020 386.186C1020.92 385.271 1022.4 385.271 1023.31 386.186C1024.23 387.1 1024.23 388.582 1023.31 389.497L1014.48 398.326L1009.52 399.982L1011.17 395.015Z" stroke="black" stroke-linecap="round" stroke-linejoin="round"/>
<mask id="path-45-inside-4_883_1701" fill="white">
<path d="M661 434.5H1035V487.5H661V434.5Z"/>
</mask>
<path d="M661 434.5H1035V487.5H661V434.5Z" fill="#F5F5FE"/>
<path d="M1035 486.5H661V488.5H1035V486.5Z" fill="#000091" mask="url(#path-45-inside-4_883_1701)"/>
<path d="M682.056 467.868C684.312 467.868 686.16 466.764 687.288 465.132L689.088 466.524C687.552 468.612 685.08 469.98 682.056 469.98C676.8 469.98 673.224 465.9 673.224 461.1C673.224 456.3 676.8 452.22 682.056 452.22C685.08 452.22 687.552 453.612 689.088 455.676L687.288 457.068C686.16 455.436 684.312 454.332 682.056 454.332C678.264 454.332 675.552 457.356 675.552 461.1C675.552 464.844 678.264 467.868 682.056 467.868ZM697.61 456.924C701.498 456.924 704.162 459.924 704.162 463.452C704.162 466.98 701.498 469.98 697.61 469.98C693.698 469.98 691.058 466.98 691.058 463.452C691.058 459.924 693.698 456.924 697.61 456.924ZM697.634 468.06C700.154 468.06 702.002 465.948 702.002 463.452C702.002 460.932 700.154 458.844 697.634 458.844C695.042 458.844 693.194 460.932 693.194 463.452C693.194 465.972 695.042 468.06 697.634 468.06ZM707.441 469.5V457.404H709.481V458.772C710.465 457.692 711.713 456.924 713.513 456.924C716.225 456.924 718.241 458.748 718.241 462.18V469.5H716.201V462.252C716.201 460.092 714.977 458.844 713.105 458.844C711.353 458.844 710.249 459.852 709.481 461.124V469.5H707.441ZM720.406 457.404H722.614L726.478 467.364L730.342 457.404H732.55L727.822 469.5H725.134L720.406 457.404ZM745.615 467.508C744.487 469.02 742.687 469.98 740.431 469.98C736.351 469.98 733.831 466.98 733.831 463.452C733.831 459.78 736.183 456.924 739.927 456.924C743.215 456.924 745.351 459.228 745.351 462.204C745.351 462.684 745.279 463.14 745.207 463.476H735.919C735.991 466.38 737.839 468.132 740.431 468.132C741.991 468.132 743.311 467.412 744.103 466.332L745.615 467.508ZM739.879 458.652C737.887 458.652 736.495 459.828 736.063 461.916H743.311C743.239 460.14 742.015 458.652 739.879 458.652ZM748.808 469.5V457.404H750.848V458.916C751.736 457.86 752.84 457.164 754.376 457.164C754.76 457.164 755.12 457.212 755.408 457.308V459.3C755.048 459.204 754.688 459.156 754.208 459.156C752.624 459.156 751.592 459.972 750.848 461.196V469.5H748.808ZM757.052 467.844L758.492 466.62C759.332 467.676 760.34 468.276 761.564 468.276C762.908 468.276 763.676 467.46 763.676 466.404C763.676 463.692 757.628 464.652 757.628 460.38C757.628 458.484 759.236 456.924 761.564 456.924C763.292 456.924 764.78 457.74 765.62 458.916L764.204 460.116C763.556 459.204 762.644 458.628 761.588 458.628C760.292 458.628 759.596 459.396 759.596 460.332C759.596 463.044 765.668 462.18 765.668 466.308C765.644 468.564 763.844 469.98 761.588 469.98C759.668 469.98 758.156 469.212 757.052 467.844ZM772.229 469.836C769.853 469.836 768.245 468.516 768.245 466.452C768.245 464.628 769.637 463.332 772.205 462.9L776.285 462.228V461.388C776.285 459.708 775.085 458.748 773.357 458.748C771.965 458.748 770.837 459.396 770.093 460.428L768.557 459.252C769.613 457.812 771.317 456.924 773.429 456.924C776.501 456.924 778.325 458.724 778.325 461.388V469.5H776.285V467.964C775.373 469.14 773.789 469.836 772.229 469.836ZM770.309 466.38C770.309 467.412 771.149 468.156 772.565 468.156C774.173 468.156 775.493 467.388 776.285 466.092V463.716L772.709 464.316C771.053 464.604 770.309 465.348 770.309 466.38ZM783.114 465.444V459.252H780.834V457.404H783.114V454.38H785.178V457.404H789.378V459.252H785.178V465.444C785.178 467.34 786.138 467.868 787.602 467.868C788.394 467.868 788.946 467.772 789.402 467.58V469.404C788.826 469.644 788.178 469.74 787.314 469.74C784.626 469.74 783.114 468.396 783.114 465.444ZM793.528 454.26C792.736 454.26 792.088 453.612 792.088 452.82C792.088 452.052 792.736 451.404 793.528 451.404C794.32 451.404 794.944 452.052 794.944 452.82C794.944 453.612 794.32 454.26 793.528 454.26ZM792.496 469.5V457.404H794.536V469.5H792.496ZM804.368 456.924C808.256 456.924 810.92 459.924 810.92 463.452C810.92 466.98 808.256 469.98 804.368 469.98C800.456 469.98 797.816 466.98 797.816 463.452C797.816 459.924 800.456 456.924 804.368 456.924ZM804.392 468.06C806.912 468.06 808.76 465.948 808.76 463.452C808.76 460.932 806.912 458.844 804.392 458.844C801.8 458.844 799.952 460.932 799.952 463.452C799.952 465.972 801.8 468.06 804.392 468.06ZM814.199 469.5V457.404H816.239V458.772C817.223 457.692 818.471 456.924 820.271 456.924C822.983 456.924 824.999 458.748 824.999 462.18V469.5H822.959V462.252C822.959 460.092 821.735 458.844 819.863 458.844C818.111 458.844 817.007 459.852 816.239 461.124V469.5H814.199ZM846.422 464.868C846.422 467.916 843.95 469.98 840.566 469.98C837.662 469.98 835.742 468.804 834.398 466.572L836.294 465.396C837.326 467.244 838.67 468.036 840.542 468.036C842.63 468.036 844.19 466.812 844.19 464.772C844.19 462.876 842.846 461.556 840.638 461.556H837.782V459.612H840.302C842.222 459.612 843.446 458.46 843.446 456.828C843.446 455.124 842.174 454.164 840.446 454.164C838.934 454.164 837.758 454.932 836.966 456.396L835.166 455.292C836.366 453.324 838.142 452.22 840.59 452.22C843.494 452.22 845.654 453.972 845.654 456.636C845.654 458.268 844.886 459.66 843.446 460.452C845.39 461.244 846.422 462.924 846.422 464.868Z" fill="black"/>
<path d="M1012.83 448.634H1006.21C1004.99 448.634 1004 449.622 1004 450.841V466.293C1004 467.512 1004.99 468.5 1006.21 468.5H1021.66C1022.88 468.5 1023.87 467.512 1023.87 466.293V459.671" stroke="black" stroke-linecap="round" stroke-linejoin="round"/>
<path d="M1011.17 458.015L1020 449.186C1020.92 448.271 1022.4 448.271 1023.31 449.186C1024.23 450.1 1024.23 451.582 1023.31 452.497L1014.48 461.326L1009.52 462.982L1011.17 458.015Z" stroke="black" stroke-linecap="round" stroke-linejoin="round"/>
<mask id="path-50-inside-5_883_1701" fill="white">
<path d="M661 497.5H1035V550.5H661V497.5Z"/>
</mask>
<path d="M661 497.5H1035V550.5H661V497.5Z" fill="#F5F5FE"/>
<path d="M1035 549.5H661V551.5H1035V549.5Z" fill="#000091" mask="url(#path-50-inside-5_883_1701)"/>
<path d="M682.056 530.868C684.312 530.868 686.16 529.764 687.288 528.132L689.088 529.524C687.552 531.612 685.08 532.98 682.056 532.98C676.8 532.98 673.224 528.9 673.224 524.1C673.224 519.3 676.8 515.22 682.056 515.22C685.08 515.22 687.552 516.612 689.088 518.676L687.288 520.068C686.16 518.436 684.312 517.332 682.056 517.332C678.264 517.332 675.552 520.356 675.552 524.1C675.552 527.844 678.264 530.868 682.056 530.868ZM697.61 519.924C701.498 519.924 704.162 522.924 704.162 526.452C704.162 529.98 701.498 532.98 697.61 532.98C693.698 532.98 691.058 529.98 691.058 526.452C691.058 522.924 693.698 519.924 697.61 519.924ZM697.634 531.06C700.154 531.06 702.002 528.948 702.002 526.452C702.002 523.932 700.154 521.844 697.634 521.844C695.042 521.844 693.194 523.932 693.194 526.452C693.194 528.972 695.042 531.06 697.634 531.06ZM707.441 532.5V520.404H709.481V521.772C710.465 520.692 711.713 519.924 713.513 519.924C716.225 519.924 718.241 521.748 718.241 525.18V532.5H716.201V525.252C716.201 523.092 714.977 521.844 713.105 521.844C711.353 521.844 710.249 522.852 709.481 524.124V532.5H707.441ZM720.406 520.404H722.614L726.478 530.364L730.342 520.404H732.55L727.822 532.5H725.134L720.406 520.404ZM745.615 530.508C744.487 532.02 742.687 532.98 740.431 532.98C736.351 532.98 733.831 529.98 733.831 526.452C733.831 522.78 736.183 519.924 739.927 519.924C743.215 519.924 745.351 522.228 745.351 525.204C745.351 525.684 745.279 526.14 745.207 526.476H735.919C735.991 529.38 737.839 531.132 740.431 531.132C741.991 531.132 743.311 530.412 744.103 529.332L745.615 530.508ZM739.879 521.652C737.887 521.652 736.495 522.828 736.063 524.916H743.311C743.239 523.14 742.015 521.652 739.879 521.652ZM748.808 532.5V520.404H750.848V521.916C751.736 520.86 752.84 520.164 754.376 520.164C754.76 520.164 755.12 520.212 755.408 520.308V522.3C755.048 522.204 754.688 522.156 754.208 522.156C752.624 522.156 751.592 522.972 750.848 524.196V532.5H748.808ZM757.052 530.844L758.492 529.62C759.332 530.676 760.34 531.276 761.564 531.276C762.908 531.276 763.676 530.46 763.676 529.404C763.676 526.692 757.628 527.652 757.628 523.38C757.628 521.484 759.236 519.924 761.564 519.924C763.292 519.924 764.78 520.74 765.62 521.916L764.204 523.116C763.556 522.204 762.644 521.628 761.588 521.628C760.292 521.628 759.596 522.396 759.596 523.332C759.596 526.044 765.668 525.18 765.668 529.308C765.644 531.564 763.844 532.98 761.588 532.98C759.668 532.98 758.156 532.212 757.052 530.844ZM772.229 532.836C769.853 532.836 768.245 531.516 768.245 529.452C768.245 527.628 769.637 526.332 772.205 525.9L776.285 525.228V524.388C776.285 522.708 775.085 521.748 773.357 521.748C771.965 521.748 770.837 522.396 770.093 523.428L768.557 522.252C769.613 520.812 771.317 519.924 773.429 519.924C776.501 519.924 778.325 521.724 778.325 524.388V532.5H776.285V530.964C775.373 532.14 773.789 532.836 772.229 532.836ZM770.309 529.38C770.309 530.412 771.149 531.156 772.565 531.156C774.173 531.156 775.493 530.388 776.285 529.092V526.716L772.709 527.316C771.053 527.604 770.309 528.348 770.309 529.38ZM783.114 528.444V522.252H780.834V520.404H783.114V517.38H785.178V520.404H789.378V522.252H785.178V528.444C785.178 530.34 786.138 530.868 787.602 530.868C788.394 530.868 788.946 530.772 789.402 530.58V532.404C788.826 532.644 788.178 532.74 787.314 532.74C784.626 532.74 783.114 531.396 783.114 528.444ZM793.528 517.26C792.736 517.26 792.088 516.612 792.088 515.82C792.088 515.052 792.736 514.404 793.528 514.404C794.32 514.404 794.944 515.052 794.944 515.82C794.944 516.612 794.32 517.26 793.528 517.26ZM792.496 532.5V520.404H794.536V532.5H792.496ZM804.368 519.924C808.256 519.924 810.92 522.924 810.92 526.452C810.92 529.98 808.256 532.98 804.368 532.98C800.456 532.98 797.816 529.98 797.816 526.452C797.816 522.924 800.456 519.924 804.368 519.924ZM804.392 531.06C806.912 531.06 808.76 528.948 808.76 526.452C808.76 523.932 806.912 521.844 804.392 521.844C801.8 521.844 799.952 523.932 799.952 526.452C799.952 528.972 801.8 531.06 804.392 531.06ZM814.199 532.5V520.404H816.239V521.772C817.223 520.692 818.471 519.924 820.271 519.924C822.983 519.924 824.999 521.748 824.999 525.18V532.5H822.959V525.252C822.959 523.092 821.735 521.844 819.863 521.844C818.111 521.844 817.007 522.852 816.239 524.124V532.5H814.199ZM834.374 527.652V525.708L842.27 515.7H844.886V525.708H846.83V527.652H844.886V532.5H842.726V527.652H834.374ZM836.678 525.708H842.726V518.052L836.678 525.708Z" fill="black"/>
<path d="M1012.83 511.634H1006.21C1004.99 511.634 1004 512.622 1004 513.841V529.293C1004 530.512 1004.99 531.5 1006.21 531.5H1021.66C1022.88 531.5 1023.87 530.512 1023.87 529.293V522.671" stroke="black" stroke-linecap="round" stroke-linejoin="round"/>
<path d="M1011.17 521.015L1020 512.186C1020.92 511.271 1022.4 511.271 1023.31 512.186C1024.23 513.1 1024.23 514.582 1023.31 515.497L1014.48 524.326L1009.52 525.982L1011.17 521.015Z" stroke="black" stroke-linecap="round" stroke-linejoin="round"/>
<rect width="1052" height="262" transform="translate(0 606.5)" fill="#F5F5FE"/>
<path d="M313.056 633.46V630.1H331.136V633.46H323.936V652.5H320.256V633.46H313.056ZM340.02 635.732C345.268 635.732 348.788 639.668 348.788 644.436C348.788 649.204 345.268 653.14 340.02 653.14C334.804 653.14 331.252 649.204 331.252 644.436C331.252 639.668 334.804 635.732 340.02 635.732ZM340.052 650.036C343.092 650.036 345.332 647.508 345.332 644.436C345.332 641.3 343.092 638.836 340.052 638.836C336.948 638.836 334.708 641.332 334.708 644.436C334.708 647.54 336.948 650.036 340.052 650.036ZM352.907 660.372V636.372H356.203V638.036C357.579 636.564 359.307 635.732 361.643 635.732C366.699 635.732 369.867 639.732 369.867 644.436C369.867 649.14 366.699 653.14 361.643 653.14C359.307 653.14 357.579 652.308 356.203 650.836V660.372H352.907ZM361.227 638.836C359.115 638.836 357.355 639.828 356.203 641.588V647.284C357.387 649.076 359.147 650.036 361.227 650.036C364.331 650.036 366.411 647.604 366.411 644.436C366.411 641.268 364.331 638.836 361.227 638.836ZM383.554 646.9V639.348H380.514V636.372H383.554V632.34H386.882V636.372H392.226V639.348H386.882V646.9C386.882 649.076 388.034 649.78 389.826 649.78C390.914 649.78 391.65 649.652 392.226 649.428V652.34C391.458 652.66 390.562 652.82 389.314 652.82C385.538 652.82 383.554 650.836 383.554 646.9ZM410.404 649.876C408.9 651.892 406.436 653.14 403.428 653.14C397.86 653.14 394.564 649.14 394.564 644.436C394.564 639.604 397.636 635.732 402.756 635.732C407.204 635.732 410.084 638.772 410.084 642.868C410.084 643.604 409.988 644.34 409.86 644.82H397.956C398.18 648.34 400.324 650.164 403.428 650.164C405.38 650.164 407.012 649.3 408.004 647.956L410.404 649.876ZM402.692 638.484C400.292 638.484 398.628 639.86 398.116 642.356H406.788C406.724 640.34 405.284 638.484 402.692 638.484ZM414.407 652.5V636.372H417.703V637.94C418.919 636.66 420.519 635.732 422.823 635.732C426.375 635.732 429.095 638.132 429.095 642.804V652.5H425.767V642.932C425.767 640.372 424.359 638.836 422.055 638.836C419.847 638.836 418.535 640.212 417.703 641.62V652.5H414.407ZM432.939 644.436C432.939 639.732 436.107 635.732 441.195 635.732C443.499 635.732 445.227 636.564 446.571 638.004V628.5H449.931V652.5H446.571V650.868C445.227 652.308 443.499 653.14 441.195 653.14C436.107 653.14 432.939 649.14 432.939 644.436ZM436.427 644.436C436.427 647.604 438.507 650.036 441.611 650.036C443.691 650.036 445.483 649.044 446.571 647.348V641.524C445.387 639.764 443.627 638.836 441.611 638.836C438.507 638.836 436.427 641.268 436.427 644.436ZM459.699 652.98C456.499 652.98 454.323 651.156 454.323 648.308C454.323 645.876 456.211 644.116 459.635 643.54L464.851 642.676V641.844C464.851 639.86 463.379 638.644 461.299 638.644C459.539 638.644 458.163 639.444 457.235 640.756L454.771 638.868C456.211 636.948 458.515 635.732 461.395 635.732C465.747 635.732 468.147 638.292 468.147 641.844V652.5H464.851V650.676C463.699 652.084 461.683 652.98 459.699 652.98ZM457.651 648.18C457.651 649.428 458.643 650.292 460.307 650.292C462.323 650.292 463.891 649.332 464.851 647.796V645.012L460.499 645.748C458.483 646.1 457.651 646.964 457.651 648.18ZM473.313 652.5V636.372H476.609V637.94C477.825 636.66 479.425 635.732 481.729 635.732C485.281 635.732 488.001 638.132 488.001 642.804V652.5H484.673V642.932C484.673 640.372 483.265 638.836 480.961 638.836C478.753 638.836 477.441 640.212 476.609 641.62V652.5H473.313ZM500.678 650.036C502.502 650.036 503.974 649.14 504.87 647.892L507.462 649.876C505.99 651.86 503.622 653.14 500.646 653.14C495.238 653.14 491.846 649.14 491.846 644.436C491.846 639.732 495.238 635.732 500.646 635.732C503.59 635.732 505.99 637.012 507.462 638.996L504.87 640.98C503.974 639.732 502.502 638.836 500.646 638.836C497.542 638.836 495.302 641.268 495.302 644.436C495.302 647.636 497.542 650.036 500.678 650.036ZM524.842 649.876C523.338 651.892 520.874 653.14 517.866 653.14C512.298 653.14 509.002 649.14 509.002 644.436C509.002 639.604 512.074 635.732 517.194 635.732C521.642 635.732 524.522 638.772 524.522 642.868C524.522 643.604 524.426 644.34 524.298 644.82H512.394C512.618 648.34 514.762 650.164 517.866 650.164C519.818 650.164 521.45 649.3 522.442 647.956L524.842 649.876ZM517.13 638.484C514.73 638.484 513.066 639.86 512.554 642.356H521.226C521.162 640.34 519.722 638.484 517.13 638.484ZM535.389 636.372H538.429V634.516C538.429 631.092 540.669 628.5 544.413 628.5C545.885 628.5 547.101 628.884 548.029 629.396L546.621 632.18C546.077 631.764 545.373 631.476 544.477 631.476C542.845 631.476 541.757 632.596 541.757 634.42V636.372H547.101V639.348H541.757V652.5H538.429V639.348H535.389V636.372ZM556.832 635.732C562.08 635.732 565.6 639.668 565.6 644.436C565.6 649.204 562.08 653.14 556.832 653.14C551.616 653.14 548.064 649.204 548.064 644.436C548.064 639.668 551.616 635.732 556.832 635.732ZM556.864 650.036C559.904 650.036 562.144 647.508 562.144 644.436C562.144 641.3 559.904 638.836 556.864 638.836C553.76 638.836 551.52 641.332 551.52 644.436C551.52 647.54 553.76 650.036 556.864 650.036ZM569.719 652.5V636.372H573.015V638.196C574.135 636.948 575.543 636.052 577.527 636.052C578.039 636.052 578.519 636.148 578.935 636.276V639.508C578.423 639.38 577.911 639.284 577.239 639.284C575.191 639.284 573.847 640.372 573.015 641.748V652.5H569.719ZM582.563 652.5V636.372H585.859V637.876C587.011 636.628 588.515 635.732 590.659 635.732C592.867 635.732 594.723 636.724 595.747 638.644C596.995 637.044 598.595 635.732 601.379 635.732C604.739 635.732 607.331 638.036 607.331 642.484V652.5H604.003V642.612C604.003 640.244 602.691 638.836 600.611 638.836C598.691 638.836 597.443 640.052 596.579 641.588C596.611 641.876 596.611 642.164 596.611 642.484V652.5H593.283V642.612C593.283 640.244 592.003 638.836 589.891 638.836C587.843 638.836 586.627 640.244 585.859 641.62V652.5H582.563ZM616.886 652.98C613.686 652.98 611.51 651.156 611.51 648.308C611.51 645.876 613.398 644.116 616.822 643.54L622.038 642.676V641.844C622.038 639.86 620.566 638.644 618.486 638.644C616.726 638.644 615.35 639.444 614.422 640.756L611.958 638.868C613.398 636.948 615.702 635.732 618.582 635.732C622.934 635.732 625.334 638.292 625.334 641.844V652.5H622.038V650.676C620.886 652.084 618.87 652.98 616.886 652.98ZM614.838 648.18C614.838 649.428 615.83 650.292 617.494 650.292C619.51 650.292 621.078 649.332 622.038 647.796V645.012L617.686 645.748C615.67 646.1 614.838 646.964 614.838 648.18ZM631.461 646.9V639.348H628.421V636.372H631.461V632.34H634.789V636.372H640.133V639.348H634.789V646.9C634.789 649.076 635.941 649.78 637.733 649.78C638.821 649.78 639.557 649.652 640.133 649.428V652.34C639.365 652.66 638.469 652.82 637.22 652.82C633.445 652.82 631.461 650.836 631.461 646.9ZM645.727 632.788C644.511 632.788 643.487 631.764 643.487 630.548C643.487 629.332 644.511 628.308 645.727 628.308C646.943 628.308 647.967 629.332 647.967 630.548C647.967 631.764 646.943 632.788 645.727 632.788ZM644.063 652.5V636.372H647.359V652.5H644.063ZM660.239 635.732C665.487 635.732 669.007 639.668 669.007 644.436C669.007 649.204 665.487 653.14 660.239 653.14C655.023 653.14 651.471 649.204 651.471 644.436C651.471 639.668 655.023 635.732 660.239 635.732ZM660.271 650.036C663.311 650.036 665.551 647.508 665.551 644.436C665.551 641.3 663.311 638.836 660.271 638.836C657.167 638.836 654.927 641.332 654.927 644.436C654.927 647.54 657.167 650.036 660.271 650.036ZM673.126 652.5V636.372H676.422V637.94C677.638 636.66 679.238 635.732 681.542 635.732C685.094 635.732 687.814 638.132 687.814 642.804V652.5H684.486V642.932C684.486 640.372 683.078 638.836 680.774 638.836C678.566 638.836 677.254 640.212 676.422 641.62V652.5H673.126Z" fill="black"/>
<mask id="path-56-inside-6_883_1701" fill="white">
<path d="M368 692.5H635V741.5H368V692.5Z"/>
</mask>
<path d="M368 692.5H635V741.5H368V692.5Z" fill="white"/>
<path d="M635 740.5H368V742.5H635V740.5Z" fill="#000091" mask="url(#path-56-inside-6_883_1701)"/>
<path d="M381.792 724V714.256L378.832 715.856L378.096 714.832L381.776 712.8H383.216V724H381.792ZM389.679 719.248H393.999V720.56H389.679V719.248Z" fill="black"/>
<path d="M406.776 724V712.8H408.28V724H406.776ZM411.503 724V715.936H412.863V716.848C413.519 716.128 414.351 715.616 415.551 715.616C417.359 715.616 418.703 716.832 418.703 719.12V724H417.343V719.168C417.343 717.728 416.527 716.896 415.279 716.896C414.111 716.896 413.375 717.568 412.863 718.416V724H411.503ZM420.512 725.456C420.512 724.64 420.912 723.984 421.712 723.424C421.344 723.136 421.152 722.704 421.152 722.272C421.152 721.632 421.488 721.104 422.112 720.704C421.408 720.176 420.992 719.36 420.992 718.464C420.992 716.912 422.208 715.6 424.128 715.6C424.72 715.6 425.248 715.728 425.68 715.936H428.672V717.12H426.928C427.152 717.52 427.264 717.984 427.264 718.464C427.264 720 426.064 721.312 424.128 721.312C423.728 721.312 423.344 721.248 423.008 721.152C422.672 721.392 422.48 721.68 422.48 721.984C422.48 722.32 422.656 722.56 423.152 722.56H425.456C427.584 722.56 428.576 723.6 428.576 725.04C428.576 726.736 426.88 728 424.464 728C422.08 728 420.512 727.072 420.512 725.456ZM424.144 720.24C425.312 720.24 425.984 719.44 425.984 718.464C425.984 717.472 425.312 716.672 424.144 716.672C422.944 716.672 422.288 717.472 422.288 718.464C422.288 719.456 422.944 720.24 424.144 720.24ZM421.84 725.296C421.84 726.272 422.848 726.864 424.448 726.864C426.144 726.864 427.216 726.192 427.216 725.136C427.216 724.368 426.784 723.76 425.344 723.76H422.736C422.176 724.176 421.84 724.656 421.84 725.296ZM434.067 714.656H432.739L434.403 712H435.939L434.067 714.656ZM437.139 722.672C436.387 723.68 435.187 724.32 433.683 724.32C430.963 724.32 429.283 722.32 429.283 719.968C429.283 717.52 430.851 715.616 433.347 715.616C435.539 715.616 436.963 717.152 436.963 719.136C436.963 719.456 436.915 719.76 436.867 719.984H430.675C430.723 721.92 431.955 723.088 433.683 723.088C434.723 723.088 435.603 722.608 436.131 721.888L437.139 722.672ZM433.315 716.768C431.987 716.768 431.059 717.552 430.771 718.944H435.603C435.555 717.76 434.739 716.768 433.315 716.768ZM439.268 724V715.936H440.628V716.848C441.284 716.128 442.116 715.616 443.316 715.616C445.124 715.616 446.468 716.832 446.468 719.12V724H445.108V719.168C445.108 717.728 444.292 716.896 443.044 716.896C441.876 716.896 441.14 717.568 440.628 718.416V724H439.268ZM449.894 713.84C449.366 713.84 448.934 713.408 448.934 712.88C448.934 712.368 449.366 711.936 449.894 711.936C450.422 711.936 450.838 712.368 450.838 712.88C450.838 713.408 450.422 713.84 449.894 713.84ZM449.206 724V715.936H450.566V724H449.206ZM460.608 722.672C459.856 723.68 458.656 724.32 457.152 724.32C454.432 724.32 452.752 722.32 452.752 719.968C452.752 717.52 454.32 715.616 456.816 715.616C459.008 715.616 460.432 717.152 460.432 719.136C460.432 719.456 460.384 719.76 460.336 719.984H454.144C454.192 721.92 455.424 723.088 457.152 723.088C458.192 723.088 459.072 722.608 459.6 721.888L460.608 722.672ZM456.784 716.768C455.456 716.768 454.528 717.552 454.24 718.944H459.072C459.024 717.76 458.208 716.768 456.784 716.768ZM462.737 724V715.936H464.097V716.944C464.689 716.24 465.425 715.776 466.449 715.776C466.705 715.776 466.945 715.808 467.137 715.872V717.2C466.897 717.136 466.657 717.104 466.337 717.104C465.281 717.104 464.593 717.648 464.097 718.464V724H462.737ZM469.784 713.84C469.256 713.84 468.824 713.408 468.824 712.88C468.824 712.368 469.256 711.936 469.784 711.936C470.312 711.936 470.728 712.368 470.728 712.88C470.728 713.408 470.312 713.84 469.784 713.84ZM469.096 724V715.936H470.456V724H469.096ZM480.499 722.672C479.747 723.68 478.547 724.32 477.043 724.32C474.323 724.32 472.643 722.32 472.643 719.968C472.643 717.52 474.211 715.616 476.707 715.616C478.899 715.616 480.323 717.152 480.323 719.136C480.323 719.456 480.275 719.76 480.227 719.984H474.035C474.083 721.92 475.315 723.088 477.043 723.088C478.083 723.088 478.963 722.608 479.491 721.888L480.499 722.672ZM476.675 716.768C475.347 716.768 474.419 717.552 474.131 718.944H478.963C478.915 717.76 478.099 716.768 476.675 716.768Z" fill="black"/>
<mask id="path-60-inside-7_883_1701" fill="white">
<path d="M655 692.5H922V741.5H655V692.5Z"/>
</mask>
<path d="M655 692.5H922V741.5H655V692.5Z" fill="white"/>
<path d="M922 740.5H655V742.5H922V740.5Z" fill="#000091" mask="url(#path-60-inside-7_883_1701)"/>
<path d="M668.792 724V714.256L665.832 715.856L665.096 714.832L668.776 712.8H670.216V724H668.792ZM676.679 719.248H680.999V720.56H676.679V719.248Z" fill="black"/>
<path d="M693.776 724V712.8H695.28V724H693.776ZM698.503 724V715.936H699.863V716.848C700.519 716.128 701.351 715.616 702.551 715.616C704.359 715.616 705.703 716.832 705.703 719.12V724H704.343V719.168C704.343 717.728 703.527 716.896 702.279 716.896C701.111 716.896 700.375 717.568 699.863 718.416V724H698.503ZM707.512 725.456C707.512 724.64 707.912 723.984 708.712 723.424C708.344 723.136 708.152 722.704 708.152 722.272C708.152 721.632 708.488 721.104 709.112 720.704C708.408 720.176 707.992 719.36 707.992 718.464C707.992 716.912 709.208 715.6 711.128 715.6C711.72 715.6 712.248 715.728 712.68 715.936H715.672V717.12H713.928C714.152 717.52 714.264 717.984 714.264 718.464C714.264 720 713.064 721.312 711.128 721.312C710.728 721.312 710.344 721.248 710.008 721.152C709.672 721.392 709.48 721.68 709.48 721.984C709.48 722.32 709.656 722.56 710.152 722.56H712.456C714.584 722.56 715.576 723.6 715.576 725.04C715.576 726.736 713.88 728 711.464 728C709.08 728 707.512 727.072 707.512 725.456ZM711.144 720.24C712.312 720.24 712.984 719.44 712.984 718.464C712.984 717.472 712.312 716.672 711.144 716.672C709.944 716.672 709.288 717.472 709.288 718.464C709.288 719.456 709.944 720.24 711.144 720.24ZM708.84 725.296C708.84 726.272 709.848 726.864 711.448 726.864C713.144 726.864 714.216 726.192 714.216 725.136C714.216 724.368 713.784 723.76 712.344 723.76H709.736C709.176 724.176 708.84 724.656 708.84 725.296ZM721.067 714.656H719.739L721.403 712H722.939L721.067 714.656ZM724.139 722.672C723.387 723.68 722.187 724.32 720.683 724.32C717.963 724.32 716.283 722.32 716.283 719.968C716.283 717.52 717.851 715.616 720.347 715.616C722.539 715.616 723.963 717.152 723.963 719.136C723.963 719.456 723.915 719.76 723.867 719.984H717.675C717.723 721.92 718.955 723.088 720.683 723.088C721.723 723.088 722.603 722.608 723.131 721.888L724.139 722.672ZM720.315 716.768C718.987 716.768 718.059 717.552 717.771 718.944H722.603C722.555 717.76 721.739 716.768 720.315 716.768ZM726.268 724V715.936H727.628V716.848C728.284 716.128 729.116 715.616 730.316 715.616C732.124 715.616 733.468 716.832 733.468 719.12V724H732.108V719.168C732.108 717.728 731.292 716.896 730.044 716.896C728.876 716.896 728.14 717.568 727.628 718.416V724H726.268ZM736.894 713.84C736.366 713.84 735.934 713.408 735.934 712.88C735.934 712.368 736.366 711.936 736.894 711.936C737.422 711.936 737.838 712.368 737.838 712.88C737.838 713.408 737.422 713.84 736.894 713.84ZM736.206 724V715.936H737.566V724H736.206ZM747.608 722.672C746.856 723.68 745.656 724.32 744.152 724.32C741.432 724.32 739.752 722.32 739.752 719.968C739.752 717.52 741.32 715.616 743.816 715.616C746.008 715.616 747.432 717.152 747.432 719.136C747.432 719.456 747.384 719.76 747.336 719.984H741.144C741.192 721.92 742.424 723.088 744.152 723.088C745.192 723.088 746.072 722.608 746.6 721.888L747.608 722.672ZM743.784 716.768C742.456 716.768 741.528 717.552 741.24 718.944H746.072C746.024 717.76 745.208 716.768 743.784 716.768ZM749.737 724V715.936H751.097V716.944C751.689 716.24 752.425 715.776 753.449 715.776C753.705 715.776 753.945 715.808 754.137 715.872V717.2C753.897 717.136 753.657 717.104 753.337 717.104C752.281 717.104 751.593 717.648 751.097 718.464V724H749.737ZM756.784 713.84C756.256 713.84 755.824 713.408 755.824 712.88C755.824 712.368 756.256 711.936 756.784 711.936C757.312 711.936 757.728 712.368 757.728 712.88C757.728 713.408 757.312 713.84 756.784 713.84ZM756.096 724V715.936H757.456V724H756.096ZM767.499 722.672C766.747 723.68 765.547 724.32 764.043 724.32C761.323 724.32 759.643 722.32 759.643 719.968C759.643 717.52 761.211 715.616 763.707 715.616C765.899 715.616 767.323 717.152 767.323 719.136C767.323 719.456 767.275 719.76 767.227 719.984H761.035C761.083 721.92 762.315 723.088 764.043 723.088C765.083 723.088 765.963 722.608 766.491 721.888L767.499 722.672ZM763.675 716.768C762.347 716.768 761.419 717.552 761.131 718.944H765.963C765.915 717.76 765.099 716.768 763.675 716.768Z" fill="black"/>
<mask id="path-64-inside-8_883_1701" fill="white">
<path d="M81 692.5H348V741.5H81V692.5Z"/>
</mask>
<path d="M81 692.5H348V741.5H81V692.5Z" fill="white"/>
<path d="M348 740.5H81V742.5H348V740.5Z" fill="#000091" mask="url(#path-64-inside-8_883_1701)"/>
<path d="M94.792 724V714.256L91.832 715.856L91.096 714.832L94.776 712.8H96.216V724H94.792ZM102.679 719.248H106.999V720.56H102.679V719.248Z" fill="black"/>
<path d="M119.776 724V712.8H121.28V724H119.776ZM124.503 724V715.936H125.863V716.848C126.519 716.128 127.351 715.616 128.551 715.616C130.359 715.616 131.703 716.832 131.703 719.12V724H130.343V719.168C130.343 717.728 129.527 716.896 128.279 716.896C127.111 716.896 126.375 717.568 125.863 718.416V724H124.503ZM133.512 725.456C133.512 724.64 133.912 723.984 134.712 723.424C134.344 723.136 134.152 722.704 134.152 722.272C134.152 721.632 134.488 721.104 135.112 720.704C134.408 720.176 133.992 719.36 133.992 718.464C133.992 716.912 135.208 715.6 137.128 715.6C137.72 715.6 138.248 715.728 138.68 715.936H141.672V717.12H139.928C140.152 717.52 140.264 717.984 140.264 718.464C140.264 720 139.064 721.312 137.128 721.312C136.728 721.312 136.344 721.248 136.008 721.152C135.672 721.392 135.48 721.68 135.48 721.984C135.48 722.32 135.656 722.56 136.152 722.56H138.456C140.584 722.56 141.576 723.6 141.576 725.04C141.576 726.736 139.88 728 137.464 728C135.08 728 133.512 727.072 133.512 725.456ZM137.144 720.24C138.312 720.24 138.984 719.44 138.984 718.464C138.984 717.472 138.312 716.672 137.144 716.672C135.944 716.672 135.288 717.472 135.288 718.464C135.288 719.456 135.944 720.24 137.144 720.24ZM134.84 725.296C134.84 726.272 135.848 726.864 137.448 726.864C139.144 726.864 140.216 726.192 140.216 725.136C140.216 724.368 139.784 723.76 138.344 723.76H135.736C135.176 724.176 134.84 724.656 134.84 725.296ZM147.067 714.656H145.739L147.403 712H148.939L147.067 714.656ZM150.139 722.672C149.387 723.68 148.187 724.32 146.683 724.32C143.963 724.32 142.283 722.32 142.283 719.968C142.283 717.52 143.851 715.616 146.347 715.616C148.539 715.616 149.963 717.152 149.963 719.136C149.963 719.456 149.915 719.76 149.867 719.984H143.675C143.723 721.92 144.955 723.088 146.683 723.088C147.723 723.088 148.603 722.608 149.131 721.888L150.139 722.672ZM146.315 716.768C144.987 716.768 144.059 717.552 143.771 718.944H148.603C148.555 717.76 147.739 716.768 146.315 716.768ZM152.268 724V715.936H153.628V716.848C154.284 716.128 155.116 715.616 156.316 715.616C158.124 715.616 159.468 716.832 159.468 719.12V724H158.108V719.168C158.108 717.728 157.292 716.896 156.044 716.896C154.876 716.896 154.14 717.568 153.628 718.416V724H152.268ZM162.894 713.84C162.366 713.84 161.934 713.408 161.934 712.88C161.934 712.368 162.366 711.936 162.894 711.936C163.422 711.936 163.838 712.368 163.838 712.88C163.838 713.408 163.422 713.84 162.894 713.84ZM162.206 724V715.936H163.566V724H162.206ZM173.608 722.672C172.856 723.68 171.656 724.32 170.152 724.32C167.432 724.32 165.752 722.32 165.752 719.968C165.752 717.52 167.32 715.616 169.816 715.616C172.008 715.616 173.432 717.152 173.432 719.136C173.432 719.456 173.384 719.76 173.336 719.984H167.144C167.192 721.92 168.424 723.088 170.152 723.088C171.192 723.088 172.072 722.608 172.6 721.888L173.608 722.672ZM169.784 716.768C168.456 716.768 167.528 717.552 167.24 718.944H172.072C172.024 717.76 171.208 716.768 169.784 716.768ZM175.737 724V715.936H177.097V716.944C177.689 716.24 178.425 715.776 179.449 715.776C179.705 715.776 179.945 715.808 180.137 715.872V717.2C179.897 717.136 179.657 717.104 179.337 717.104C178.281 717.104 177.593 717.648 177.097 718.464V724H175.737ZM182.784 713.84C182.256 713.84 181.824 713.408 181.824 712.88C181.824 712.368 182.256 711.936 182.784 711.936C183.312 711.936 183.728 712.368 183.728 712.88C183.728 713.408 183.312 713.84 182.784 713.84ZM182.096 724V715.936H183.456V724H182.096ZM193.499 722.672C192.747 723.68 191.547 724.32 190.043 724.32C187.323 724.32 185.643 722.32 185.643 719.968C185.643 717.52 187.211 715.616 189.707 715.616C191.899 715.616 193.323 717.152 193.323 719.136C193.323 719.456 193.275 719.76 193.227 719.984H187.035C187.083 721.92 188.315 723.088 190.043 723.088C191.083 723.088 191.963 722.608 192.491 721.888L193.499 722.672ZM189.675 716.768C188.347 716.768 187.419 717.552 187.131 718.944H191.963C191.915 717.76 191.099 716.768 189.675 716.768Z" fill="black"/>
<mask id="path-68-inside-9_883_1701" fill="white">
<path d="M81 760.5H348V809.5H81V760.5Z"/>
</mask>
<path d="M81 760.5H348V809.5H81V760.5Z" fill="white"/>
<path d="M348 808.5H81V810.5H348V808.5Z" fill="#000091" mask="url(#path-68-inside-9_883_1701)"/>
<path d="M92.088 792V790.704L95.88 786.8C97.192 785.424 97.784 784.8 97.784 783.616C97.784 782.448 96.936 781.776 95.8 781.776C94.616 781.776 93.848 782.368 93.192 783.456L92.008 782.736C92.92 781.312 94.168 780.48 95.912 780.48C97.784 780.48 99.272 781.696 99.272 783.52C99.272 785.04 98.28 786.176 96.936 787.584L93.864 790.704H99.576V792H92.088ZM104.883 787.248H109.203V788.56H104.883V787.248Z" fill="black"/>
<path d="M126.704 780.48C130.192 780.48 132.576 783.2 132.576 786.4C132.576 789.6 130.192 792.32 126.704 792.32C123.2 792.32 120.816 789.6 120.816 786.4C120.816 783.2 123.2 780.48 126.704 780.48ZM126.704 790.912C129.216 790.912 131.024 788.896 131.024 786.4C131.024 783.904 129.216 781.888 126.704 781.888C124.176 781.888 122.368 783.904 122.368 786.4C122.368 788.896 124.176 790.912 126.704 790.912ZM134.831 795.936V783.936H136.191V784.896C136.911 784.08 137.855 783.616 139.055 783.616C141.583 783.616 143.199 785.616 143.199 787.968C143.199 790.32 141.583 792.32 139.055 792.32C137.855 792.32 136.911 791.856 136.191 791.04V795.936H134.831ZM138.895 784.896C137.775 784.896 136.799 785.44 136.191 786.4V789.536C136.815 790.512 137.791 791.04 138.895 791.04C140.607 791.04 141.775 789.68 141.775 787.968C141.775 786.256 140.607 784.896 138.895 784.896ZM145.732 789.296V785.168H144.212V783.936H145.732V781.92H147.108V783.936H149.908V785.168H147.108V789.296C147.108 790.56 147.748 790.912 148.724 790.912C149.252 790.912 149.62 790.848 149.924 790.72V791.936C149.54 792.096 149.108 792.16 148.532 792.16C146.74 792.16 145.732 791.264 145.732 789.296ZM152.675 781.84C152.147 781.84 151.715 781.408 151.715 780.88C151.715 780.368 152.147 779.936 152.675 779.936C153.203 779.936 153.619 780.368 153.619 780.88C153.619 781.408 153.203 781.84 152.675 781.84ZM151.987 792V783.936H153.347V792H151.987ZM159.901 783.616C162.493 783.616 164.269 785.616 164.269 787.968C164.269 790.32 162.493 792.32 159.901 792.32C157.293 792.32 155.533 790.32 155.533 787.968C155.533 785.616 157.293 783.616 159.901 783.616ZM159.917 791.04C161.597 791.04 162.829 789.632 162.829 787.968C162.829 786.288 161.597 784.896 159.917 784.896C158.189 784.896 156.957 786.288 156.957 787.968C156.957 789.648 158.189 791.04 159.917 791.04ZM166.456 792V783.936H167.816V784.848C168.472 784.128 169.304 783.616 170.504 783.616C172.312 783.616 173.656 784.832 173.656 787.12V792H172.296V787.168C172.296 785.728 171.48 784.896 170.232 784.896C169.064 784.896 168.328 785.568 167.816 786.416V792H166.456ZM179.826 782.176V780.8H188.754V782.176H185.042V792H183.538V782.176H179.826ZM190.768 792V780H192.128V784.848C192.784 784.128 193.616 783.616 194.816 783.616C196.624 783.616 197.968 784.832 197.968 787.12V792H196.608V787.168C196.608 785.728 195.808 784.896 194.544 784.896C193.36 784.896 192.64 785.584 192.128 786.416V792H190.768ZM204.802 782.656H203.474L205.138 780H206.674L204.802 782.656ZM207.874 790.672C207.122 791.68 205.922 792.32 204.418 792.32C201.698 792.32 200.018 790.32 200.018 787.968C200.018 785.52 201.586 783.616 204.082 783.616C206.274 783.616 207.698 785.152 207.698 787.136C207.698 787.456 207.65 787.76 207.602 787.984H201.41C201.458 789.92 202.69 791.088 204.418 791.088C205.458 791.088 206.338 790.608 206.866 789.888L207.874 790.672ZM204.05 784.768C202.722 784.768 201.794 785.552 201.506 786.944H206.338C206.29 785.76 205.474 784.768 204.05 784.768ZM211.636 782.656H210.404L212.084 780H213.924L215.588 782.656H214.372L213.012 780.64L211.636 782.656ZM212.132 792.224C210.548 792.224 209.476 791.344 209.476 789.968C209.476 788.752 210.404 787.888 212.116 787.6L214.836 787.152V786.592C214.836 785.472 214.036 784.832 212.884 784.832C211.956 784.832 211.204 785.264 210.708 785.952L209.684 785.168C210.388 784.208 211.524 783.616 212.932 783.616C214.98 783.616 216.196 784.816 216.196 786.592V792H214.836V790.976C214.228 791.76 213.172 792.224 212.132 792.224ZM210.852 789.92C210.852 790.608 211.412 791.104 212.356 791.104C213.428 791.104 214.308 790.592 214.836 789.728V788.144L212.452 788.544C211.348 788.736 210.852 789.232 210.852 789.92ZM219.388 789.296V785.168H217.868V783.936H219.388V781.92H220.764V783.936H223.564V785.168H220.764V789.296C220.764 790.56 221.404 790.912 222.38 790.912C222.908 790.912 223.276 790.848 223.58 790.72V791.936C223.196 792.096 222.764 792.16 222.188 792.16C220.396 792.16 219.388 791.264 219.388 789.296ZM225.643 792V783.936H227.003V784.944C227.595 784.24 228.331 783.776 229.355 783.776C229.611 783.776 229.851 783.808 230.043 783.872V785.2C229.803 785.136 229.563 785.104 229.243 785.104C228.187 785.104 227.499 785.648 227.003 786.464V792H225.643ZM238.686 790.672C237.934 791.68 236.734 792.32 235.23 792.32C232.51 792.32 230.83 790.32 230.83 787.968C230.83 785.52 232.398 783.616 234.894 783.616C237.086 783.616 238.51 785.152 238.51 787.136C238.51 787.456 238.462 787.76 238.414 787.984H232.222C232.27 789.92 233.502 791.088 235.23 791.088C236.27 791.088 237.15 790.608 237.678 789.888L238.686 790.672ZM234.862 784.768C233.534 784.768 232.606 785.552 232.318 786.944H237.15C237.102 785.76 236.286 784.768 234.862 784.768Z" fill="black"/>
<mask id="path-72-inside-10_883_1701" fill="white">
<path d="M368 760.5H635V809.5H368V760.5Z"/>
</mask>
<path d="M368 760.5H635V809.5H368V760.5Z" fill="white"/>
<path d="M635 808.5H368V810.5H635V808.5Z" fill="#000091" mask="url(#path-72-inside-10_883_1701)"/>
<path d="M386.672 788.912C386.672 790.944 385.024 792.32 382.768 792.32C380.832 792.32 379.552 791.536 378.656 790.048L379.92 789.264C380.608 790.496 381.504 791.024 382.752 791.024C384.144 791.024 385.184 790.208 385.184 788.848C385.184 787.584 384.288 786.704 382.816 786.704H380.912V785.408H382.592C383.872 785.408 384.688 784.64 384.688 783.552C384.688 782.416 383.84 781.776 382.688 781.776C381.68 781.776 380.896 782.288 380.368 783.264L379.168 782.528C379.968 781.216 381.152 780.48 382.784 780.48C384.72 780.48 386.16 781.648 386.16 783.424C386.16 784.512 385.648 785.44 384.688 785.968C385.984 786.496 386.672 787.616 386.672 788.912ZM391.883 787.248H396.203V788.56H391.883V787.248Z" fill="black"/>
<path d="M407.432 792L411.896 780.8H413.912L418.376 792H416.776L415.48 788.704H410.328L409.032 792H407.432ZM410.824 787.408H414.984L412.904 782.112L410.824 787.408ZM420.518 792V783.936H421.878V784.944C422.47 784.24 423.206 783.776 424.23 783.776C424.486 783.776 424.726 783.808 424.918 783.872V785.2C424.678 785.136 424.438 785.104 424.118 785.104C423.062 785.104 422.374 785.648 421.878 786.464V792H420.518ZM427.717 789.296V785.168H426.197V783.936H427.717V781.92H429.093V783.936H431.893V785.168H429.093V789.296C429.093 790.56 429.733 790.912 430.709 790.912C431.237 790.912 431.605 790.848 431.909 790.72V791.936C431.525 792.096 431.093 792.16 430.516 792.16C428.725 792.16 427.717 791.264 427.717 789.296ZM437.596 787.968C437.596 785.616 439.212 783.616 441.74 783.616C442.94 783.616 443.884 784.08 444.604 784.896V780H445.964V792H444.604V791.04C443.884 791.856 442.94 792.32 441.74 792.32C439.212 792.32 437.596 790.32 437.596 787.968ZM439.036 787.968C439.036 789.68 440.188 791.04 441.9 791.04C443.02 791.04 444.012 790.496 444.604 789.552V786.384C443.98 785.424 443.004 784.896 441.9 784.896C440.188 784.896 439.036 786.256 439.036 787.968ZM454.447 788.544V783.936H455.807V788.496C455.807 790.912 454.415 792.32 452.223 792.32C450.047 792.32 448.655 790.912 448.655 788.496V783.936H450.015V788.544C450.015 790.128 450.863 791.04 452.239 791.04C453.583 791.04 454.447 790.128 454.447 788.544ZM461.935 790.896L462.895 790.08C463.455 790.784 464.127 791.184 464.943 791.184C465.839 791.184 466.351 790.64 466.351 789.936C466.351 788.128 462.319 788.768 462.319 785.92C462.319 784.656 463.391 783.616 464.943 783.616C466.095 783.616 467.087 784.16 467.647 784.944L466.703 785.744C466.271 785.136 465.663 784.752 464.959 784.752C464.095 784.752 463.631 785.264 463.631 785.888C463.631 787.696 467.679 787.12 467.679 789.872C467.663 791.376 466.463 792.32 464.959 792.32C463.679 792.32 462.671 791.808 461.935 790.896ZM469.893 795.936V783.936H471.253V784.896C471.973 784.08 472.917 783.616 474.117 783.616C476.645 783.616 478.261 785.616 478.261 787.968C478.261 790.32 476.645 792.32 474.117 792.32C472.917 792.32 471.973 791.856 471.253 791.04V795.936H469.893ZM473.957 784.896C472.837 784.896 471.861 785.44 471.253 786.4V789.536C471.877 790.512 472.853 791.04 473.957 791.04C475.669 791.04 476.837 789.68 476.837 787.968C476.837 786.256 475.669 784.896 473.957 784.896ZM487.702 790.672C486.95 791.68 485.75 792.32 484.246 792.32C481.526 792.32 479.846 790.32 479.846 787.968C479.846 785.52 481.414 783.616 483.91 783.616C486.102 783.616 487.526 785.152 487.526 787.136C487.526 787.456 487.478 787.76 487.43 787.984H481.238C481.286 789.92 482.518 791.088 484.246 791.088C485.286 791.088 486.166 790.608 486.694 789.888L487.702 790.672ZM483.878 784.768C482.55 784.768 481.622 785.552 481.334 786.944H486.166C486.118 785.76 485.302 784.768 483.878 784.768ZM493.511 791.04C494.503 791.04 495.319 790.56 495.815 789.856L496.887 790.672C496.135 791.68 494.967 792.32 493.495 792.32C490.823 792.32 489.111 790.32 489.111 787.968C489.111 785.616 490.823 783.616 493.495 783.616C494.951 783.616 496.135 784.272 496.887 785.264L495.815 786.08C495.319 785.376 494.503 784.896 493.495 784.896C491.767 784.896 490.535 786.256 490.535 787.968C490.535 789.696 491.767 791.04 493.511 791.04ZM499.185 789.296V785.168H497.665V783.936H499.185V781.92H500.561V783.936H503.361V785.168H500.561V789.296C500.561 790.56 501.201 790.912 502.177 790.912C502.705 790.912 503.073 790.848 503.377 790.72V791.936C502.993 792.096 502.561 792.16 501.985 792.16C500.193 792.16 499.185 791.264 499.185 789.296ZM507.632 792.224C506.048 792.224 504.976 791.344 504.976 789.968C504.976 788.752 505.904 787.888 507.616 787.6L510.336 787.152V786.592C510.336 785.472 509.536 784.832 508.384 784.832C507.456 784.832 506.704 785.264 506.208 785.952L505.184 785.168C505.888 784.208 507.024 783.616 508.432 783.616C510.48 783.616 511.696 784.816 511.696 786.592V792H510.336V790.976C509.728 791.76 508.672 792.224 507.632 792.224ZM506.352 789.92C506.352 790.608 506.912 791.104 507.856 791.104C508.928 791.104 509.808 790.592 510.336 789.728V788.144L507.952 788.544C506.848 788.736 506.352 789.232 506.352 789.92ZM518.136 791.04C519.128 791.04 519.944 790.56 520.44 789.856L521.512 790.672C520.76 791.68 519.592 792.32 518.12 792.32C515.448 792.32 513.736 790.32 513.736 787.968C513.736 785.616 515.448 783.616 518.12 783.616C519.576 783.616 520.76 784.272 521.512 785.264L520.44 786.08C519.944 785.376 519.128 784.896 518.12 784.896C516.392 784.896 515.16 786.256 515.16 787.968C515.16 789.696 516.392 791.04 518.136 791.04ZM523.378 792V780H524.738V792H523.378ZM534.78 790.672C534.028 791.68 532.828 792.32 531.324 792.32C528.604 792.32 526.924 790.32 526.924 787.968C526.924 785.52 528.492 783.616 530.988 783.616C533.18 783.616 534.604 785.152 534.604 787.136C534.604 787.456 534.556 787.76 534.508 787.984H528.316C528.364 789.92 529.596 791.088 531.324 791.088C532.364 791.088 533.244 790.608 533.772 789.888L534.78 790.672ZM530.956 784.768C529.628 784.768 528.7 785.552 528.412 786.944H533.244C533.196 785.76 532.38 784.768 530.956 784.768ZM548.389 790.672C547.637 791.68 546.437 792.32 544.933 792.32C542.213 792.32 540.533 790.32 540.533 787.968C540.533 785.52 542.101 783.616 544.597 783.616C546.789 783.616 548.213 785.152 548.213 787.136C548.213 787.456 548.165 787.76 548.117 787.984H541.925C541.973 789.92 543.205 791.088 544.933 791.088C545.973 791.088 546.853 790.608 547.381 789.888L548.389 790.672ZM544.565 784.768C543.237 784.768 542.309 785.552 542.021 786.944H546.853C546.805 785.76 545.989 784.768 544.565 784.768ZM550.935 789.296V785.168H549.415V783.936H550.935V781.92H552.311V783.936H555.111V785.168H552.311V789.296C552.311 790.56 552.951 790.912 553.927 790.912C554.455 790.912 554.823 790.848 555.127 790.72V791.936C554.743 792.096 554.311 792.16 553.735 792.16C551.943 792.16 550.935 791.264 550.935 789.296ZM560.815 787.968C560.815 785.616 562.431 783.616 564.959 783.616C566.159 783.616 567.103 784.08 567.823 784.896V780H569.183V792H567.823V791.04C567.103 791.856 566.159 792.32 564.959 792.32C562.431 792.32 560.815 790.32 560.815 787.968ZM562.255 787.968C562.255 789.68 563.407 791.04 565.119 791.04C566.239 791.04 567.231 790.496 567.823 789.552V786.384C567.199 785.424 566.223 784.896 565.119 784.896C563.407 784.896 562.255 786.256 562.255 787.968ZM579.217 790.672C578.465 791.68 577.265 792.32 575.761 792.32C573.041 792.32 571.361 790.32 571.361 787.968C571.361 785.52 572.929 783.616 575.425 783.616C577.617 783.616 579.041 785.152 579.041 787.136C579.041 787.456 578.993 787.76 578.945 787.984H572.753C572.801 789.92 574.033 791.088 575.761 791.088C576.801 791.088 577.681 790.608 578.209 789.888L579.217 790.672ZM575.393 784.768C574.065 784.768 573.137 785.552 572.849 786.944H577.681C577.633 785.76 576.817 784.768 575.393 784.768ZM585.659 792V783.936H587.019V784.944C587.611 784.24 588.347 783.776 589.371 783.776C589.627 783.776 589.867 783.808 590.059 783.872V785.2C589.819 785.136 589.579 785.104 589.259 785.104C588.203 785.104 587.515 785.648 587.019 786.464V792H585.659ZM597.759 788.544V783.936H599.119V788.496C599.119 790.912 597.727 792.32 595.535 792.32C593.359 792.32 591.967 790.912 591.967 788.496V783.936H593.327V788.544C593.327 790.128 594.175 791.04 595.551 791.04C596.895 791.04 597.759 790.128 597.759 788.544ZM608.967 790.672C608.215 791.68 607.015 792.32 605.511 792.32C602.791 792.32 601.111 790.32 601.111 787.968C601.111 785.52 602.679 783.616 605.175 783.616C607.367 783.616 608.791 785.152 608.791 787.136C608.791 787.456 608.743 787.76 608.695 787.984H602.503C602.551 789.92 603.783 791.088 605.511 791.088C606.551 791.088 607.431 790.608 607.959 789.888L608.967 790.672ZM605.143 784.768C603.815 784.768 602.887 785.552 602.599 786.944H607.431C607.383 785.76 606.567 784.768 605.143 784.768Z" fill="black"/>
<mask id="path-76-inside-11_883_1701" fill="white">
<path d="M655 760.5H922V809.5H655V760.5Z"/>
</mask>
<path d="M655 760.5H922V809.5H655V760.5Z" fill="white"/>
<path d="M922 808.5H655V810.5H922V808.5Z" fill="#000091" mask="url(#path-76-inside-11_883_1701)"/>
<path d="M668.792 792V782.256L665.832 783.856L665.096 782.832L668.776 780.8H670.216V792H668.792ZM676.679 787.248H680.999V788.56H676.679V787.248Z" fill="black"/>
<path d="M693.776 792V780.8H695.28V792H693.776ZM698.503 792V783.936H699.863V784.848C700.519 784.128 701.351 783.616 702.551 783.616C704.359 783.616 705.703 784.832 705.703 787.12V792H704.343V787.168C704.343 785.728 703.527 784.896 702.279 784.896C701.111 784.896 700.375 785.568 699.863 786.416V792H698.503ZM707.512 793.456C707.512 792.64 707.912 791.984 708.712 791.424C708.344 791.136 708.152 790.704 708.152 790.272C708.152 789.632 708.488 789.104 709.112 788.704C708.408 788.176 707.992 787.36 707.992 786.464C707.992 784.912 709.208 783.6 711.128 783.6C711.72 783.6 712.248 783.728 712.68 783.936H715.672V785.12H713.928C714.152 785.52 714.264 785.984 714.264 786.464C714.264 788 713.064 789.312 711.128 789.312C710.728 789.312 710.344 789.248 710.008 789.152C709.672 789.392 709.48 789.68 709.48 789.984C709.48 790.32 709.656 790.56 710.152 790.56H712.456C714.584 790.56 715.576 791.6 715.576 793.04C715.576 794.736 713.88 796 711.464 796C709.08 796 707.512 795.072 707.512 793.456ZM711.144 788.24C712.312 788.24 712.984 787.44 712.984 786.464C712.984 785.472 712.312 784.672 711.144 784.672C709.944 784.672 709.288 785.472 709.288 786.464C709.288 787.456 709.944 788.24 711.144 788.24ZM708.84 793.296C708.84 794.272 709.848 794.864 711.448 794.864C713.144 794.864 714.216 794.192 714.216 793.136C714.216 792.368 713.784 791.76 712.344 791.76H709.736C709.176 792.176 708.84 792.656 708.84 793.296ZM721.067 782.656H719.739L721.403 780H722.939L721.067 782.656ZM724.139 790.672C723.387 791.68 722.187 792.32 720.683 792.32C717.963 792.32 716.283 790.32 716.283 787.968C716.283 785.52 717.851 783.616 720.347 783.616C722.539 783.616 723.963 785.152 723.963 787.136C723.963 787.456 723.915 787.76 723.867 787.984H717.675C717.723 789.92 718.955 791.088 720.683 791.088C721.723 791.088 722.603 790.608 723.131 789.888L724.139 790.672ZM720.315 784.768C718.987 784.768 718.059 785.552 717.771 786.944H722.603C722.555 785.76 721.739 784.768 720.315 784.768ZM726.268 792V783.936H727.628V784.848C728.284 784.128 729.116 783.616 730.316 783.616C732.124 783.616 733.468 784.832 733.468 787.12V792H732.108V787.168C732.108 785.728 731.292 784.896 730.044 784.896C728.876 784.896 728.14 785.568 727.628 786.416V792H726.268ZM736.894 781.84C736.366 781.84 735.934 781.408 735.934 780.88C735.934 780.368 736.366 779.936 736.894 779.936C737.422 779.936 737.838 780.368 737.838 780.88C737.838 781.408 737.422 781.84 736.894 781.84ZM736.206 792V783.936H737.566V792H736.206ZM747.608 790.672C746.856 791.68 745.656 792.32 744.152 792.32C741.432 792.32 739.752 790.32 739.752 787.968C739.752 785.52 741.32 783.616 743.816 783.616C746.008 783.616 747.432 785.152 747.432 787.136C747.432 787.456 747.384 787.76 747.336 787.984H741.144C741.192 789.92 742.424 791.088 744.152 791.088C745.192 791.088 746.072 790.608 746.6 789.888L747.608 790.672ZM743.784 784.768C742.456 784.768 741.528 785.552 741.24 786.944H746.072C746.024 785.76 745.208 784.768 743.784 784.768ZM749.737 792V783.936H751.097V784.944C751.689 784.24 752.425 783.776 753.449 783.776C753.705 783.776 753.945 783.808 754.137 783.872V785.2C753.897 785.136 753.657 785.104 753.337 785.104C752.281 785.104 751.593 785.648 751.097 786.464V792H749.737ZM756.784 781.84C756.256 781.84 755.824 781.408 755.824 780.88C755.824 780.368 756.256 779.936 756.784 779.936C757.312 779.936 757.728 780.368 757.728 780.88C757.728 781.408 757.312 781.84 756.784 781.84ZM756.096 792V783.936H757.456V792H756.096ZM767.499 790.672C766.747 791.68 765.547 792.32 764.043 792.32C761.323 792.32 759.643 790.32 759.643 787.968C759.643 785.52 761.211 783.616 763.707 783.616C765.899 783.616 767.323 785.152 767.323 787.136C767.323 787.456 767.275 787.76 767.227 787.984H761.035C761.083 789.92 762.315 791.088 764.043 791.088C765.083 791.088 765.963 790.608 766.491 789.888L767.499 790.672ZM763.675 784.768C762.347 784.768 761.419 785.552 761.131 786.944H765.963C765.915 785.76 765.099 784.768 763.675 784.768Z" fill="black"/>
<path d="M668.344 286.684C671.16 286.684 673.432 285.308 674.84 283.292L677.784 285.564C675.704 288.316 672.408 290.14 668.344 290.14C661.304 290.14 656.536 284.7 656.536 278.3C656.536 271.9 661.304 266.46 668.344 266.46C672.408 266.46 675.704 268.284 677.784 271.036L674.84 273.308C673.432 271.292 671.16 269.916 668.344 269.916C663.672 269.916 660.312 273.628 660.312 278.3C660.312 283.004 663.672 286.684 668.344 286.684ZM688.864 272.732C694.112 272.732 697.632 276.668 697.632 281.436C697.632 286.204 694.112 290.14 688.864 290.14C683.648 290.14 680.096 286.204 680.096 281.436C680.096 276.668 683.648 272.732 688.864 272.732ZM688.896 287.036C691.936 287.036 694.176 284.508 694.176 281.436C694.176 278.3 691.936 275.836 688.896 275.836C685.792 275.836 683.552 278.332 683.552 281.436C683.552 284.54 685.792 287.036 688.896 287.036ZM701.751 289.5V273.372H705.047V274.94C706.263 273.66 707.863 272.732 710.167 272.732C713.719 272.732 716.439 275.132 716.439 279.804V289.5H713.111V279.932C713.111 277.372 711.703 275.836 709.399 275.836C707.191 275.836 705.879 277.212 705.047 278.62V289.5H701.751ZM719.039 273.372H722.591L727.327 285.916L732.031 273.372H735.615L729.503 289.5H725.119L719.039 273.372ZM752.936 286.876C751.432 288.892 748.968 290.14 745.96 290.14C740.391 290.14 737.096 286.14 737.096 281.436C737.096 276.604 740.168 272.732 745.288 272.732C749.736 272.732 752.616 275.772 752.616 279.868C752.616 280.604 752.52 281.34 752.392 281.82H740.488C740.712 285.34 742.856 287.164 745.96 287.164C747.912 287.164 749.544 286.3 750.536 284.956L752.936 286.876ZM745.224 275.484C742.824 275.484 741.16 276.86 740.648 279.356H749.32C749.256 277.34 747.816 275.484 745.224 275.484ZM756.938 289.5V273.372H760.234V275.196C761.354 273.948 762.762 273.052 764.746 273.052C765.258 273.052 765.738 273.148 766.154 273.276V276.508C765.642 276.38 765.13 276.284 764.458 276.284C762.41 276.284 761.066 277.372 760.234 278.748V289.5H756.938ZM768.182 287.228L770.454 285.244C771.51 286.588 772.79 287.452 774.39 287.452C775.958 287.452 776.822 286.492 776.822 285.276C776.822 282.012 768.918 283.196 768.918 277.5C768.918 274.844 771.158 272.732 774.39 272.732C776.758 272.732 778.838 273.884 779.99 275.42L777.75 277.372C776.886 276.22 775.766 275.42 774.422 275.42C772.886 275.42 772.118 276.316 772.118 277.404C772.118 280.636 780.022 279.548 780.022 285.084C779.99 288.252 777.43 290.14 774.422 290.14C771.702 290.14 769.686 289.052 768.182 287.228ZM788.511 289.98C785.311 289.98 783.135 288.156 783.135 285.308C783.135 282.876 785.023 281.116 788.447 280.54L793.663 279.676V278.844C793.663 276.86 792.191 275.644 790.111 275.644C788.351 275.644 786.975 276.444 786.047 277.756L783.583 275.868C785.023 273.948 787.327 272.732 790.207 272.732C794.559 272.732 796.959 275.292 796.959 278.844V289.5H793.663V287.676C792.511 289.084 790.495 289.98 788.511 289.98ZM786.463 285.18C786.463 286.428 787.455 287.292 789.119 287.292C791.135 287.292 792.703 286.332 793.663 284.796V282.012L789.311 282.748C787.295 283.1 786.463 283.964 786.463 285.18ZM803.086 283.9V276.348H800.046V273.372H803.086V269.34H806.414V273.372H811.758V276.348H806.414V283.9C806.414 286.076 807.566 286.78 809.358 286.78C810.446 286.78 811.182 286.652 811.758 286.428V289.34C810.99 289.66 810.094 289.82 808.845 289.82C805.07 289.82 803.086 287.836 803.086 283.9ZM817.352 269.788C816.136 269.788 815.112 268.764 815.112 267.548C815.112 266.332 816.136 265.308 817.352 265.308C818.568 265.308 819.592 266.332 819.592 267.548C819.592 268.764 818.568 269.788 817.352 269.788ZM815.688 289.5V273.372H818.984V289.5H815.688ZM831.864 272.732C837.112 272.732 840.632 276.668 840.632 281.436C840.632 286.204 837.112 290.14 831.864 290.14C826.648 290.14 823.096 286.204 823.096 281.436C823.096 276.668 826.648 272.732 831.864 272.732ZM831.896 287.036C834.936 287.036 837.176 284.508 837.176 281.436C837.176 278.3 834.936 275.836 831.896 275.836C828.792 275.836 826.552 278.332 826.552 281.436C826.552 284.54 828.792 287.036 831.896 287.036ZM844.751 289.5V273.372H848.047V274.94C849.263 273.66 850.863 272.732 853.167 272.732C856.719 272.732 859.439 275.132 859.439 279.804V289.5H856.111V279.932C856.111 277.372 854.703 275.836 852.399 275.836C850.191 275.836 848.879 277.212 848.047 278.62V289.5H844.751Z" fill="black"/>
<defs>
<linearGradient id="paint0_linear_883_1701" x1="106" y1="410" x2="378" y2="399.5" gradientUnits="userSpaceOnUse">
<stop stop-color="#3C30C4"/>
<stop offset="1" stop-color="#ECECFE"/>
</linearGradient>
<clipPath id="clip0_883_1701">
<rect width="478" height="314" fill="white" transform="translate(0 253.5)"/>
</clipPath>
<clipPath id="clip1_883_1701">
<rect x="59" y="207.5" width="360" height="301" rx="16" fill="white"/>
</clipPath>
</defs>
</svg>
