<svg width="1114" height="811" viewBox="0 0 1114 811" fill="none" xmlns="http://www.w3.org/2000/svg">
<g clip-path="url(#clip0_418_2664)">
<rect x="13.5" y="19.5" width="193" height="87" fill="#F5F5FE"/>
<rect x="13.5" y="19.5" width="193" height="87" stroke="#000091"/>
<path d="M95.5361 61.98V50.22L92.1961 52.08L91.0761 50.52L95.5761 47.98H97.7161V61.98H95.5361ZM101.862 55.54L102.262 48H110.262V49.98H104.362L104.162 53.58H105.762C109.262 53.58 110.842 55.32 110.842 57.9C110.842 60.66 108.702 62.4 105.862 62.4C103.382 62.4 101.702 61.36 100.582 59.42L102.502 58.24C103.342 59.78 104.402 60.44 105.862 60.44C107.442 60.44 108.602 59.52 108.602 57.98C108.602 56.5 107.542 55.54 105.662 55.54H101.862ZM112.381 58.1V56.12L118.721 48H121.321V56.12H122.861V58.1H121.321V62H119.141V58.1H112.381ZM114.681 56.12H119.141V50.42L114.681 56.12ZM53.3693 80.24C55.1293 80.24 56.5493 79.38 57.4293 78.12L59.2693 79.54C57.9693 81.26 55.9093 82.4 53.3693 82.4C48.9693 82.4 45.9893 79 45.9893 75C45.9893 71 48.9693 67.6 53.3693 67.6C55.9093 67.6 57.9693 68.74 59.2693 70.46L57.4293 71.88C56.5493 70.62 55.1293 69.76 53.3693 69.76C50.4493 69.76 48.3493 72.08 48.3493 75C48.3493 77.94 50.4493 80.24 53.3693 80.24ZM64.294 82.3C62.294 82.3 60.934 81.16 60.934 79.38C60.934 77.86 62.114 76.76 64.254 76.4L67.514 75.86V75.34C67.514 74.1 66.594 73.34 65.294 73.34C64.194 73.34 63.334 73.84 62.754 74.66L61.214 73.48C62.114 72.28 63.554 71.52 65.354 71.52C68.074 71.52 69.574 73.12 69.574 75.34V82H67.514V80.86C66.794 81.74 65.534 82.3 64.294 82.3ZM63.014 79.3C63.014 80.08 63.634 80.62 64.674 80.62C65.934 80.62 66.914 80.02 67.514 79.06V77.32L64.794 77.78C63.534 78 63.014 78.54 63.014 79.3ZM72.803 82V71.92H74.863V72.9C75.623 72.1 76.623 71.52 78.063 71.52C80.283 71.52 81.983 73.02 81.983 75.94V82H79.903V76.02C79.903 74.42 79.023 73.46 77.583 73.46C76.203 73.46 75.383 74.32 74.863 75.2V82H72.803ZM84.3859 76.96C84.3859 74.02 86.3659 71.52 89.5459 71.52C90.9859 71.52 92.0659 72.04 92.9059 72.94V67H95.0059V82H92.9059V80.98C92.0659 81.88 90.9859 82.4 89.5459 82.4C86.3659 82.4 84.3859 79.9 84.3859 76.96ZM86.5659 76.96C86.5659 78.94 87.8659 80.46 89.8059 80.46C91.1059 80.46 92.2259 79.84 92.9059 78.78V75.14C92.1659 74.04 91.0659 73.46 89.8059 73.46C87.8659 73.46 86.5659 74.98 86.5659 76.96ZM99.3704 69.68C98.6104 69.68 97.9704 69.04 97.9704 68.28C97.9704 67.52 98.6104 66.88 99.3704 66.88C100.13 66.88 100.77 67.52 100.77 68.28C100.77 69.04 100.13 69.68 99.3704 69.68ZM98.3304 82V71.92H100.39V82H98.3304ZM102.96 76.96C102.96 74.02 104.94 71.52 108.12 71.52C109.56 71.52 110.64 72.04 111.48 72.94V67H113.58V82H111.48V80.98C110.64 81.88 109.56 82.4 108.12 82.4C104.94 82.4 102.96 79.9 102.96 76.96ZM105.14 76.96C105.14 78.94 106.44 80.46 108.38 80.46C109.68 80.46 110.8 79.84 111.48 78.78V75.14C110.74 74.04 109.64 73.46 108.38 73.46C106.44 73.46 105.14 74.98 105.14 76.96ZM119.685 82.3C117.685 82.3 116.325 81.16 116.325 79.38C116.325 77.86 117.505 76.76 119.645 76.4L122.905 75.86V75.34C122.905 74.1 121.985 73.34 120.685 73.34C119.585 73.34 118.725 73.84 118.145 74.66L116.605 73.48C117.505 72.28 118.945 71.52 120.745 71.52C123.465 71.52 124.965 73.12 124.965 75.34V82H122.905V80.86C122.185 81.74 120.925 82.3 119.685 82.3ZM118.405 79.3C118.405 80.08 119.025 80.62 120.065 80.62C121.325 80.62 122.305 80.02 122.905 79.06V77.32L120.185 77.78C118.925 78 118.405 78.54 118.405 79.3ZM128.794 78.5V73.78H126.894V71.92H128.794V69.4H130.874V71.92H134.214V73.78H130.874V78.5C130.874 79.86 131.594 80.3 132.714 80.3C133.394 80.3 133.854 80.22 134.214 80.08V81.9C133.734 82.1 133.174 82.2 132.394 82.2C130.034 82.2 128.794 80.96 128.794 78.5ZM143.471 77.68V71.92H145.551V77.58C145.551 80.6 143.811 82.4 140.991 82.4C138.151 82.4 136.411 80.6 136.411 77.58V71.92H138.491V77.68C138.491 79.42 139.411 80.46 140.991 80.46C142.531 80.46 143.471 79.42 143.471 77.68ZM148.682 82V71.92H150.742V73.06C151.442 72.28 152.322 71.72 153.562 71.72C153.882 71.72 154.182 71.78 154.442 71.86V73.88C154.122 73.8 153.802 73.74 153.382 73.74C152.102 73.74 151.262 74.42 150.742 75.28V82H148.682ZM165.282 80.36C164.342 81.62 162.802 82.4 160.922 82.4C157.442 82.4 155.382 79.9 155.382 76.96C155.382 73.94 157.302 71.52 160.502 71.52C163.282 71.52 165.082 73.42 165.082 75.98C165.082 76.44 165.022 76.9 164.942 77.2H157.502C157.642 79.4 158.982 80.54 160.922 80.54C162.142 80.54 163.162 80 163.782 79.16L165.282 80.36ZM160.462 73.24C158.962 73.24 157.922 74.1 157.602 75.66H163.022C162.982 74.4 162.082 73.24 160.462 73.24ZM166.666 80.58L168.086 79.34C168.746 80.18 169.546 80.72 170.546 80.72C171.526 80.72 172.066 80.12 172.066 79.36C172.066 77.32 167.126 78.06 167.126 74.5C167.126 72.84 168.526 71.52 170.546 71.52C172.026 71.52 173.326 72.24 174.046 73.2L172.646 74.42C172.106 73.7 171.406 73.2 170.566 73.2C169.606 73.2 169.126 73.76 169.126 74.44C169.126 76.46 174.066 75.78 174.066 79.24C174.046 81.22 172.446 82.4 170.566 82.4C168.866 82.4 167.606 81.72 166.666 80.58Z" fill="black"/>
<path d="M260 42.5C260 40.2909 261.791 38.5 264 38.5H617V87.5H260V42.5Z" fill="#EEEEEE"/>
<path d="M277.168 70L279.152 58.8H284.368L284.288 59.312H279.6L278.768 64.048H282.832L282.736 64.544H278.672L277.808 69.488H282.48L282.4 70H277.168ZM284.585 70H283.929L287.737 65.744L285.625 61.936H286.201L288.169 65.424L291.273 61.936H291.945L288.457 65.824L290.793 70H290.217L288.041 66.128L284.585 70ZM298.766 62.864C298.43 62.864 298.206 62.64 298.206 62.32C298.206 62 298.43 61.776 298.766 61.776C299.102 61.776 299.326 62 299.326 62.32C299.326 62.64 299.102 62.864 298.766 62.864ZM297.486 70.16C297.15 70.16 296.926 69.936 296.926 69.616C296.926 69.296 297.15 69.072 297.486 69.072C297.822 69.072 298.046 69.296 298.046 69.616C298.046 69.936 297.822 70.16 297.486 70.16ZM305.491 70L307.475 58.8H309.091C311.043 58.8 312.067 59.76 312.067 61.264C312.067 62.576 311.251 63.648 309.859 64.032C311.203 64.4 311.811 65.44 311.811 66.592C311.811 68.64 310.163 70 307.779 70H305.491ZM309.091 59.312H307.923L307.139 63.776H308.643C310.371 63.776 311.491 62.704 311.491 61.264C311.491 60.016 310.611 59.312 309.091 59.312ZM308.739 64.288H307.043L306.131 69.488H307.795C309.875 69.488 311.219 68.336 311.219 66.608C311.219 65.28 310.355 64.288 308.739 64.288ZM313.771 59.312L313.851 58.8H322.203L322.123 59.312H318.203L316.331 70H315.787L317.659 59.312H313.771ZM324.069 61.36C324.069 64.112 328.293 64.112 328.293 67.232C328.293 68.96 326.965 70.32 324.981 70.32C323.605 70.32 322.501 69.808 321.685 68.512L322.149 68.192C322.917 69.36 323.861 69.792 324.981 69.792C326.709 69.792 327.733 68.608 327.733 67.232C327.733 64.448 323.509 64.448 323.509 61.36C323.509 59.776 324.885 58.48 326.597 58.48C328.101 58.48 328.981 59.184 329.429 60.192L328.949 60.48C328.549 59.52 327.797 59.008 326.597 59.008C325.173 59.008 324.069 60.08 324.069 61.36ZM335.175 70L337.159 58.8H340.663C343.959 58.8 345.959 60.816 345.959 63.712C345.959 66.96 343.447 70 339.191 70H335.175ZM340.663 59.312H337.607L335.815 69.488H339.191C343.047 69.488 345.383 66.704 345.383 63.728C345.383 61.12 343.559 59.312 340.663 59.312ZM347.372 70L348.796 61.936H349.308L349.084 63.248C349.932 62.256 350.716 61.776 351.772 61.776C352.028 61.776 352.284 61.792 352.524 61.872L352.428 62.352C352.204 62.288 352.012 62.256 351.756 62.256C350.668 62.256 349.884 62.816 348.94 64.032L347.884 70H347.372ZM357.213 61.616C359.597 61.616 360.941 63.36 360.941 65.44C360.941 68.016 358.957 70.32 356.189 70.32C353.805 70.32 352.461 68.576 352.461 66.496C352.461 63.92 354.445 61.616 357.213 61.616ZM356.205 69.824C358.605 69.824 360.381 67.76 360.381 65.424C360.381 63.616 359.181 62.112 357.197 62.112C354.797 62.112 353.021 64.176 353.021 66.512C353.021 68.32 354.221 69.824 356.205 69.824ZM364.845 58.96C364.573 58.96 364.349 58.768 364.349 58.48C364.349 58.208 364.573 58 364.845 58C365.133 58 365.341 58.208 365.341 58.48C365.341 58.768 365.133 58.96 364.845 58.96ZM362.557 70L363.981 61.936H364.493L363.069 70H362.557ZM367.107 67.52L368.003 62.416H366.515L366.611 61.936H368.099L368.451 59.92H368.979L368.627 61.936H371.763L371.683 62.416H368.531L367.635 67.52C367.315 69.312 368.099 69.664 369.203 69.664C369.715 69.664 370.067 69.568 370.435 69.44L370.339 69.952C370.003 70.08 369.619 70.16 369.203 70.16C367.731 70.16 366.739 69.568 367.107 67.52ZM376.934 70L378.918 58.8H379.462L377.574 69.488H382.246L382.166 70H376.934ZM384.621 72.112C383.821 73.44 382.989 74 381.917 74C381.453 74 380.941 73.904 380.653 73.728L380.749 73.2C381.085 73.424 381.453 73.504 381.917 73.504C382.669 73.504 383.453 73.152 384.173 71.936L385.325 70L383.261 61.936H383.821L385.709 69.36L390.125 61.936H390.717L384.621 72.112ZM395.691 61.616C398.075 61.616 399.419 63.36 399.419 65.44C399.419 68.016 397.435 70.32 394.667 70.32C392.283 70.32 390.939 68.576 390.939 66.496C390.939 63.92 392.923 61.616 395.691 61.616ZM394.683 69.824C397.083 69.824 398.859 67.76 398.859 65.424C398.859 63.616 397.659 62.112 395.675 62.112C393.275 62.112 391.499 64.176 391.499 66.512C391.499 68.32 392.699 69.824 394.683 69.824ZM401.036 70L402.46 61.936H402.972L402.748 63.184C403.676 62.064 404.732 61.616 405.852 61.616C407.772 61.616 408.876 62.832 408.492 65.008L407.612 70H407.1L407.98 65.008C408.316 63.12 407.42 62.112 405.852 62.112C404.668 62.112 403.532 62.656 402.604 64.016L401.548 70H401.036Z" fill="#161616"/>
<path d="M617 38.5H778C780.209 38.5 782 40.2909 782 42.5V87.5H617V38.5Z" fill="#000091"/>
<path d="M657.034 72.5L653.497 69.0455C652.841 69.5769 652.088 69.9977 651.236 70.3077C650.384 70.6177 649.478 70.7727 648.517 70.7727C646.137 70.7727 644.122 69.9368 642.473 68.2649C640.824 66.593 640 64.5501 640 62.1364C640 59.7226 640.824 57.6798 642.473 56.0079C644.122 54.336 646.137 53.5 648.517 53.5C650.898 53.5 652.912 54.336 654.561 56.0079C656.21 57.6798 657.034 59.7226 657.034 62.1364C657.034 63.1107 656.882 64.0297 656.576 64.8934C656.27 65.757 655.855 66.521 655.331 67.1853L659 70.972L657.034 72.5ZM648.517 68.1154C650.155 68.1154 651.547 67.5341 652.694 66.3715C653.841 65.2089 654.414 63.7972 654.414 62.1364C654.414 60.4755 653.841 59.0638 652.694 57.9012C651.547 56.7386 650.155 56.1573 648.517 56.1573C646.879 56.1573 645.487 56.7386 644.341 57.9012C643.194 59.0638 642.621 60.4755 642.621 62.1364C642.621 63.7972 643.194 65.2089 644.341 66.3715C645.487 67.5341 646.879 68.1154 648.517 68.1154Z" fill="white"/>
<path d="M670.776 70V58.8H673.752C676.008 58.8 677.4 60.032 677.4 61.952C677.4 63.296 676.712 64.304 675.512 64.784L679.128 70H677.352L674.104 65.072C673.992 65.088 673.864 65.088 673.752 65.088H672.28V70H670.776ZM673.816 60.08H672.28V63.808H673.816C675.096 63.808 675.848 63.12 675.848 61.92C675.848 60.784 675.096 60.08 673.816 60.08ZM687.764 68.672C687.012 69.68 685.812 70.32 684.308 70.32C681.588 70.32 679.908 68.32 679.908 65.968C679.908 63.52 681.476 61.616 683.972 61.616C686.164 61.616 687.588 63.152 687.588 65.136C687.588 65.456 687.54 65.76 687.492 65.984H681.3C681.348 67.92 682.58 69.088 684.308 69.088C685.348 69.088 686.228 68.608 686.756 67.888L687.764 68.672ZM683.94 62.768C682.612 62.768 681.684 63.552 681.396 64.944H686.228C686.18 63.76 685.364 62.768 683.94 62.768ZM693.574 69.04C694.566 69.04 695.382 68.56 695.878 67.856L696.95 68.672C696.198 69.68 695.03 70.32 693.558 70.32C690.886 70.32 689.174 68.32 689.174 65.968C689.174 63.616 690.886 61.616 693.558 61.616C695.014 61.616 696.198 62.272 696.95 63.264L695.878 64.08C695.382 63.376 694.566 62.896 693.558 62.896C691.83 62.896 690.598 64.256 690.598 65.968C690.598 67.696 691.83 69.04 693.574 69.04ZM698.815 70V58H700.175V62.848C700.831 62.128 701.663 61.616 702.863 61.616C704.671 61.616 706.015 62.832 706.015 65.12V70H704.655V65.168C704.655 63.728 703.855 62.896 702.591 62.896C701.407 62.896 700.687 63.584 700.175 64.416V70H698.815ZM715.921 68.672C715.169 69.68 713.969 70.32 712.465 70.32C709.745 70.32 708.065 68.32 708.065 65.968C708.065 63.52 709.633 61.616 712.129 61.616C714.321 61.616 715.745 63.152 715.745 65.136C715.745 65.456 715.697 65.76 715.649 65.984H709.457C709.505 67.92 710.737 69.088 712.465 69.088C713.505 69.088 714.385 68.608 714.913 67.888L715.921 68.672ZM712.097 62.768C710.769 62.768 709.841 63.552 709.553 64.944H714.385C714.337 63.76 713.521 62.768 712.097 62.768ZM718.049 70V61.936H719.409V62.944C720.001 62.24 720.737 61.776 721.761 61.776C722.017 61.776 722.257 61.808 722.449 61.872V63.2C722.209 63.136 721.969 63.104 721.649 63.104C720.593 63.104 719.905 63.648 719.409 64.464V70H718.049ZM727.636 69.04C728.628 69.04 729.444 68.56 729.94 67.856L731.012 68.672C730.26 69.68 729.092 70.32 727.62 70.32C724.948 70.32 723.236 68.32 723.236 65.968C723.236 63.616 724.948 61.616 727.62 61.616C729.076 61.616 730.26 62.272 731.012 63.264L729.94 64.08C729.444 63.376 728.628 62.896 727.62 62.896C725.892 62.896 724.66 64.256 724.66 65.968C724.66 67.696 725.892 69.04 727.636 69.04ZM732.878 70V58H734.238V62.848C734.894 62.128 735.726 61.616 736.926 61.616C738.734 61.616 740.078 62.832 740.078 65.12V70H738.718V65.168C738.718 63.728 737.918 62.896 736.654 62.896C735.47 62.896 734.75 63.584 734.238 64.416V70H732.878ZM749.983 68.672C749.231 69.68 748.031 70.32 746.527 70.32C743.807 70.32 742.127 68.32 742.127 65.968C742.127 63.52 743.695 61.616 746.191 61.616C748.383 61.616 749.807 63.152 749.807 65.136C749.807 65.456 749.759 65.76 749.711 65.984H743.519C743.567 67.92 744.799 69.088 746.527 69.088C747.567 69.088 748.447 68.608 748.975 67.888L749.983 68.672ZM746.159 62.768C744.831 62.768 743.903 63.552 743.615 64.944H748.447C748.399 63.76 747.583 62.768 746.159 62.768ZM752.112 70V61.936H753.472V62.944C754.064 62.24 754.8 61.776 755.824 61.776C756.08 61.776 756.32 61.808 756.512 61.872V63.2C756.272 63.136 756.032 63.104 755.712 63.104C754.656 63.104 753.968 63.648 753.472 64.464V70H752.112Z" fill="white"/>
<mask id="path-8-inside-1_418_2664" fill="white">
<path d="M836 43H1178V83H836V43Z"/>
</mask>
<path d="M836 43H1178V83H836V43Z" fill="white"/>
<path d="M1178 82H836V84H1178V82Z" fill="#000091" mask="url(#path-8-inside-1_418_2664)"/>
<path d="M857.776 70V58.8H863.792V60.08H859.28V63.664H863.152V64.928H859.28V70H857.776ZM866.503 59.84C865.975 59.84 865.543 59.408 865.543 58.88C865.543 58.368 865.975 57.936 866.503 57.936C867.031 57.936 867.447 58.368 867.447 58.88C867.447 59.408 867.031 59.84 866.503 59.84ZM865.815 70V61.936H867.175V70H865.815ZM870.049 70V58H871.409V70H870.049ZM874.748 67.296V63.168H873.228V61.936H874.748V59.92H876.124V61.936H878.924V63.168H876.124V67.296C876.124 68.56 876.764 68.912 877.74 68.912C878.268 68.912 878.636 68.848 878.94 68.72V69.936C878.556 70.096 878.124 70.16 877.548 70.16C875.756 70.16 874.748 69.264 874.748 67.296ZM881.003 70V61.936H882.363V62.944C882.955 62.24 883.691 61.776 884.715 61.776C884.971 61.776 885.211 61.808 885.403 61.872V63.2C885.163 63.136 884.923 63.104 884.603 63.104C883.547 63.104 882.859 63.648 882.363 64.464V70H881.003ZM894.046 68.672C893.294 69.68 892.094 70.32 890.59 70.32C887.87 70.32 886.19 68.32 886.19 65.968C886.19 63.52 887.758 61.616 890.254 61.616C892.446 61.616 893.87 63.152 893.87 65.136C893.87 65.456 893.822 65.76 893.774 65.984H887.582C887.63 67.92 888.862 69.088 890.59 69.088C891.63 69.088 892.51 68.608 893.038 67.888L894.046 68.672ZM890.222 62.768C888.894 62.768 887.966 63.552 887.678 64.944H892.51C892.462 63.76 891.646 62.768 890.222 62.768ZM895.248 68.896L896.208 68.08C896.768 68.784 897.44 69.184 898.256 69.184C899.152 69.184 899.664 68.64 899.664 67.936C899.664 66.128 895.632 66.768 895.632 63.92C895.632 62.656 896.704 61.616 898.256 61.616C899.408 61.616 900.4 62.16 900.96 62.944L900.016 63.744C899.584 63.136 898.976 62.752 898.272 62.752C897.408 62.752 896.944 63.264 896.944 63.888C896.944 65.696 900.992 65.12 900.992 67.872C900.976 69.376 899.776 70.32 898.272 70.32C896.992 70.32 895.984 69.808 895.248 68.896Z" fill="black"/>
</g>
<mask id="path-11-inside-2_418_2664" fill="white">
<path d="M64 176H719V218H64V176Z"/>
</mask>
<path d="M64 176H719V218H64V176Z" fill="white"/>
<path d="M64 176V175.5H63.5V176H64ZM719 176H719.5V175.5H719V176ZM719 218V219H719.5V218H719ZM64 218H63.5V219H64V218ZM64 176.5H719V175.5H64V176.5ZM718.5 176V218H719.5V176H718.5ZM719 217H64V219H719V217ZM64.5 218V176H63.5V218H64.5Z" fill="#EEEEEE" mask="url(#path-11-inside-2_418_2664)"/>
<path d="M75.856 204V192.8H81.552V193.696H76.88V197.856H80.912V198.736H76.88V204H75.856ZM86.8864 195.616C89.4784 195.616 91.2224 197.664 91.2224 199.968C91.2224 202.272 89.4784 204.32 86.8864 204.32C84.3104 204.32 82.5664 202.272 82.5664 199.968C82.5664 197.664 84.3104 195.616 86.8864 195.616ZM86.9024 203.424C88.8064 203.424 90.2144 201.792 90.2144 199.968C90.2144 198.112 88.8064 196.512 86.9024 196.512C84.9344 196.512 83.5424 198.128 83.5424 199.968C83.5424 201.808 84.9344 203.424 86.9024 203.424ZM93.6153 204V195.936H94.5593V197.088C95.2153 196.256 95.9673 195.776 97.0553 195.776C97.2793 195.776 97.5193 195.808 97.7273 195.872V196.784C97.4873 196.72 97.2793 196.672 96.9913 196.672C95.8873 196.672 95.1673 197.216 94.5593 198.224V204H93.6153ZM99.8653 204V195.936H100.809V197.008C101.465 196.16 102.345 195.616 103.529 195.616C104.777 195.616 105.785 196.208 106.249 197.344C106.937 196.288 107.849 195.616 109.241 195.616C111.001 195.616 112.249 196.768 112.249 198.896V204H111.321V198.928C111.321 197.36 110.425 196.512 109.113 196.512C107.993 196.512 107.161 197.072 106.489 198.24C106.521 198.448 106.537 198.672 106.537 198.896V204H105.593V198.928C105.593 197.36 104.713 196.512 103.401 196.512C102.185 196.512 101.353 197.184 100.809 198.208V204H99.8653ZM117.368 204.224C115.8 204.224 114.76 203.376 114.76 202.048C114.76 200.832 115.688 200 117.384 199.712L120.264 199.232V198.48C120.264 197.184 119.352 196.48 118.088 196.48C117.048 196.48 116.2 196.944 115.656 197.712L114.936 197.152C115.624 196.208 116.728 195.616 118.12 195.616C119.976 195.616 121.192 196.704 121.192 198.48V204H120.264V202.832C119.576 203.744 118.488 204.224 117.368 204.224ZM115.72 202.032C115.72 202.816 116.392 203.408 117.48 203.408C118.648 203.408 119.656 202.848 120.264 201.808V199.968L117.592 200.416C116.312 200.64 115.72 201.232 115.72 202.032ZM124.625 201.456V196.784H123.105V195.936H124.625V193.92H125.585V195.936H128.609V196.784H125.585V201.456C125.585 202.928 126.337 203.28 127.425 203.28C127.937 203.28 128.289 203.216 128.609 203.104V203.968C128.241 204.096 127.841 204.16 127.329 204.16C125.681 204.16 124.625 203.424 124.625 201.456ZM131.33 193.392C130.93 193.392 130.594 193.088 130.594 192.672C130.594 192.288 130.93 191.968 131.33 191.968C131.73 191.968 132.05 192.288 132.05 192.672C132.05 193.088 131.73 193.392 131.33 193.392ZM130.85 204V195.936H131.794V204H130.85ZM138.527 195.616C141.119 195.616 142.863 197.664 142.863 199.968C142.863 202.272 141.119 204.32 138.527 204.32C135.951 204.32 134.207 202.272 134.207 199.968C134.207 197.664 135.951 195.616 138.527 195.616ZM138.543 203.424C140.447 203.424 141.855 201.792 141.855 199.968C141.855 198.112 140.447 196.512 138.543 196.512C136.575 196.512 135.183 198.128 135.183 199.968C135.183 201.808 136.575 203.424 138.543 203.424ZM145.256 204V195.936H146.2V197.04C146.904 196.16 147.816 195.616 149.08 195.616C150.92 195.616 152.248 196.832 152.248 199.056V204H151.304V199.088C151.304 197.424 150.36 196.512 148.952 196.512C147.672 196.512 146.824 197.168 146.2 198.208V204H145.256ZM154.28 202.944L154.984 202.368C155.592 203.136 156.296 203.504 157.16 203.504C158.216 203.504 158.824 202.832 158.824 202C158.824 199.952 154.68 200.64 154.68 197.792C154.68 196.624 155.672 195.616 157.16 195.616C158.248 195.616 159.16 196.144 159.72 196.912L159.016 197.472C158.568 196.8 157.912 196.432 157.176 196.432C156.168 196.432 155.608 197.056 155.608 197.792C155.608 199.888 159.752 199.248 159.752 201.968C159.752 203.36 158.648 204.32 157.176 204.32C155.976 204.32 154.984 203.84 154.28 202.944ZM165.546 202.944L166.25 202.368C166.858 203.136 167.562 203.504 168.426 203.504C169.482 203.504 170.09 202.832 170.09 202C170.09 199.952 165.946 200.64 165.946 197.792C165.946 196.624 166.938 195.616 168.426 195.616C169.514 195.616 170.426 196.144 170.986 196.912L170.282 197.472C169.834 196.8 169.178 196.432 168.442 196.432C167.434 196.432 166.874 197.056 166.874 197.792C166.874 199.888 171.018 199.248 171.018 201.968C171.018 203.36 169.914 204.32 168.442 204.32C167.242 204.32 166.25 203.84 165.546 202.944ZM173.939 193.392C173.539 193.392 173.203 193.088 173.203 192.672C173.203 192.288 173.539 191.968 173.939 191.968C174.339 191.968 174.659 192.288 174.659 192.672C174.659 193.088 174.339 193.392 173.939 193.392ZM173.459 204V195.936H174.403V204H173.459ZM177.568 204V195.936H178.512V197.008C179.168 196.16 180.048 195.616 181.232 195.616C182.48 195.616 183.488 196.208 183.952 197.344C184.64 196.288 185.552 195.616 186.944 195.616C188.704 195.616 189.952 196.768 189.952 198.896V204H189.024V198.928C189.024 197.36 188.128 196.512 186.816 196.512C185.696 196.512 184.864 197.072 184.192 198.24C184.224 198.448 184.24 198.672 184.24 198.896V204H183.296V198.928C183.296 197.36 182.416 196.512 181.104 196.512C179.888 196.512 179.056 197.184 178.512 198.208V204H177.568ZM193.423 193.392C193.023 193.392 192.687 193.088 192.687 192.672C192.687 192.288 193.023 191.968 193.423 191.968C193.823 191.968 194.143 192.288 194.143 192.672C194.143 193.088 193.823 193.392 193.423 193.392ZM192.943 204V195.936H193.887V204H192.943ZM197.053 204V192H197.997V204H197.053ZM203.29 204.224C201.722 204.224 200.682 203.376 200.682 202.048C200.682 200.832 201.61 200 203.306 199.712L206.186 199.232V198.48C206.186 197.184 205.274 196.48 204.01 196.48C202.97 196.48 202.122 196.944 201.578 197.712L200.858 197.152C201.546 196.208 202.65 195.616 204.042 195.616C205.898 195.616 207.114 196.704 207.114 198.48V204H206.186V202.832C205.498 203.744 204.41 204.224 203.29 204.224ZM201.642 202.032C201.642 202.816 202.314 203.408 203.402 203.408C204.57 203.408 205.578 202.848 206.186 201.808V199.968L203.514 200.416C202.234 200.64 201.642 201.232 201.642 202.032ZM210.611 193.392C210.211 193.392 209.875 193.088 209.875 192.672C209.875 192.288 210.211 191.968 210.611 191.968C211.011 191.968 211.331 192.288 211.331 192.672C211.331 193.088 211.011 193.392 210.611 193.392ZM210.131 204V195.936H211.075V204H210.131ZM214.24 204V195.936H215.184V197.088C215.84 196.256 216.592 195.776 217.68 195.776C217.904 195.776 218.144 195.808 218.352 195.872V196.784C218.112 196.72 217.904 196.672 217.616 196.672C216.512 196.672 215.792 197.216 215.184 198.224V204H214.24ZM226.92 202.672C226.184 203.68 225 204.32 223.528 204.32C220.888 204.32 219.176 202.32 219.176 199.968C219.176 197.472 220.776 195.616 223.192 195.616C225.352 195.616 226.728 197.152 226.728 199.056C226.728 199.296 226.712 199.536 226.664 199.728H220.152C220.152 199.792 220.152 199.856 220.152 199.92C220.152 201.968 221.544 203.456 223.528 203.456C224.664 203.456 225.608 202.928 226.2 202.096L226.92 202.672ZM223.176 196.448C221.672 196.448 220.552 197.392 220.248 198.976H225.768C225.72 197.568 224.744 196.448 223.176 196.448ZM228.265 202.944L228.969 202.368C229.577 203.136 230.281 203.504 231.145 203.504C232.201 203.504 232.809 202.832 232.809 202C232.809 199.952 228.665 200.64 228.665 197.792C228.665 196.624 229.657 195.616 231.145 195.616C232.233 195.616 233.145 196.144 233.705 196.912L233.001 197.472C232.553 196.8 231.897 196.432 231.161 196.432C230.153 196.432 229.593 197.056 229.593 197.792C229.593 199.888 233.737 199.248 233.737 201.968C233.737 203.36 232.633 204.32 231.161 204.32C229.961 204.32 228.969 203.84 228.265 202.944Z" fill="black"/>
<path d="M656.829 187.134H650.207C648.988 187.134 648 188.122 648 189.341V204.793C648 206.012 648.988 207 650.207 207H665.659C666.878 207 667.866 206.012 667.866 204.793V198.171" stroke="black" stroke-linecap="round" stroke-linejoin="round"/>
<path d="M655.174 196.515L664.003 187.686C664.917 186.771 666.4 186.771 667.314 187.686C668.228 188.6 668.228 190.082 667.314 190.997L658.485 199.826L653.518 201.482L655.174 196.515Z" stroke="black" stroke-linecap="round" stroke-linejoin="round"/>
<path d="M711 190.688L700 203.312L689 190.688" stroke="black" stroke-linecap="round" stroke-linejoin="round"/>
<mask id="path-17-inside-3_418_2664" fill="white">
<path d="M64 246H719V288H64V246Z"/>
</mask>
<path d="M64 246H719V288H64V246Z" fill="white"/>
<path d="M64 246V245.5H63.5V246H64ZM719 246H719.5V245.5H719V246ZM719 288V289H719.5V288H719ZM64 288H63.5V289H64V288ZM64 246.5H719V245.5H64V246.5ZM718.5 246V288H719.5V246H718.5ZM719 287H64V289H719V287ZM64.5 288V246H63.5V288H64.5Z" fill="#EEEEEE" mask="url(#path-17-inside-3_418_2664)"/>
<path d="M75.856 274V262.8H81.552V263.696H76.88V267.856H80.912V268.736H76.88V274H75.856ZM86.8864 265.616C89.4784 265.616 91.2224 267.664 91.2224 269.968C91.2224 272.272 89.4784 274.32 86.8864 274.32C84.3104 274.32 82.5664 272.272 82.5664 269.968C82.5664 267.664 84.3104 265.616 86.8864 265.616ZM86.9024 273.424C88.8064 273.424 90.2144 271.792 90.2144 269.968C90.2144 268.112 88.8064 266.512 86.9024 266.512C84.9344 266.512 83.5424 268.128 83.5424 269.968C83.5424 271.808 84.9344 273.424 86.9024 273.424ZM93.6153 274V265.936H94.5593V267.088C95.2153 266.256 95.9673 265.776 97.0553 265.776C97.2793 265.776 97.5193 265.808 97.7273 265.872V266.784C97.4873 266.72 97.2793 266.672 96.9913 266.672C95.8873 266.672 95.1673 267.216 94.5593 268.224V274H93.6153ZM99.8653 274V265.936H100.809V267.008C101.465 266.16 102.345 265.616 103.529 265.616C104.777 265.616 105.785 266.208 106.249 267.344C106.937 266.288 107.849 265.616 109.241 265.616C111.001 265.616 112.249 266.768 112.249 268.896V274H111.321V268.928C111.321 267.36 110.425 266.512 109.113 266.512C107.993 266.512 107.161 267.072 106.489 268.24C106.521 268.448 106.537 268.672 106.537 268.896V274H105.593V268.928C105.593 267.36 104.713 266.512 103.401 266.512C102.185 266.512 101.353 267.184 100.809 268.208V274H99.8653ZM117.368 274.224C115.8 274.224 114.76 273.376 114.76 272.048C114.76 270.832 115.688 270 117.384 269.712L120.264 269.232V268.48C120.264 267.184 119.352 266.48 118.088 266.48C117.048 266.48 116.2 266.944 115.656 267.712L114.936 267.152C115.624 266.208 116.728 265.616 118.12 265.616C119.976 265.616 121.192 266.704 121.192 268.48V274H120.264V272.832C119.576 273.744 118.488 274.224 117.368 274.224ZM115.72 272.032C115.72 272.816 116.392 273.408 117.48 273.408C118.648 273.408 119.656 272.848 120.264 271.808V269.968L117.592 270.416C116.312 270.64 115.72 271.232 115.72 272.032ZM124.625 271.456V266.784H123.105V265.936H124.625V263.92H125.585V265.936H128.609V266.784H125.585V271.456C125.585 272.928 126.337 273.28 127.425 273.28C127.937 273.28 128.289 273.216 128.609 273.104V273.968C128.241 274.096 127.841 274.16 127.329 274.16C125.681 274.16 124.625 273.424 124.625 271.456ZM131.33 263.392C130.93 263.392 130.594 263.088 130.594 262.672C130.594 262.288 130.93 261.968 131.33 261.968C131.73 261.968 132.05 262.288 132.05 262.672C132.05 263.088 131.73 263.392 131.33 263.392ZM130.85 274V265.936H131.794V274H130.85ZM138.527 265.616C141.119 265.616 142.863 267.664 142.863 269.968C142.863 272.272 141.119 274.32 138.527 274.32C135.951 274.32 134.207 272.272 134.207 269.968C134.207 267.664 135.951 265.616 138.527 265.616ZM138.543 273.424C140.447 273.424 141.855 271.792 141.855 269.968C141.855 268.112 140.447 266.512 138.543 266.512C136.575 266.512 135.183 268.128 135.183 269.968C135.183 271.808 136.575 273.424 138.543 273.424ZM145.256 274V265.936H146.2V267.04C146.904 266.16 147.816 265.616 149.08 265.616C150.92 265.616 152.248 266.832 152.248 269.056V274H151.304V269.088C151.304 267.424 150.36 266.512 148.952 266.512C147.672 266.512 146.824 267.168 146.2 268.208V274H145.256ZM154.28 272.944L154.984 272.368C155.592 273.136 156.296 273.504 157.16 273.504C158.216 273.504 158.824 272.832 158.824 272C158.824 269.952 154.68 270.64 154.68 267.792C154.68 266.624 155.672 265.616 157.16 265.616C158.248 265.616 159.16 266.144 159.72 266.912L159.016 267.472C158.568 266.8 157.912 266.432 157.176 266.432C156.168 266.432 155.608 267.056 155.608 267.792C155.608 269.888 159.752 269.248 159.752 271.968C159.752 273.36 158.648 274.32 157.176 274.32C155.976 274.32 154.984 273.84 154.28 272.944ZM165.546 272.944L166.25 272.368C166.858 273.136 167.562 273.504 168.426 273.504C169.482 273.504 170.09 272.832 170.09 272C170.09 269.952 165.946 270.64 165.946 267.792C165.946 266.624 166.938 265.616 168.426 265.616C169.514 265.616 170.426 266.144 170.986 266.912L170.282 267.472C169.834 266.8 169.178 266.432 168.442 266.432C167.434 266.432 166.874 267.056 166.874 267.792C166.874 269.888 171.018 269.248 171.018 271.968C171.018 273.36 169.914 274.32 168.442 274.32C167.242 274.32 166.25 273.84 165.546 272.944ZM173.939 263.392C173.539 263.392 173.203 263.088 173.203 262.672C173.203 262.288 173.539 261.968 173.939 261.968C174.339 261.968 174.659 262.288 174.659 262.672C174.659 263.088 174.339 263.392 173.939 263.392ZM173.459 274V265.936H174.403V274H173.459ZM177.568 274V265.936H178.512V267.008C179.168 266.16 180.048 265.616 181.232 265.616C182.48 265.616 183.488 266.208 183.952 267.344C184.64 266.288 185.552 265.616 186.944 265.616C188.704 265.616 189.952 266.768 189.952 268.896V274H189.024V268.928C189.024 267.36 188.128 266.512 186.816 266.512C185.696 266.512 184.864 267.072 184.192 268.24C184.224 268.448 184.24 268.672 184.24 268.896V274H183.296V268.928C183.296 267.36 182.416 266.512 181.104 266.512C179.888 266.512 179.056 267.184 178.512 268.208V274H177.568ZM193.423 263.392C193.023 263.392 192.687 263.088 192.687 262.672C192.687 262.288 193.023 261.968 193.423 261.968C193.823 261.968 194.143 262.288 194.143 262.672C194.143 263.088 193.823 263.392 193.423 263.392ZM192.943 274V265.936H193.887V274H192.943ZM197.053 274V262H197.997V274H197.053ZM203.29 274.224C201.722 274.224 200.682 273.376 200.682 272.048C200.682 270.832 201.61 270 203.306 269.712L206.186 269.232V268.48C206.186 267.184 205.274 266.48 204.01 266.48C202.97 266.48 202.122 266.944 201.578 267.712L200.858 267.152C201.546 266.208 202.65 265.616 204.042 265.616C205.898 265.616 207.114 266.704 207.114 268.48V274H206.186V272.832C205.498 273.744 204.41 274.224 203.29 274.224ZM201.642 272.032C201.642 272.816 202.314 273.408 203.402 273.408C204.57 273.408 205.578 272.848 206.186 271.808V269.968L203.514 270.416C202.234 270.64 201.642 271.232 201.642 272.032ZM210.611 263.392C210.211 263.392 209.875 263.088 209.875 262.672C209.875 262.288 210.211 261.968 210.611 261.968C211.011 261.968 211.331 262.288 211.331 262.672C211.331 263.088 211.011 263.392 210.611 263.392ZM210.131 274V265.936H211.075V274H210.131ZM214.24 274V265.936H215.184V267.088C215.84 266.256 216.592 265.776 217.68 265.776C217.904 265.776 218.144 265.808 218.352 265.872V266.784C218.112 266.72 217.904 266.672 217.616 266.672C216.512 266.672 215.792 267.216 215.184 268.224V274H214.24ZM226.92 272.672C226.184 273.68 225 274.32 223.528 274.32C220.888 274.32 219.176 272.32 219.176 269.968C219.176 267.472 220.776 265.616 223.192 265.616C225.352 265.616 226.728 267.152 226.728 269.056C226.728 269.296 226.712 269.536 226.664 269.728H220.152C220.152 269.792 220.152 269.856 220.152 269.92C220.152 271.968 221.544 273.456 223.528 273.456C224.664 273.456 225.608 272.928 226.2 272.096L226.92 272.672ZM223.176 266.448C221.672 266.448 220.552 267.392 220.248 268.976H225.768C225.72 267.568 224.744 266.448 223.176 266.448ZM228.265 272.944L228.969 272.368C229.577 273.136 230.281 273.504 231.145 273.504C232.201 273.504 232.809 272.832 232.809 272C232.809 269.952 228.665 270.64 228.665 267.792C228.665 266.624 229.657 265.616 231.145 265.616C232.233 265.616 233.145 266.144 233.705 266.912L233.001 267.472C232.553 266.8 231.897 266.432 231.161 266.432C230.153 266.432 229.593 267.056 229.593 267.792C229.593 269.888 233.737 269.248 233.737 271.968C233.737 273.36 232.633 274.32 231.161 274.32C229.961 274.32 228.969 273.84 228.265 272.944Z" fill="black"/>
<path d="M656.829 257.134H650.207C648.988 257.134 648 258.122 648 259.341V274.793C648 276.012 648.988 277 650.207 277H665.659C666.878 277 667.866 276.012 667.866 274.793V268.171" stroke="black" stroke-linecap="round" stroke-linejoin="round"/>
<path d="M655.174 266.515L664.003 257.686C664.917 256.771 666.4 256.771 667.314 257.686C668.228 258.6 668.228 260.082 667.314 260.997L658.485 269.826L653.518 271.482L655.174 266.515Z" stroke="black" stroke-linecap="round" stroke-linejoin="round"/>
<path d="M711 260.688L700 273.312L689 260.688" stroke="black" stroke-linecap="round" stroke-linejoin="round"/>
<mask id="path-23-inside-4_418_2664" fill="white">
<path d="M64 316H719V358H64V316Z"/>
</mask>
<path d="M64 316H719V358H64V316Z" fill="white"/>
<path d="M64 316V315.5H63.5V316H64ZM719 316H719.5V315.5H719V316ZM719 358V359H719.5V358H719ZM64 358H63.5V359H64V358ZM64 316.5H719V315.5H64V316.5ZM718.5 316V358H719.5V316H718.5ZM719 357H64V359H719V357ZM64.5 358V316H63.5V358H64.5Z" fill="#EEEEEE" mask="url(#path-23-inside-4_418_2664)"/>
<path d="M75.856 344V332.8H81.552V333.696H76.88V337.856H80.912V338.736H76.88V344H75.856ZM86.8864 335.616C89.4784 335.616 91.2224 337.664 91.2224 339.968C91.2224 342.272 89.4784 344.32 86.8864 344.32C84.3104 344.32 82.5664 342.272 82.5664 339.968C82.5664 337.664 84.3104 335.616 86.8864 335.616ZM86.9024 343.424C88.8064 343.424 90.2144 341.792 90.2144 339.968C90.2144 338.112 88.8064 336.512 86.9024 336.512C84.9344 336.512 83.5424 338.128 83.5424 339.968C83.5424 341.808 84.9344 343.424 86.9024 343.424ZM93.6153 344V335.936H94.5593V337.088C95.2153 336.256 95.9673 335.776 97.0553 335.776C97.2793 335.776 97.5193 335.808 97.7273 335.872V336.784C97.4873 336.72 97.2793 336.672 96.9913 336.672C95.8873 336.672 95.1673 337.216 94.5593 338.224V344H93.6153ZM99.8653 344V335.936H100.809V337.008C101.465 336.16 102.345 335.616 103.529 335.616C104.777 335.616 105.785 336.208 106.249 337.344C106.937 336.288 107.849 335.616 109.241 335.616C111.001 335.616 112.249 336.768 112.249 338.896V344H111.321V338.928C111.321 337.36 110.425 336.512 109.113 336.512C107.993 336.512 107.161 337.072 106.489 338.24C106.521 338.448 106.537 338.672 106.537 338.896V344H105.593V338.928C105.593 337.36 104.713 336.512 103.401 336.512C102.185 336.512 101.353 337.184 100.809 338.208V344H99.8653ZM117.368 344.224C115.8 344.224 114.76 343.376 114.76 342.048C114.76 340.832 115.688 340 117.384 339.712L120.264 339.232V338.48C120.264 337.184 119.352 336.48 118.088 336.48C117.048 336.48 116.2 336.944 115.656 337.712L114.936 337.152C115.624 336.208 116.728 335.616 118.12 335.616C119.976 335.616 121.192 336.704 121.192 338.48V344H120.264V342.832C119.576 343.744 118.488 344.224 117.368 344.224ZM115.72 342.032C115.72 342.816 116.392 343.408 117.48 343.408C118.648 343.408 119.656 342.848 120.264 341.808V339.968L117.592 340.416C116.312 340.64 115.72 341.232 115.72 342.032ZM124.625 341.456V336.784H123.105V335.936H124.625V333.92H125.585V335.936H128.609V336.784H125.585V341.456C125.585 342.928 126.337 343.28 127.425 343.28C127.937 343.28 128.289 343.216 128.609 343.104V343.968C128.241 344.096 127.841 344.16 127.329 344.16C125.681 344.16 124.625 343.424 124.625 341.456ZM131.33 333.392C130.93 333.392 130.594 333.088 130.594 332.672C130.594 332.288 130.93 331.968 131.33 331.968C131.73 331.968 132.05 332.288 132.05 332.672C132.05 333.088 131.73 333.392 131.33 333.392ZM130.85 344V335.936H131.794V344H130.85ZM138.527 335.616C141.119 335.616 142.863 337.664 142.863 339.968C142.863 342.272 141.119 344.32 138.527 344.32C135.951 344.32 134.207 342.272 134.207 339.968C134.207 337.664 135.951 335.616 138.527 335.616ZM138.543 343.424C140.447 343.424 141.855 341.792 141.855 339.968C141.855 338.112 140.447 336.512 138.543 336.512C136.575 336.512 135.183 338.128 135.183 339.968C135.183 341.808 136.575 343.424 138.543 343.424ZM145.256 344V335.936H146.2V337.04C146.904 336.16 147.816 335.616 149.08 335.616C150.92 335.616 152.248 336.832 152.248 339.056V344H151.304V339.088C151.304 337.424 150.36 336.512 148.952 336.512C147.672 336.512 146.824 337.168 146.2 338.208V344H145.256ZM154.28 342.944L154.984 342.368C155.592 343.136 156.296 343.504 157.16 343.504C158.216 343.504 158.824 342.832 158.824 342C158.824 339.952 154.68 340.64 154.68 337.792C154.68 336.624 155.672 335.616 157.16 335.616C158.248 335.616 159.16 336.144 159.72 336.912L159.016 337.472C158.568 336.8 157.912 336.432 157.176 336.432C156.168 336.432 155.608 337.056 155.608 337.792C155.608 339.888 159.752 339.248 159.752 341.968C159.752 343.36 158.648 344.32 157.176 344.32C155.976 344.32 154.984 343.84 154.28 342.944ZM165.546 342.944L166.25 342.368C166.858 343.136 167.562 343.504 168.426 343.504C169.482 343.504 170.09 342.832 170.09 342C170.09 339.952 165.946 340.64 165.946 337.792C165.946 336.624 166.938 335.616 168.426 335.616C169.514 335.616 170.426 336.144 170.986 336.912L170.282 337.472C169.834 336.8 169.178 336.432 168.442 336.432C167.434 336.432 166.874 337.056 166.874 337.792C166.874 339.888 171.018 339.248 171.018 341.968C171.018 343.36 169.914 344.32 168.442 344.32C167.242 344.32 166.25 343.84 165.546 342.944ZM173.939 333.392C173.539 333.392 173.203 333.088 173.203 332.672C173.203 332.288 173.539 331.968 173.939 331.968C174.339 331.968 174.659 332.288 174.659 332.672C174.659 333.088 174.339 333.392 173.939 333.392ZM173.459 344V335.936H174.403V344H173.459ZM177.568 344V335.936H178.512V337.008C179.168 336.16 180.048 335.616 181.232 335.616C182.48 335.616 183.488 336.208 183.952 337.344C184.64 336.288 185.552 335.616 186.944 335.616C188.704 335.616 189.952 336.768 189.952 338.896V344H189.024V338.928C189.024 337.36 188.128 336.512 186.816 336.512C185.696 336.512 184.864 337.072 184.192 338.24C184.224 338.448 184.24 338.672 184.24 338.896V344H183.296V338.928C183.296 337.36 182.416 336.512 181.104 336.512C179.888 336.512 179.056 337.184 178.512 338.208V344H177.568ZM193.423 333.392C193.023 333.392 192.687 333.088 192.687 332.672C192.687 332.288 193.023 331.968 193.423 331.968C193.823 331.968 194.143 332.288 194.143 332.672C194.143 333.088 193.823 333.392 193.423 333.392ZM192.943 344V335.936H193.887V344H192.943ZM197.053 344V332H197.997V344H197.053ZM203.29 344.224C201.722 344.224 200.682 343.376 200.682 342.048C200.682 340.832 201.61 340 203.306 339.712L206.186 339.232V338.48C206.186 337.184 205.274 336.48 204.01 336.48C202.97 336.48 202.122 336.944 201.578 337.712L200.858 337.152C201.546 336.208 202.65 335.616 204.042 335.616C205.898 335.616 207.114 336.704 207.114 338.48V344H206.186V342.832C205.498 343.744 204.41 344.224 203.29 344.224ZM201.642 342.032C201.642 342.816 202.314 343.408 203.402 343.408C204.57 343.408 205.578 342.848 206.186 341.808V339.968L203.514 340.416C202.234 340.64 201.642 341.232 201.642 342.032ZM210.611 333.392C210.211 333.392 209.875 333.088 209.875 332.672C209.875 332.288 210.211 331.968 210.611 331.968C211.011 331.968 211.331 332.288 211.331 332.672C211.331 333.088 211.011 333.392 210.611 333.392ZM210.131 344V335.936H211.075V344H210.131ZM214.24 344V335.936H215.184V337.088C215.84 336.256 216.592 335.776 217.68 335.776C217.904 335.776 218.144 335.808 218.352 335.872V336.784C218.112 336.72 217.904 336.672 217.616 336.672C216.512 336.672 215.792 337.216 215.184 338.224V344H214.24ZM226.92 342.672C226.184 343.68 225 344.32 223.528 344.32C220.888 344.32 219.176 342.32 219.176 339.968C219.176 337.472 220.776 335.616 223.192 335.616C225.352 335.616 226.728 337.152 226.728 339.056C226.728 339.296 226.712 339.536 226.664 339.728H220.152C220.152 339.792 220.152 339.856 220.152 339.92C220.152 341.968 221.544 343.456 223.528 343.456C224.664 343.456 225.608 342.928 226.2 342.096L226.92 342.672ZM223.176 336.448C221.672 336.448 220.552 337.392 220.248 338.976H225.768C225.72 337.568 224.744 336.448 223.176 336.448ZM228.265 342.944L228.969 342.368C229.577 343.136 230.281 343.504 231.145 343.504C232.201 343.504 232.809 342.832 232.809 342C232.809 339.952 228.665 340.64 228.665 337.792C228.665 336.624 229.657 335.616 231.145 335.616C232.233 335.616 233.145 336.144 233.705 336.912L233.001 337.472C232.553 336.8 231.897 336.432 231.161 336.432C230.153 336.432 229.593 337.056 229.593 337.792C229.593 339.888 233.737 339.248 233.737 341.968C233.737 343.36 232.633 344.32 231.161 344.32C229.961 344.32 228.969 343.84 228.265 342.944Z" fill="black"/>
<path d="M656.829 327.134H650.207C648.988 327.134 648 328.122 648 329.341V344.793C648 346.012 648.988 347 650.207 347H665.659C666.878 347 667.866 346.012 667.866 344.793V338.171" stroke="black" stroke-linecap="round" stroke-linejoin="round"/>
<path d="M655.174 336.515L664.003 327.686C664.917 326.771 666.4 326.771 667.314 327.686C668.228 328.6 668.228 330.082 667.314 330.997L658.485 339.826L653.518 341.482L655.174 336.515Z" stroke="black" stroke-linecap="round" stroke-linejoin="round"/>
<path d="M711 330.688L700 343.312L689 330.688" stroke="black" stroke-linecap="round" stroke-linejoin="round"/>
<mask id="path-29-inside-5_418_2664" fill="white">
<path d="M64 386H719V428H64V386Z"/>
</mask>
<path d="M64 386H719V428H64V386Z" fill="white"/>
<path d="M64 386V385.5H63.5V386H64ZM719 386H719.5V385.5H719V386ZM719 428V429H719.5V428H719ZM64 428H63.5V429H64V428ZM64 386.5H719V385.5H64V386.5ZM718.5 386V428H719.5V386H718.5ZM719 427H64V429H719V427ZM64.5 428V386H63.5V428H64.5Z" fill="#EEEEEE" mask="url(#path-29-inside-5_418_2664)"/>
<path d="M75.856 414V402.8H81.552V403.696H76.88V407.856H80.912V408.736H76.88V414H75.856ZM86.8864 405.616C89.4784 405.616 91.2224 407.664 91.2224 409.968C91.2224 412.272 89.4784 414.32 86.8864 414.32C84.3104 414.32 82.5664 412.272 82.5664 409.968C82.5664 407.664 84.3104 405.616 86.8864 405.616ZM86.9024 413.424C88.8064 413.424 90.2144 411.792 90.2144 409.968C90.2144 408.112 88.8064 406.512 86.9024 406.512C84.9344 406.512 83.5424 408.128 83.5424 409.968C83.5424 411.808 84.9344 413.424 86.9024 413.424ZM93.6153 414V405.936H94.5593V407.088C95.2153 406.256 95.9673 405.776 97.0553 405.776C97.2793 405.776 97.5193 405.808 97.7273 405.872V406.784C97.4873 406.72 97.2793 406.672 96.9913 406.672C95.8873 406.672 95.1673 407.216 94.5593 408.224V414H93.6153ZM99.8653 414V405.936H100.809V407.008C101.465 406.16 102.345 405.616 103.529 405.616C104.777 405.616 105.785 406.208 106.249 407.344C106.937 406.288 107.849 405.616 109.241 405.616C111.001 405.616 112.249 406.768 112.249 408.896V414H111.321V408.928C111.321 407.36 110.425 406.512 109.113 406.512C107.993 406.512 107.161 407.072 106.489 408.24C106.521 408.448 106.537 408.672 106.537 408.896V414H105.593V408.928C105.593 407.36 104.713 406.512 103.401 406.512C102.185 406.512 101.353 407.184 100.809 408.208V414H99.8653ZM117.368 414.224C115.8 414.224 114.76 413.376 114.76 412.048C114.76 410.832 115.688 410 117.384 409.712L120.264 409.232V408.48C120.264 407.184 119.352 406.48 118.088 406.48C117.048 406.48 116.2 406.944 115.656 407.712L114.936 407.152C115.624 406.208 116.728 405.616 118.12 405.616C119.976 405.616 121.192 406.704 121.192 408.48V414H120.264V412.832C119.576 413.744 118.488 414.224 117.368 414.224ZM115.72 412.032C115.72 412.816 116.392 413.408 117.48 413.408C118.648 413.408 119.656 412.848 120.264 411.808V409.968L117.592 410.416C116.312 410.64 115.72 411.232 115.72 412.032ZM124.625 411.456V406.784H123.105V405.936H124.625V403.92H125.585V405.936H128.609V406.784H125.585V411.456C125.585 412.928 126.337 413.28 127.425 413.28C127.937 413.28 128.289 413.216 128.609 413.104V413.968C128.241 414.096 127.841 414.16 127.329 414.16C125.681 414.16 124.625 413.424 124.625 411.456ZM131.33 403.392C130.93 403.392 130.594 403.088 130.594 402.672C130.594 402.288 130.93 401.968 131.33 401.968C131.73 401.968 132.05 402.288 132.05 402.672C132.05 403.088 131.73 403.392 131.33 403.392ZM130.85 414V405.936H131.794V414H130.85ZM138.527 405.616C141.119 405.616 142.863 407.664 142.863 409.968C142.863 412.272 141.119 414.32 138.527 414.32C135.951 414.32 134.207 412.272 134.207 409.968C134.207 407.664 135.951 405.616 138.527 405.616ZM138.543 413.424C140.447 413.424 141.855 411.792 141.855 409.968C141.855 408.112 140.447 406.512 138.543 406.512C136.575 406.512 135.183 408.128 135.183 409.968C135.183 411.808 136.575 413.424 138.543 413.424ZM145.256 414V405.936H146.2V407.04C146.904 406.16 147.816 405.616 149.08 405.616C150.92 405.616 152.248 406.832 152.248 409.056V414H151.304V409.088C151.304 407.424 150.36 406.512 148.952 406.512C147.672 406.512 146.824 407.168 146.2 408.208V414H145.256ZM154.28 412.944L154.984 412.368C155.592 413.136 156.296 413.504 157.16 413.504C158.216 413.504 158.824 412.832 158.824 412C158.824 409.952 154.68 410.64 154.68 407.792C154.68 406.624 155.672 405.616 157.16 405.616C158.248 405.616 159.16 406.144 159.72 406.912L159.016 407.472C158.568 406.8 157.912 406.432 157.176 406.432C156.168 406.432 155.608 407.056 155.608 407.792C155.608 409.888 159.752 409.248 159.752 411.968C159.752 413.36 158.648 414.32 157.176 414.32C155.976 414.32 154.984 413.84 154.28 412.944ZM165.546 412.944L166.25 412.368C166.858 413.136 167.562 413.504 168.426 413.504C169.482 413.504 170.09 412.832 170.09 412C170.09 409.952 165.946 410.64 165.946 407.792C165.946 406.624 166.938 405.616 168.426 405.616C169.514 405.616 170.426 406.144 170.986 406.912L170.282 407.472C169.834 406.8 169.178 406.432 168.442 406.432C167.434 406.432 166.874 407.056 166.874 407.792C166.874 409.888 171.018 409.248 171.018 411.968C171.018 413.36 169.914 414.32 168.442 414.32C167.242 414.32 166.25 413.84 165.546 412.944ZM173.939 403.392C173.539 403.392 173.203 403.088 173.203 402.672C173.203 402.288 173.539 401.968 173.939 401.968C174.339 401.968 174.659 402.288 174.659 402.672C174.659 403.088 174.339 403.392 173.939 403.392ZM173.459 414V405.936H174.403V414H173.459ZM177.568 414V405.936H178.512V407.008C179.168 406.16 180.048 405.616 181.232 405.616C182.48 405.616 183.488 406.208 183.952 407.344C184.64 406.288 185.552 405.616 186.944 405.616C188.704 405.616 189.952 406.768 189.952 408.896V414H189.024V408.928C189.024 407.36 188.128 406.512 186.816 406.512C185.696 406.512 184.864 407.072 184.192 408.24C184.224 408.448 184.24 408.672 184.24 408.896V414H183.296V408.928C183.296 407.36 182.416 406.512 181.104 406.512C179.888 406.512 179.056 407.184 178.512 408.208V414H177.568ZM193.423 403.392C193.023 403.392 192.687 403.088 192.687 402.672C192.687 402.288 193.023 401.968 193.423 401.968C193.823 401.968 194.143 402.288 194.143 402.672C194.143 403.088 193.823 403.392 193.423 403.392ZM192.943 414V405.936H193.887V414H192.943ZM197.053 414V402H197.997V414H197.053ZM203.29 414.224C201.722 414.224 200.682 413.376 200.682 412.048C200.682 410.832 201.61 410 203.306 409.712L206.186 409.232V408.48C206.186 407.184 205.274 406.48 204.01 406.48C202.97 406.48 202.122 406.944 201.578 407.712L200.858 407.152C201.546 406.208 202.65 405.616 204.042 405.616C205.898 405.616 207.114 406.704 207.114 408.48V414H206.186V412.832C205.498 413.744 204.41 414.224 203.29 414.224ZM201.642 412.032C201.642 412.816 202.314 413.408 203.402 413.408C204.57 413.408 205.578 412.848 206.186 411.808V409.968L203.514 410.416C202.234 410.64 201.642 411.232 201.642 412.032ZM210.611 403.392C210.211 403.392 209.875 403.088 209.875 402.672C209.875 402.288 210.211 401.968 210.611 401.968C211.011 401.968 211.331 402.288 211.331 402.672C211.331 403.088 211.011 403.392 210.611 403.392ZM210.131 414V405.936H211.075V414H210.131ZM214.24 414V405.936H215.184V407.088C215.84 406.256 216.592 405.776 217.68 405.776C217.904 405.776 218.144 405.808 218.352 405.872V406.784C218.112 406.72 217.904 406.672 217.616 406.672C216.512 406.672 215.792 407.216 215.184 408.224V414H214.24ZM226.92 412.672C226.184 413.68 225 414.32 223.528 414.32C220.888 414.32 219.176 412.32 219.176 409.968C219.176 407.472 220.776 405.616 223.192 405.616C225.352 405.616 226.728 407.152 226.728 409.056C226.728 409.296 226.712 409.536 226.664 409.728H220.152C220.152 409.792 220.152 409.856 220.152 409.92C220.152 411.968 221.544 413.456 223.528 413.456C224.664 413.456 225.608 412.928 226.2 412.096L226.92 412.672ZM223.176 406.448C221.672 406.448 220.552 407.392 220.248 408.976H225.768C225.72 407.568 224.744 406.448 223.176 406.448ZM228.265 412.944L228.969 412.368C229.577 413.136 230.281 413.504 231.145 413.504C232.201 413.504 232.809 412.832 232.809 412C232.809 409.952 228.665 410.64 228.665 407.792C228.665 406.624 229.657 405.616 231.145 405.616C232.233 405.616 233.145 406.144 233.705 406.912L233.001 407.472C232.553 406.8 231.897 406.432 231.161 406.432C230.153 406.432 229.593 407.056 229.593 407.792C229.593 409.888 233.737 409.248 233.737 411.968C233.737 413.36 232.633 414.32 231.161 414.32C229.961 414.32 228.969 413.84 228.265 412.944Z" fill="black"/>
<path d="M656.829 397.134H650.207C648.988 397.134 648 398.122 648 399.341V414.793C648 416.012 648.988 417 650.207 417H665.659C666.878 417 667.866 416.012 667.866 414.793V408.171" stroke="black" stroke-linecap="round" stroke-linejoin="round"/>
<path d="M655.174 406.515L664.003 397.686C664.917 396.771 666.4 396.771 667.314 397.686C668.228 398.6 668.228 400.082 667.314 400.997L658.485 409.826L653.518 411.482L655.174 406.515Z" stroke="black" stroke-linecap="round" stroke-linejoin="round"/>
<path d="M711 400.688L700 413.312L689 400.688" stroke="black" stroke-linecap="round" stroke-linejoin="round"/>
<mask id="path-35-inside-6_418_2664" fill="white">
<path d="M64 456H719V498H64V456Z"/>
</mask>
<path d="M64 456H719V498H64V456Z" fill="white"/>
<path d="M64 456V455.5H63.5V456H64ZM719 456H719.5V455.5H719V456ZM719 498V499H719.5V498H719ZM64 498H63.5V499H64V498ZM64 456.5H719V455.5H64V456.5ZM718.5 456V498H719.5V456H718.5ZM719 497H64V499H719V497ZM64.5 498V456H63.5V498H64.5Z" fill="#EEEEEE" mask="url(#path-35-inside-6_418_2664)"/>
<path d="M75.856 484V472.8H81.552V473.696H76.88V477.856H80.912V478.736H76.88V484H75.856ZM86.8864 475.616C89.4784 475.616 91.2224 477.664 91.2224 479.968C91.2224 482.272 89.4784 484.32 86.8864 484.32C84.3104 484.32 82.5664 482.272 82.5664 479.968C82.5664 477.664 84.3104 475.616 86.8864 475.616ZM86.9024 483.424C88.8064 483.424 90.2144 481.792 90.2144 479.968C90.2144 478.112 88.8064 476.512 86.9024 476.512C84.9344 476.512 83.5424 478.128 83.5424 479.968C83.5424 481.808 84.9344 483.424 86.9024 483.424ZM93.6153 484V475.936H94.5593V477.088C95.2153 476.256 95.9673 475.776 97.0553 475.776C97.2793 475.776 97.5193 475.808 97.7273 475.872V476.784C97.4873 476.72 97.2793 476.672 96.9913 476.672C95.8873 476.672 95.1673 477.216 94.5593 478.224V484H93.6153ZM99.8653 484V475.936H100.809V477.008C101.465 476.16 102.345 475.616 103.529 475.616C104.777 475.616 105.785 476.208 106.249 477.344C106.937 476.288 107.849 475.616 109.241 475.616C111.001 475.616 112.249 476.768 112.249 478.896V484H111.321V478.928C111.321 477.36 110.425 476.512 109.113 476.512C107.993 476.512 107.161 477.072 106.489 478.24C106.521 478.448 106.537 478.672 106.537 478.896V484H105.593V478.928C105.593 477.36 104.713 476.512 103.401 476.512C102.185 476.512 101.353 477.184 100.809 478.208V484H99.8653ZM117.368 484.224C115.8 484.224 114.76 483.376 114.76 482.048C114.76 480.832 115.688 480 117.384 479.712L120.264 479.232V478.48C120.264 477.184 119.352 476.48 118.088 476.48C117.048 476.48 116.2 476.944 115.656 477.712L114.936 477.152C115.624 476.208 116.728 475.616 118.12 475.616C119.976 475.616 121.192 476.704 121.192 478.48V484H120.264V482.832C119.576 483.744 118.488 484.224 117.368 484.224ZM115.72 482.032C115.72 482.816 116.392 483.408 117.48 483.408C118.648 483.408 119.656 482.848 120.264 481.808V479.968L117.592 480.416C116.312 480.64 115.72 481.232 115.72 482.032ZM124.625 481.456V476.784H123.105V475.936H124.625V473.92H125.585V475.936H128.609V476.784H125.585V481.456C125.585 482.928 126.337 483.28 127.425 483.28C127.937 483.28 128.289 483.216 128.609 483.104V483.968C128.241 484.096 127.841 484.16 127.329 484.16C125.681 484.16 124.625 483.424 124.625 481.456ZM131.33 473.392C130.93 473.392 130.594 473.088 130.594 472.672C130.594 472.288 130.93 471.968 131.33 471.968C131.73 471.968 132.05 472.288 132.05 472.672C132.05 473.088 131.73 473.392 131.33 473.392ZM130.85 484V475.936H131.794V484H130.85ZM138.527 475.616C141.119 475.616 142.863 477.664 142.863 479.968C142.863 482.272 141.119 484.32 138.527 484.32C135.951 484.32 134.207 482.272 134.207 479.968C134.207 477.664 135.951 475.616 138.527 475.616ZM138.543 483.424C140.447 483.424 141.855 481.792 141.855 479.968C141.855 478.112 140.447 476.512 138.543 476.512C136.575 476.512 135.183 478.128 135.183 479.968C135.183 481.808 136.575 483.424 138.543 483.424ZM145.256 484V475.936H146.2V477.04C146.904 476.16 147.816 475.616 149.08 475.616C150.92 475.616 152.248 476.832 152.248 479.056V484H151.304V479.088C151.304 477.424 150.36 476.512 148.952 476.512C147.672 476.512 146.824 477.168 146.2 478.208V484H145.256ZM154.28 482.944L154.984 482.368C155.592 483.136 156.296 483.504 157.16 483.504C158.216 483.504 158.824 482.832 158.824 482C158.824 479.952 154.68 480.64 154.68 477.792C154.68 476.624 155.672 475.616 157.16 475.616C158.248 475.616 159.16 476.144 159.72 476.912L159.016 477.472C158.568 476.8 157.912 476.432 157.176 476.432C156.168 476.432 155.608 477.056 155.608 477.792C155.608 479.888 159.752 479.248 159.752 481.968C159.752 483.36 158.648 484.32 157.176 484.32C155.976 484.32 154.984 483.84 154.28 482.944ZM165.546 482.944L166.25 482.368C166.858 483.136 167.562 483.504 168.426 483.504C169.482 483.504 170.09 482.832 170.09 482C170.09 479.952 165.946 480.64 165.946 477.792C165.946 476.624 166.938 475.616 168.426 475.616C169.514 475.616 170.426 476.144 170.986 476.912L170.282 477.472C169.834 476.8 169.178 476.432 168.442 476.432C167.434 476.432 166.874 477.056 166.874 477.792C166.874 479.888 171.018 479.248 171.018 481.968C171.018 483.36 169.914 484.32 168.442 484.32C167.242 484.32 166.25 483.84 165.546 482.944ZM173.939 473.392C173.539 473.392 173.203 473.088 173.203 472.672C173.203 472.288 173.539 471.968 173.939 471.968C174.339 471.968 174.659 472.288 174.659 472.672C174.659 473.088 174.339 473.392 173.939 473.392ZM173.459 484V475.936H174.403V484H173.459ZM177.568 484V475.936H178.512V477.008C179.168 476.16 180.048 475.616 181.232 475.616C182.48 475.616 183.488 476.208 183.952 477.344C184.64 476.288 185.552 475.616 186.944 475.616C188.704 475.616 189.952 476.768 189.952 478.896V484H189.024V478.928C189.024 477.36 188.128 476.512 186.816 476.512C185.696 476.512 184.864 477.072 184.192 478.24C184.224 478.448 184.24 478.672 184.24 478.896V484H183.296V478.928C183.296 477.36 182.416 476.512 181.104 476.512C179.888 476.512 179.056 477.184 178.512 478.208V484H177.568ZM193.423 473.392C193.023 473.392 192.687 473.088 192.687 472.672C192.687 472.288 193.023 471.968 193.423 471.968C193.823 471.968 194.143 472.288 194.143 472.672C194.143 473.088 193.823 473.392 193.423 473.392ZM192.943 484V475.936H193.887V484H192.943ZM197.053 484V472H197.997V484H197.053ZM203.29 484.224C201.722 484.224 200.682 483.376 200.682 482.048C200.682 480.832 201.61 480 203.306 479.712L206.186 479.232V478.48C206.186 477.184 205.274 476.48 204.01 476.48C202.97 476.48 202.122 476.944 201.578 477.712L200.858 477.152C201.546 476.208 202.65 475.616 204.042 475.616C205.898 475.616 207.114 476.704 207.114 478.48V484H206.186V482.832C205.498 483.744 204.41 484.224 203.29 484.224ZM201.642 482.032C201.642 482.816 202.314 483.408 203.402 483.408C204.57 483.408 205.578 482.848 206.186 481.808V479.968L203.514 480.416C202.234 480.64 201.642 481.232 201.642 482.032ZM210.611 473.392C210.211 473.392 209.875 473.088 209.875 472.672C209.875 472.288 210.211 471.968 210.611 471.968C211.011 471.968 211.331 472.288 211.331 472.672C211.331 473.088 211.011 473.392 210.611 473.392ZM210.131 484V475.936H211.075V484H210.131ZM214.24 484V475.936H215.184V477.088C215.84 476.256 216.592 475.776 217.68 475.776C217.904 475.776 218.144 475.808 218.352 475.872V476.784C218.112 476.72 217.904 476.672 217.616 476.672C216.512 476.672 215.792 477.216 215.184 478.224V484H214.24ZM226.92 482.672C226.184 483.68 225 484.32 223.528 484.32C220.888 484.32 219.176 482.32 219.176 479.968C219.176 477.472 220.776 475.616 223.192 475.616C225.352 475.616 226.728 477.152 226.728 479.056C226.728 479.296 226.712 479.536 226.664 479.728H220.152C220.152 479.792 220.152 479.856 220.152 479.92C220.152 481.968 221.544 483.456 223.528 483.456C224.664 483.456 225.608 482.928 226.2 482.096L226.92 482.672ZM223.176 476.448C221.672 476.448 220.552 477.392 220.248 478.976H225.768C225.72 477.568 224.744 476.448 223.176 476.448ZM228.265 482.944L228.969 482.368C229.577 483.136 230.281 483.504 231.145 483.504C232.201 483.504 232.809 482.832 232.809 482C232.809 479.952 228.665 480.64 228.665 477.792C228.665 476.624 229.657 475.616 231.145 475.616C232.233 475.616 233.145 476.144 233.705 476.912L233.001 477.472C232.553 476.8 231.897 476.432 231.161 476.432C230.153 476.432 229.593 477.056 229.593 477.792C229.593 479.888 233.737 479.248 233.737 481.968C233.737 483.36 232.633 484.32 231.161 484.32C229.961 484.32 228.969 483.84 228.265 482.944Z" fill="black"/>
<path d="M656.829 467.134H650.207C648.988 467.134 648 468.122 648 469.341V484.793C648 486.012 648.988 487 650.207 487H665.659C666.878 487 667.866 486.012 667.866 484.793V478.171" stroke="black" stroke-linecap="round" stroke-linejoin="round"/>
<path d="M655.174 476.515L664.003 467.686C664.917 466.771 666.4 466.771 667.314 467.686C668.228 468.6 668.228 470.082 667.314 470.997L658.485 479.826L653.518 481.482L655.174 476.515Z" stroke="black" stroke-linecap="round" stroke-linejoin="round"/>
<path d="M711 470.688L700 483.312L689 470.688" stroke="black" stroke-linecap="round" stroke-linejoin="round"/>
<mask id="path-41-inside-7_418_2664" fill="white">
<path d="M64 526H719V568H64V526Z"/>
</mask>
<path d="M64 526H719V568H64V526Z" fill="white"/>
<path d="M64 526V525.5H63.5V526H64ZM719 526H719.5V525.5H719V526ZM719 568V569H719.5V568H719ZM64 568H63.5V569H64V568ZM64 526.5H719V525.5H64V526.5ZM718.5 526V568H719.5V526H718.5ZM719 567H64V569H719V567ZM64.5 568V526H63.5V568H64.5Z" fill="#EEEEEE" mask="url(#path-41-inside-7_418_2664)"/>
<path d="M75.856 554V542.8H81.552V543.696H76.88V547.856H80.912V548.736H76.88V554H75.856ZM86.8864 545.616C89.4784 545.616 91.2224 547.664 91.2224 549.968C91.2224 552.272 89.4784 554.32 86.8864 554.32C84.3104 554.32 82.5664 552.272 82.5664 549.968C82.5664 547.664 84.3104 545.616 86.8864 545.616ZM86.9024 553.424C88.8064 553.424 90.2144 551.792 90.2144 549.968C90.2144 548.112 88.8064 546.512 86.9024 546.512C84.9344 546.512 83.5424 548.128 83.5424 549.968C83.5424 551.808 84.9344 553.424 86.9024 553.424ZM93.6153 554V545.936H94.5593V547.088C95.2153 546.256 95.9673 545.776 97.0553 545.776C97.2793 545.776 97.5193 545.808 97.7273 545.872V546.784C97.4873 546.72 97.2793 546.672 96.9913 546.672C95.8873 546.672 95.1673 547.216 94.5593 548.224V554H93.6153ZM99.8653 554V545.936H100.809V547.008C101.465 546.16 102.345 545.616 103.529 545.616C104.777 545.616 105.785 546.208 106.249 547.344C106.937 546.288 107.849 545.616 109.241 545.616C111.001 545.616 112.249 546.768 112.249 548.896V554H111.321V548.928C111.321 547.36 110.425 546.512 109.113 546.512C107.993 546.512 107.161 547.072 106.489 548.24C106.521 548.448 106.537 548.672 106.537 548.896V554H105.593V548.928C105.593 547.36 104.713 546.512 103.401 546.512C102.185 546.512 101.353 547.184 100.809 548.208V554H99.8653ZM117.368 554.224C115.8 554.224 114.76 553.376 114.76 552.048C114.76 550.832 115.688 550 117.384 549.712L120.264 549.232V548.48C120.264 547.184 119.352 546.48 118.088 546.48C117.048 546.48 116.2 546.944 115.656 547.712L114.936 547.152C115.624 546.208 116.728 545.616 118.12 545.616C119.976 545.616 121.192 546.704 121.192 548.48V554H120.264V552.832C119.576 553.744 118.488 554.224 117.368 554.224ZM115.72 552.032C115.72 552.816 116.392 553.408 117.48 553.408C118.648 553.408 119.656 552.848 120.264 551.808V549.968L117.592 550.416C116.312 550.64 115.72 551.232 115.72 552.032ZM124.625 551.456V546.784H123.105V545.936H124.625V543.92H125.585V545.936H128.609V546.784H125.585V551.456C125.585 552.928 126.337 553.28 127.425 553.28C127.937 553.28 128.289 553.216 128.609 553.104V553.968C128.241 554.096 127.841 554.16 127.329 554.16C125.681 554.16 124.625 553.424 124.625 551.456ZM131.33 543.392C130.93 543.392 130.594 543.088 130.594 542.672C130.594 542.288 130.93 541.968 131.33 541.968C131.73 541.968 132.05 542.288 132.05 542.672C132.05 543.088 131.73 543.392 131.33 543.392ZM130.85 554V545.936H131.794V554H130.85ZM138.527 545.616C141.119 545.616 142.863 547.664 142.863 549.968C142.863 552.272 141.119 554.32 138.527 554.32C135.951 554.32 134.207 552.272 134.207 549.968C134.207 547.664 135.951 545.616 138.527 545.616ZM138.543 553.424C140.447 553.424 141.855 551.792 141.855 549.968C141.855 548.112 140.447 546.512 138.543 546.512C136.575 546.512 135.183 548.128 135.183 549.968C135.183 551.808 136.575 553.424 138.543 553.424ZM145.256 554V545.936H146.2V547.04C146.904 546.16 147.816 545.616 149.08 545.616C150.92 545.616 152.248 546.832 152.248 549.056V554H151.304V549.088C151.304 547.424 150.36 546.512 148.952 546.512C147.672 546.512 146.824 547.168 146.2 548.208V554H145.256ZM154.28 552.944L154.984 552.368C155.592 553.136 156.296 553.504 157.16 553.504C158.216 553.504 158.824 552.832 158.824 552C158.824 549.952 154.68 550.64 154.68 547.792C154.68 546.624 155.672 545.616 157.16 545.616C158.248 545.616 159.16 546.144 159.72 546.912L159.016 547.472C158.568 546.8 157.912 546.432 157.176 546.432C156.168 546.432 155.608 547.056 155.608 547.792C155.608 549.888 159.752 549.248 159.752 551.968C159.752 553.36 158.648 554.32 157.176 554.32C155.976 554.32 154.984 553.84 154.28 552.944ZM165.546 552.944L166.25 552.368C166.858 553.136 167.562 553.504 168.426 553.504C169.482 553.504 170.09 552.832 170.09 552C170.09 549.952 165.946 550.64 165.946 547.792C165.946 546.624 166.938 545.616 168.426 545.616C169.514 545.616 170.426 546.144 170.986 546.912L170.282 547.472C169.834 546.8 169.178 546.432 168.442 546.432C167.434 546.432 166.874 547.056 166.874 547.792C166.874 549.888 171.018 549.248 171.018 551.968C171.018 553.36 169.914 554.32 168.442 554.32C167.242 554.32 166.25 553.84 165.546 552.944ZM173.939 543.392C173.539 543.392 173.203 543.088 173.203 542.672C173.203 542.288 173.539 541.968 173.939 541.968C174.339 541.968 174.659 542.288 174.659 542.672C174.659 543.088 174.339 543.392 173.939 543.392ZM173.459 554V545.936H174.403V554H173.459ZM177.568 554V545.936H178.512V547.008C179.168 546.16 180.048 545.616 181.232 545.616C182.48 545.616 183.488 546.208 183.952 547.344C184.64 546.288 185.552 545.616 186.944 545.616C188.704 545.616 189.952 546.768 189.952 548.896V554H189.024V548.928C189.024 547.36 188.128 546.512 186.816 546.512C185.696 546.512 184.864 547.072 184.192 548.24C184.224 548.448 184.24 548.672 184.24 548.896V554H183.296V548.928C183.296 547.36 182.416 546.512 181.104 546.512C179.888 546.512 179.056 547.184 178.512 548.208V554H177.568ZM193.423 543.392C193.023 543.392 192.687 543.088 192.687 542.672C192.687 542.288 193.023 541.968 193.423 541.968C193.823 541.968 194.143 542.288 194.143 542.672C194.143 543.088 193.823 543.392 193.423 543.392ZM192.943 554V545.936H193.887V554H192.943ZM197.053 554V542H197.997V554H197.053ZM203.29 554.224C201.722 554.224 200.682 553.376 200.682 552.048C200.682 550.832 201.61 550 203.306 549.712L206.186 549.232V548.48C206.186 547.184 205.274 546.48 204.01 546.48C202.97 546.48 202.122 546.944 201.578 547.712L200.858 547.152C201.546 546.208 202.65 545.616 204.042 545.616C205.898 545.616 207.114 546.704 207.114 548.48V554H206.186V552.832C205.498 553.744 204.41 554.224 203.29 554.224ZM201.642 552.032C201.642 552.816 202.314 553.408 203.402 553.408C204.57 553.408 205.578 552.848 206.186 551.808V549.968L203.514 550.416C202.234 550.64 201.642 551.232 201.642 552.032ZM210.611 543.392C210.211 543.392 209.875 543.088 209.875 542.672C209.875 542.288 210.211 541.968 210.611 541.968C211.011 541.968 211.331 542.288 211.331 542.672C211.331 543.088 211.011 543.392 210.611 543.392ZM210.131 554V545.936H211.075V554H210.131ZM214.24 554V545.936H215.184V547.088C215.84 546.256 216.592 545.776 217.68 545.776C217.904 545.776 218.144 545.808 218.352 545.872V546.784C218.112 546.72 217.904 546.672 217.616 546.672C216.512 546.672 215.792 547.216 215.184 548.224V554H214.24ZM226.92 552.672C226.184 553.68 225 554.32 223.528 554.32C220.888 554.32 219.176 552.32 219.176 549.968C219.176 547.472 220.776 545.616 223.192 545.616C225.352 545.616 226.728 547.152 226.728 549.056C226.728 549.296 226.712 549.536 226.664 549.728H220.152C220.152 549.792 220.152 549.856 220.152 549.92C220.152 551.968 221.544 553.456 223.528 553.456C224.664 553.456 225.608 552.928 226.2 552.096L226.92 552.672ZM223.176 546.448C221.672 546.448 220.552 547.392 220.248 548.976H225.768C225.72 547.568 224.744 546.448 223.176 546.448ZM228.265 552.944L228.969 552.368C229.577 553.136 230.281 553.504 231.145 553.504C232.201 553.504 232.809 552.832 232.809 552C232.809 549.952 228.665 550.64 228.665 547.792C228.665 546.624 229.657 545.616 231.145 545.616C232.233 545.616 233.145 546.144 233.705 546.912L233.001 547.472C232.553 546.8 231.897 546.432 231.161 546.432C230.153 546.432 229.593 547.056 229.593 547.792C229.593 549.888 233.737 549.248 233.737 551.968C233.737 553.36 232.633 554.32 231.161 554.32C229.961 554.32 228.969 553.84 228.265 552.944Z" fill="black"/>
<path d="M656.829 537.134H650.207C648.988 537.134 648 538.122 648 539.341V554.793C648 556.012 648.988 557 650.207 557H665.659C666.878 557 667.866 556.012 667.866 554.793V548.171" stroke="black" stroke-linecap="round" stroke-linejoin="round"/>
<path d="M655.174 546.515L664.003 537.686C664.917 536.771 666.4 536.771 667.314 537.686C668.228 538.6 668.228 540.082 667.314 540.997L658.485 549.826L653.518 551.482L655.174 546.515Z" stroke="black" stroke-linecap="round" stroke-linejoin="round"/>
<path d="M711 540.688L700 553.312L689 540.688" stroke="black" stroke-linecap="round" stroke-linejoin="round"/>
<mask id="path-47-inside-8_418_2664" fill="white">
<path d="M64 596H719V638H64V596Z"/>
</mask>
<path d="M64 596H719V638H64V596Z" fill="white"/>
<path d="M64 596V595.5H63.5V596H64ZM719 596H719.5V595.5H719V596ZM719 638V639H719.5V638H719ZM64 638H63.5V639H64V638ZM64 596.5H719V595.5H64V596.5ZM718.5 596V638H719.5V596H718.5ZM719 637H64V639H719V637ZM64.5 638V596H63.5V638H64.5Z" fill="#EEEEEE" mask="url(#path-47-inside-8_418_2664)"/>
<path d="M75.856 624V612.8H81.552V613.696H76.88V617.856H80.912V618.736H76.88V624H75.856ZM86.8864 615.616C89.4784 615.616 91.2224 617.664 91.2224 619.968C91.2224 622.272 89.4784 624.32 86.8864 624.32C84.3104 624.32 82.5664 622.272 82.5664 619.968C82.5664 617.664 84.3104 615.616 86.8864 615.616ZM86.9024 623.424C88.8064 623.424 90.2144 621.792 90.2144 619.968C90.2144 618.112 88.8064 616.512 86.9024 616.512C84.9344 616.512 83.5424 618.128 83.5424 619.968C83.5424 621.808 84.9344 623.424 86.9024 623.424ZM93.6153 624V615.936H94.5593V617.088C95.2153 616.256 95.9673 615.776 97.0553 615.776C97.2793 615.776 97.5193 615.808 97.7273 615.872V616.784C97.4873 616.72 97.2793 616.672 96.9913 616.672C95.8873 616.672 95.1673 617.216 94.5593 618.224V624H93.6153ZM99.8653 624V615.936H100.809V617.008C101.465 616.16 102.345 615.616 103.529 615.616C104.777 615.616 105.785 616.208 106.249 617.344C106.937 616.288 107.849 615.616 109.241 615.616C111.001 615.616 112.249 616.768 112.249 618.896V624H111.321V618.928C111.321 617.36 110.425 616.512 109.113 616.512C107.993 616.512 107.161 617.072 106.489 618.24C106.521 618.448 106.537 618.672 106.537 618.896V624H105.593V618.928C105.593 617.36 104.713 616.512 103.401 616.512C102.185 616.512 101.353 617.184 100.809 618.208V624H99.8653ZM117.368 624.224C115.8 624.224 114.76 623.376 114.76 622.048C114.76 620.832 115.688 620 117.384 619.712L120.264 619.232V618.48C120.264 617.184 119.352 616.48 118.088 616.48C117.048 616.48 116.2 616.944 115.656 617.712L114.936 617.152C115.624 616.208 116.728 615.616 118.12 615.616C119.976 615.616 121.192 616.704 121.192 618.48V624H120.264V622.832C119.576 623.744 118.488 624.224 117.368 624.224ZM115.72 622.032C115.72 622.816 116.392 623.408 117.48 623.408C118.648 623.408 119.656 622.848 120.264 621.808V619.968L117.592 620.416C116.312 620.64 115.72 621.232 115.72 622.032ZM124.625 621.456V616.784H123.105V615.936H124.625V613.92H125.585V615.936H128.609V616.784H125.585V621.456C125.585 622.928 126.337 623.28 127.425 623.28C127.937 623.28 128.289 623.216 128.609 623.104V623.968C128.241 624.096 127.841 624.16 127.329 624.16C125.681 624.16 124.625 623.424 124.625 621.456ZM131.33 613.392C130.93 613.392 130.594 613.088 130.594 612.672C130.594 612.288 130.93 611.968 131.33 611.968C131.73 611.968 132.05 612.288 132.05 612.672C132.05 613.088 131.73 613.392 131.33 613.392ZM130.85 624V615.936H131.794V624H130.85ZM138.527 615.616C141.119 615.616 142.863 617.664 142.863 619.968C142.863 622.272 141.119 624.32 138.527 624.32C135.951 624.32 134.207 622.272 134.207 619.968C134.207 617.664 135.951 615.616 138.527 615.616ZM138.543 623.424C140.447 623.424 141.855 621.792 141.855 619.968C141.855 618.112 140.447 616.512 138.543 616.512C136.575 616.512 135.183 618.128 135.183 619.968C135.183 621.808 136.575 623.424 138.543 623.424ZM145.256 624V615.936H146.2V617.04C146.904 616.16 147.816 615.616 149.08 615.616C150.92 615.616 152.248 616.832 152.248 619.056V624H151.304V619.088C151.304 617.424 150.36 616.512 148.952 616.512C147.672 616.512 146.824 617.168 146.2 618.208V624H145.256ZM154.28 622.944L154.984 622.368C155.592 623.136 156.296 623.504 157.16 623.504C158.216 623.504 158.824 622.832 158.824 622C158.824 619.952 154.68 620.64 154.68 617.792C154.68 616.624 155.672 615.616 157.16 615.616C158.248 615.616 159.16 616.144 159.72 616.912L159.016 617.472C158.568 616.8 157.912 616.432 157.176 616.432C156.168 616.432 155.608 617.056 155.608 617.792C155.608 619.888 159.752 619.248 159.752 621.968C159.752 623.36 158.648 624.32 157.176 624.32C155.976 624.32 154.984 623.84 154.28 622.944ZM165.546 622.944L166.25 622.368C166.858 623.136 167.562 623.504 168.426 623.504C169.482 623.504 170.09 622.832 170.09 622C170.09 619.952 165.946 620.64 165.946 617.792C165.946 616.624 166.938 615.616 168.426 615.616C169.514 615.616 170.426 616.144 170.986 616.912L170.282 617.472C169.834 616.8 169.178 616.432 168.442 616.432C167.434 616.432 166.874 617.056 166.874 617.792C166.874 619.888 171.018 619.248 171.018 621.968C171.018 623.36 169.914 624.32 168.442 624.32C167.242 624.32 166.25 623.84 165.546 622.944ZM173.939 613.392C173.539 613.392 173.203 613.088 173.203 612.672C173.203 612.288 173.539 611.968 173.939 611.968C174.339 611.968 174.659 612.288 174.659 612.672C174.659 613.088 174.339 613.392 173.939 613.392ZM173.459 624V615.936H174.403V624H173.459ZM177.568 624V615.936H178.512V617.008C179.168 616.16 180.048 615.616 181.232 615.616C182.48 615.616 183.488 616.208 183.952 617.344C184.64 616.288 185.552 615.616 186.944 615.616C188.704 615.616 189.952 616.768 189.952 618.896V624H189.024V618.928C189.024 617.36 188.128 616.512 186.816 616.512C185.696 616.512 184.864 617.072 184.192 618.24C184.224 618.448 184.24 618.672 184.24 618.896V624H183.296V618.928C183.296 617.36 182.416 616.512 181.104 616.512C179.888 616.512 179.056 617.184 178.512 618.208V624H177.568ZM193.423 613.392C193.023 613.392 192.687 613.088 192.687 612.672C192.687 612.288 193.023 611.968 193.423 611.968C193.823 611.968 194.143 612.288 194.143 612.672C194.143 613.088 193.823 613.392 193.423 613.392ZM192.943 624V615.936H193.887V624H192.943ZM197.053 624V612H197.997V624H197.053ZM203.29 624.224C201.722 624.224 200.682 623.376 200.682 622.048C200.682 620.832 201.61 620 203.306 619.712L206.186 619.232V618.48C206.186 617.184 205.274 616.48 204.01 616.48C202.97 616.48 202.122 616.944 201.578 617.712L200.858 617.152C201.546 616.208 202.65 615.616 204.042 615.616C205.898 615.616 207.114 616.704 207.114 618.48V624H206.186V622.832C205.498 623.744 204.41 624.224 203.29 624.224ZM201.642 622.032C201.642 622.816 202.314 623.408 203.402 623.408C204.57 623.408 205.578 622.848 206.186 621.808V619.968L203.514 620.416C202.234 620.64 201.642 621.232 201.642 622.032ZM210.611 613.392C210.211 613.392 209.875 613.088 209.875 612.672C209.875 612.288 210.211 611.968 210.611 611.968C211.011 611.968 211.331 612.288 211.331 612.672C211.331 613.088 211.011 613.392 210.611 613.392ZM210.131 624V615.936H211.075V624H210.131ZM214.24 624V615.936H215.184V617.088C215.84 616.256 216.592 615.776 217.68 615.776C217.904 615.776 218.144 615.808 218.352 615.872V616.784C218.112 616.72 217.904 616.672 217.616 616.672C216.512 616.672 215.792 617.216 215.184 618.224V624H214.24ZM226.92 622.672C226.184 623.68 225 624.32 223.528 624.32C220.888 624.32 219.176 622.32 219.176 619.968C219.176 617.472 220.776 615.616 223.192 615.616C225.352 615.616 226.728 617.152 226.728 619.056C226.728 619.296 226.712 619.536 226.664 619.728H220.152C220.152 619.792 220.152 619.856 220.152 619.92C220.152 621.968 221.544 623.456 223.528 623.456C224.664 623.456 225.608 622.928 226.2 622.096L226.92 622.672ZM223.176 616.448C221.672 616.448 220.552 617.392 220.248 618.976H225.768C225.72 617.568 224.744 616.448 223.176 616.448ZM228.265 622.944L228.969 622.368C229.577 623.136 230.281 623.504 231.145 623.504C232.201 623.504 232.809 622.832 232.809 622C232.809 619.952 228.665 620.64 228.665 617.792C228.665 616.624 229.657 615.616 231.145 615.616C232.233 615.616 233.145 616.144 233.705 616.912L233.001 617.472C232.553 616.8 231.897 616.432 231.161 616.432C230.153 616.432 229.593 617.056 229.593 617.792C229.593 619.888 233.737 619.248 233.737 621.968C233.737 623.36 232.633 624.32 231.161 624.32C229.961 624.32 228.969 623.84 228.265 622.944Z" fill="black"/>
<path d="M656.829 607.134H650.207C648.988 607.134 648 608.122 648 609.341V624.793C648 626.012 648.988 627 650.207 627H665.659C666.878 627 667.866 626.012 667.866 624.793V618.171" stroke="black" stroke-linecap="round" stroke-linejoin="round"/>
<path d="M655.174 616.515L664.003 607.686C664.917 606.771 666.4 606.771 667.314 607.686C668.228 608.6 668.228 610.082 667.314 610.997L658.485 619.826L653.518 621.482L655.174 616.515Z" stroke="black" stroke-linecap="round" stroke-linejoin="round"/>
<path d="M711 610.688L700 623.312L689 610.688" stroke="black" stroke-linecap="round" stroke-linejoin="round"/>
<mask id="path-53-inside-9_418_2664" fill="white">
<path d="M64 666H719V708H64V666Z"/>
</mask>
<path d="M64 666H719V708H64V666Z" fill="white"/>
<path d="M64 666V665.5H63.5V666H64ZM719 666H719.5V665.5H719V666ZM719 708V709H719.5V708H719ZM64 708H63.5V709H64V708ZM64 666.5H719V665.5H64V666.5ZM718.5 666V708H719.5V666H718.5ZM719 707H64V709H719V707ZM64.5 708V666H63.5V708H64.5Z" fill="#EEEEEE" mask="url(#path-53-inside-9_418_2664)"/>
<path d="M75.856 694V682.8H81.552V683.696H76.88V687.856H80.912V688.736H76.88V694H75.856ZM86.8864 685.616C89.4784 685.616 91.2224 687.664 91.2224 689.968C91.2224 692.272 89.4784 694.32 86.8864 694.32C84.3104 694.32 82.5664 692.272 82.5664 689.968C82.5664 687.664 84.3104 685.616 86.8864 685.616ZM86.9024 693.424C88.8064 693.424 90.2144 691.792 90.2144 689.968C90.2144 688.112 88.8064 686.512 86.9024 686.512C84.9344 686.512 83.5424 688.128 83.5424 689.968C83.5424 691.808 84.9344 693.424 86.9024 693.424ZM93.6153 694V685.936H94.5593V687.088C95.2153 686.256 95.9673 685.776 97.0553 685.776C97.2793 685.776 97.5193 685.808 97.7273 685.872V686.784C97.4873 686.72 97.2793 686.672 96.9913 686.672C95.8873 686.672 95.1673 687.216 94.5593 688.224V694H93.6153ZM99.8653 694V685.936H100.809V687.008C101.465 686.16 102.345 685.616 103.529 685.616C104.777 685.616 105.785 686.208 106.249 687.344C106.937 686.288 107.849 685.616 109.241 685.616C111.001 685.616 112.249 686.768 112.249 688.896V694H111.321V688.928C111.321 687.36 110.425 686.512 109.113 686.512C107.993 686.512 107.161 687.072 106.489 688.24C106.521 688.448 106.537 688.672 106.537 688.896V694H105.593V688.928C105.593 687.36 104.713 686.512 103.401 686.512C102.185 686.512 101.353 687.184 100.809 688.208V694H99.8653ZM117.368 694.224C115.8 694.224 114.76 693.376 114.76 692.048C114.76 690.832 115.688 690 117.384 689.712L120.264 689.232V688.48C120.264 687.184 119.352 686.48 118.088 686.48C117.048 686.48 116.2 686.944 115.656 687.712L114.936 687.152C115.624 686.208 116.728 685.616 118.12 685.616C119.976 685.616 121.192 686.704 121.192 688.48V694H120.264V692.832C119.576 693.744 118.488 694.224 117.368 694.224ZM115.72 692.032C115.72 692.816 116.392 693.408 117.48 693.408C118.648 693.408 119.656 692.848 120.264 691.808V689.968L117.592 690.416C116.312 690.64 115.72 691.232 115.72 692.032ZM124.625 691.456V686.784H123.105V685.936H124.625V683.92H125.585V685.936H128.609V686.784H125.585V691.456C125.585 692.928 126.337 693.28 127.425 693.28C127.937 693.28 128.289 693.216 128.609 693.104V693.968C128.241 694.096 127.841 694.16 127.329 694.16C125.681 694.16 124.625 693.424 124.625 691.456ZM131.33 683.392C130.93 683.392 130.594 683.088 130.594 682.672C130.594 682.288 130.93 681.968 131.33 681.968C131.73 681.968 132.05 682.288 132.05 682.672C132.05 683.088 131.73 683.392 131.33 683.392ZM130.85 694V685.936H131.794V694H130.85ZM138.527 685.616C141.119 685.616 142.863 687.664 142.863 689.968C142.863 692.272 141.119 694.32 138.527 694.32C135.951 694.32 134.207 692.272 134.207 689.968C134.207 687.664 135.951 685.616 138.527 685.616ZM138.543 693.424C140.447 693.424 141.855 691.792 141.855 689.968C141.855 688.112 140.447 686.512 138.543 686.512C136.575 686.512 135.183 688.128 135.183 689.968C135.183 691.808 136.575 693.424 138.543 693.424ZM145.256 694V685.936H146.2V687.04C146.904 686.16 147.816 685.616 149.08 685.616C150.92 685.616 152.248 686.832 152.248 689.056V694H151.304V689.088C151.304 687.424 150.36 686.512 148.952 686.512C147.672 686.512 146.824 687.168 146.2 688.208V694H145.256ZM154.28 692.944L154.984 692.368C155.592 693.136 156.296 693.504 157.16 693.504C158.216 693.504 158.824 692.832 158.824 692C158.824 689.952 154.68 690.64 154.68 687.792C154.68 686.624 155.672 685.616 157.16 685.616C158.248 685.616 159.16 686.144 159.72 686.912L159.016 687.472C158.568 686.8 157.912 686.432 157.176 686.432C156.168 686.432 155.608 687.056 155.608 687.792C155.608 689.888 159.752 689.248 159.752 691.968C159.752 693.36 158.648 694.32 157.176 694.32C155.976 694.32 154.984 693.84 154.28 692.944ZM165.546 692.944L166.25 692.368C166.858 693.136 167.562 693.504 168.426 693.504C169.482 693.504 170.09 692.832 170.09 692C170.09 689.952 165.946 690.64 165.946 687.792C165.946 686.624 166.938 685.616 168.426 685.616C169.514 685.616 170.426 686.144 170.986 686.912L170.282 687.472C169.834 686.8 169.178 686.432 168.442 686.432C167.434 686.432 166.874 687.056 166.874 687.792C166.874 689.888 171.018 689.248 171.018 691.968C171.018 693.36 169.914 694.32 168.442 694.32C167.242 694.32 166.25 693.84 165.546 692.944ZM173.939 683.392C173.539 683.392 173.203 683.088 173.203 682.672C173.203 682.288 173.539 681.968 173.939 681.968C174.339 681.968 174.659 682.288 174.659 682.672C174.659 683.088 174.339 683.392 173.939 683.392ZM173.459 694V685.936H174.403V694H173.459ZM177.568 694V685.936H178.512V687.008C179.168 686.16 180.048 685.616 181.232 685.616C182.48 685.616 183.488 686.208 183.952 687.344C184.64 686.288 185.552 685.616 186.944 685.616C188.704 685.616 189.952 686.768 189.952 688.896V694H189.024V688.928C189.024 687.36 188.128 686.512 186.816 686.512C185.696 686.512 184.864 687.072 184.192 688.24C184.224 688.448 184.24 688.672 184.24 688.896V694H183.296V688.928C183.296 687.36 182.416 686.512 181.104 686.512C179.888 686.512 179.056 687.184 178.512 688.208V694H177.568ZM193.423 683.392C193.023 683.392 192.687 683.088 192.687 682.672C192.687 682.288 193.023 681.968 193.423 681.968C193.823 681.968 194.143 682.288 194.143 682.672C194.143 683.088 193.823 683.392 193.423 683.392ZM192.943 694V685.936H193.887V694H192.943ZM197.053 694V682H197.997V694H197.053ZM203.29 694.224C201.722 694.224 200.682 693.376 200.682 692.048C200.682 690.832 201.61 690 203.306 689.712L206.186 689.232V688.48C206.186 687.184 205.274 686.48 204.01 686.48C202.97 686.48 202.122 686.944 201.578 687.712L200.858 687.152C201.546 686.208 202.65 685.616 204.042 685.616C205.898 685.616 207.114 686.704 207.114 688.48V694H206.186V692.832C205.498 693.744 204.41 694.224 203.29 694.224ZM201.642 692.032C201.642 692.816 202.314 693.408 203.402 693.408C204.57 693.408 205.578 692.848 206.186 691.808V689.968L203.514 690.416C202.234 690.64 201.642 691.232 201.642 692.032ZM210.611 683.392C210.211 683.392 209.875 683.088 209.875 682.672C209.875 682.288 210.211 681.968 210.611 681.968C211.011 681.968 211.331 682.288 211.331 682.672C211.331 683.088 211.011 683.392 210.611 683.392ZM210.131 694V685.936H211.075V694H210.131ZM214.24 694V685.936H215.184V687.088C215.84 686.256 216.592 685.776 217.68 685.776C217.904 685.776 218.144 685.808 218.352 685.872V686.784C218.112 686.72 217.904 686.672 217.616 686.672C216.512 686.672 215.792 687.216 215.184 688.224V694H214.24ZM226.92 692.672C226.184 693.68 225 694.32 223.528 694.32C220.888 694.32 219.176 692.32 219.176 689.968C219.176 687.472 220.776 685.616 223.192 685.616C225.352 685.616 226.728 687.152 226.728 689.056C226.728 689.296 226.712 689.536 226.664 689.728H220.152C220.152 689.792 220.152 689.856 220.152 689.92C220.152 691.968 221.544 693.456 223.528 693.456C224.664 693.456 225.608 692.928 226.2 692.096L226.92 692.672ZM223.176 686.448C221.672 686.448 220.552 687.392 220.248 688.976H225.768C225.72 687.568 224.744 686.448 223.176 686.448ZM228.265 692.944L228.969 692.368C229.577 693.136 230.281 693.504 231.145 693.504C232.201 693.504 232.809 692.832 232.809 692C232.809 689.952 228.665 690.64 228.665 687.792C228.665 686.624 229.657 685.616 231.145 685.616C232.233 685.616 233.145 686.144 233.705 686.912L233.001 687.472C232.553 686.8 231.897 686.432 231.161 686.432C230.153 686.432 229.593 687.056 229.593 687.792C229.593 689.888 233.737 689.248 233.737 691.968C233.737 693.36 232.633 694.32 231.161 694.32C229.961 694.32 228.969 693.84 228.265 692.944Z" fill="black"/>
<path d="M656.829 677.134H650.207C648.988 677.134 648 678.122 648 679.341V694.793C648 696.012 648.988 697 650.207 697H665.659C666.878 697 667.866 696.012 667.866 694.793V688.171" stroke="black" stroke-linecap="round" stroke-linejoin="round"/>
<path d="M655.174 686.515L664.003 677.686C664.917 676.771 666.4 676.771 667.314 677.686C668.228 678.6 668.228 680.082 667.314 680.997L658.485 689.826L653.518 691.482L655.174 686.515Z" stroke="black" stroke-linecap="round" stroke-linejoin="round"/>
<path d="M711 680.688L700 693.312L689 680.688" stroke="black" stroke-linecap="round" stroke-linejoin="round"/>
<mask id="path-59-inside-10_418_2664" fill="white">
<path d="M64 736H719V778H64V736Z"/>
</mask>
<path d="M64 736H719V778H64V736Z" fill="white"/>
<path d="M64 736V735.5H63.5V736H64ZM719 736H719.5V735.5H719V736ZM719 778V779H719.5V778H719ZM64 778H63.5V779H64V778ZM64 736.5H719V735.5H64V736.5ZM718.5 736V778H719.5V736H718.5ZM719 777H64V779H719V777ZM64.5 778V736H63.5V778H64.5Z" fill="#EEEEEE" mask="url(#path-59-inside-10_418_2664)"/>
<path d="M75.856 764V752.8H81.552V753.696H76.88V757.856H80.912V758.736H76.88V764H75.856ZM86.8864 755.616C89.4784 755.616 91.2224 757.664 91.2224 759.968C91.2224 762.272 89.4784 764.32 86.8864 764.32C84.3104 764.32 82.5664 762.272 82.5664 759.968C82.5664 757.664 84.3104 755.616 86.8864 755.616ZM86.9024 763.424C88.8064 763.424 90.2144 761.792 90.2144 759.968C90.2144 758.112 88.8064 756.512 86.9024 756.512C84.9344 756.512 83.5424 758.128 83.5424 759.968C83.5424 761.808 84.9344 763.424 86.9024 763.424ZM93.6153 764V755.936H94.5593V757.088C95.2153 756.256 95.9673 755.776 97.0553 755.776C97.2793 755.776 97.5193 755.808 97.7273 755.872V756.784C97.4873 756.72 97.2793 756.672 96.9913 756.672C95.8873 756.672 95.1673 757.216 94.5593 758.224V764H93.6153ZM99.8653 764V755.936H100.809V757.008C101.465 756.16 102.345 755.616 103.529 755.616C104.777 755.616 105.785 756.208 106.249 757.344C106.937 756.288 107.849 755.616 109.241 755.616C111.001 755.616 112.249 756.768 112.249 758.896V764H111.321V758.928C111.321 757.36 110.425 756.512 109.113 756.512C107.993 756.512 107.161 757.072 106.489 758.24C106.521 758.448 106.537 758.672 106.537 758.896V764H105.593V758.928C105.593 757.36 104.713 756.512 103.401 756.512C102.185 756.512 101.353 757.184 100.809 758.208V764H99.8653ZM117.368 764.224C115.8 764.224 114.76 763.376 114.76 762.048C114.76 760.832 115.688 760 117.384 759.712L120.264 759.232V758.48C120.264 757.184 119.352 756.48 118.088 756.48C117.048 756.48 116.2 756.944 115.656 757.712L114.936 757.152C115.624 756.208 116.728 755.616 118.12 755.616C119.976 755.616 121.192 756.704 121.192 758.48V764H120.264V762.832C119.576 763.744 118.488 764.224 117.368 764.224ZM115.72 762.032C115.72 762.816 116.392 763.408 117.48 763.408C118.648 763.408 119.656 762.848 120.264 761.808V759.968L117.592 760.416C116.312 760.64 115.72 761.232 115.72 762.032ZM124.625 761.456V756.784H123.105V755.936H124.625V753.92H125.585V755.936H128.609V756.784H125.585V761.456C125.585 762.928 126.337 763.28 127.425 763.28C127.937 763.28 128.289 763.216 128.609 763.104V763.968C128.241 764.096 127.841 764.16 127.329 764.16C125.681 764.16 124.625 763.424 124.625 761.456ZM131.33 753.392C130.93 753.392 130.594 753.088 130.594 752.672C130.594 752.288 130.93 751.968 131.33 751.968C131.73 751.968 132.05 752.288 132.05 752.672C132.05 753.088 131.73 753.392 131.33 753.392ZM130.85 764V755.936H131.794V764H130.85ZM138.527 755.616C141.119 755.616 142.863 757.664 142.863 759.968C142.863 762.272 141.119 764.32 138.527 764.32C135.951 764.32 134.207 762.272 134.207 759.968C134.207 757.664 135.951 755.616 138.527 755.616ZM138.543 763.424C140.447 763.424 141.855 761.792 141.855 759.968C141.855 758.112 140.447 756.512 138.543 756.512C136.575 756.512 135.183 758.128 135.183 759.968C135.183 761.808 136.575 763.424 138.543 763.424ZM145.256 764V755.936H146.2V757.04C146.904 756.16 147.816 755.616 149.08 755.616C150.92 755.616 152.248 756.832 152.248 759.056V764H151.304V759.088C151.304 757.424 150.36 756.512 148.952 756.512C147.672 756.512 146.824 757.168 146.2 758.208V764H145.256ZM154.28 762.944L154.984 762.368C155.592 763.136 156.296 763.504 157.16 763.504C158.216 763.504 158.824 762.832 158.824 762C158.824 759.952 154.68 760.64 154.68 757.792C154.68 756.624 155.672 755.616 157.16 755.616C158.248 755.616 159.16 756.144 159.72 756.912L159.016 757.472C158.568 756.8 157.912 756.432 157.176 756.432C156.168 756.432 155.608 757.056 155.608 757.792C155.608 759.888 159.752 759.248 159.752 761.968C159.752 763.36 158.648 764.32 157.176 764.32C155.976 764.32 154.984 763.84 154.28 762.944ZM165.546 762.944L166.25 762.368C166.858 763.136 167.562 763.504 168.426 763.504C169.482 763.504 170.09 762.832 170.09 762C170.09 759.952 165.946 760.64 165.946 757.792C165.946 756.624 166.938 755.616 168.426 755.616C169.514 755.616 170.426 756.144 170.986 756.912L170.282 757.472C169.834 756.8 169.178 756.432 168.442 756.432C167.434 756.432 166.874 757.056 166.874 757.792C166.874 759.888 171.018 759.248 171.018 761.968C171.018 763.36 169.914 764.32 168.442 764.32C167.242 764.32 166.25 763.84 165.546 762.944ZM173.939 753.392C173.539 753.392 173.203 753.088 173.203 752.672C173.203 752.288 173.539 751.968 173.939 751.968C174.339 751.968 174.659 752.288 174.659 752.672C174.659 753.088 174.339 753.392 173.939 753.392ZM173.459 764V755.936H174.403V764H173.459ZM177.568 764V755.936H178.512V757.008C179.168 756.16 180.048 755.616 181.232 755.616C182.48 755.616 183.488 756.208 183.952 757.344C184.64 756.288 185.552 755.616 186.944 755.616C188.704 755.616 189.952 756.768 189.952 758.896V764H189.024V758.928C189.024 757.36 188.128 756.512 186.816 756.512C185.696 756.512 184.864 757.072 184.192 758.24C184.224 758.448 184.24 758.672 184.24 758.896V764H183.296V758.928C183.296 757.36 182.416 756.512 181.104 756.512C179.888 756.512 179.056 757.184 178.512 758.208V764H177.568ZM193.423 753.392C193.023 753.392 192.687 753.088 192.687 752.672C192.687 752.288 193.023 751.968 193.423 751.968C193.823 751.968 194.143 752.288 194.143 752.672C194.143 753.088 193.823 753.392 193.423 753.392ZM192.943 764V755.936H193.887V764H192.943ZM197.053 764V752H197.997V764H197.053ZM203.29 764.224C201.722 764.224 200.682 763.376 200.682 762.048C200.682 760.832 201.61 760 203.306 759.712L206.186 759.232V758.48C206.186 757.184 205.274 756.48 204.01 756.48C202.97 756.48 202.122 756.944 201.578 757.712L200.858 757.152C201.546 756.208 202.65 755.616 204.042 755.616C205.898 755.616 207.114 756.704 207.114 758.48V764H206.186V762.832C205.498 763.744 204.41 764.224 203.29 764.224ZM201.642 762.032C201.642 762.816 202.314 763.408 203.402 763.408C204.57 763.408 205.578 762.848 206.186 761.808V759.968L203.514 760.416C202.234 760.64 201.642 761.232 201.642 762.032ZM210.611 753.392C210.211 753.392 209.875 753.088 209.875 752.672C209.875 752.288 210.211 751.968 210.611 751.968C211.011 751.968 211.331 752.288 211.331 752.672C211.331 753.088 211.011 753.392 210.611 753.392ZM210.131 764V755.936H211.075V764H210.131ZM214.24 764V755.936H215.184V757.088C215.84 756.256 216.592 755.776 217.68 755.776C217.904 755.776 218.144 755.808 218.352 755.872V756.784C218.112 756.72 217.904 756.672 217.616 756.672C216.512 756.672 215.792 757.216 215.184 758.224V764H214.24ZM226.92 762.672C226.184 763.68 225 764.32 223.528 764.32C220.888 764.32 219.176 762.32 219.176 759.968C219.176 757.472 220.776 755.616 223.192 755.616C225.352 755.616 226.728 757.152 226.728 759.056C226.728 759.296 226.712 759.536 226.664 759.728H220.152C220.152 759.792 220.152 759.856 220.152 759.92C220.152 761.968 221.544 763.456 223.528 763.456C224.664 763.456 225.608 762.928 226.2 762.096L226.92 762.672ZM223.176 756.448C221.672 756.448 220.552 757.392 220.248 758.976H225.768C225.72 757.568 224.744 756.448 223.176 756.448ZM228.265 762.944L228.969 762.368C229.577 763.136 230.281 763.504 231.145 763.504C232.201 763.504 232.809 762.832 232.809 762C232.809 759.952 228.665 760.64 228.665 757.792C228.665 756.624 229.657 755.616 231.145 755.616C232.233 755.616 233.145 756.144 233.705 756.912L233.001 757.472C232.553 756.8 231.897 756.432 231.161 756.432C230.153 756.432 229.593 757.056 229.593 757.792C229.593 759.888 233.737 759.248 233.737 761.968C233.737 763.36 232.633 764.32 231.161 764.32C229.961 764.32 228.969 763.84 228.265 762.944Z" fill="black"/>
<path d="M656.829 747.134H650.207C648.988 747.134 648 748.122 648 749.341V764.793C648 766.012 648.988 767 650.207 767H665.659C666.878 767 667.866 766.012 667.866 764.793V758.171" stroke="black" stroke-linecap="round" stroke-linejoin="round"/>
<path d="M655.174 756.515L664.003 747.686C664.917 746.771 666.4 746.771 667.314 747.686C668.228 748.6 668.228 750.082 667.314 750.997L658.485 759.826L653.518 761.482L655.174 756.515Z" stroke="black" stroke-linecap="round" stroke-linejoin="round"/>
<path d="M711 750.688L700 763.312L689 750.688" stroke="black" stroke-linecap="round" stroke-linejoin="round"/>
<defs>
<clipPath id="clip0_418_2664">
<rect width="1114" height="126" fill="white"/>
</clipPath>
</defs>
</svg>
