<svg width="1043" height="842" viewBox="0 0 1043 842" fill="none" xmlns="http://www.w3.org/2000/svg">
<g clip-path="url(#clip0_395_2101)">
<g clip-path="url(#clip1_395_2101)">
<mask id="path-1-inside-1_395_2101" fill="white">
<path d="M0 24H348V264H0V24Z"/>
</mask>
<path d="M0 24H348V264H0V24Z" fill="#ECECFE"/>
<path d="M0 24V23H-1V24H0ZM348 24H349V23H348V24ZM348 264V269H349V264H348ZM0 264H-1V269H0V264ZM0 25H348V23H0V25ZM347 24V264H349V24H347ZM348 259H0V269H348V259ZM1 264V24H-1V264H1Z" fill="#000091" mask="url(#path-1-inside-1_395_2101)"/>
<g clip-path="url(#clip2_395_2101)">
<g clip-path="url(#clip3_395_2101)">
<g clip-path="url(#clip4_395_2101)">
<path d="M191.546 96.9145C191.731 96.2494 192.42 95.8604 193.085 96.0456C196.01 96.8599 198.252 99.1536 198.845 101.998C198.986 102.673 198.553 103.336 197.877 103.477C197.201 103.618 196.539 103.184 196.398 102.508C196 100.6 194.458 99.023 192.415 98.454C191.75 98.2688 191.361 97.5795 191.546 96.9145Z" fill="#E1000F"/>
<path fill-rule="evenodd" clip-rule="evenodd" d="M179 103.5C179 96.606 184.606 91 191.5 91C198.394 91 204 96.606 204 103.5C204 106.708 202.786 109.637 200.794 111.852L208.163 124.615C209.198 126.409 208.584 128.702 206.79 129.738C205.061 130.736 202.866 130.201 201.783 128.553L201.668 128.365L194.34 115.675C193.428 115.887 192.477 116 191.5 116C184.606 116 179 110.394 179 103.5ZM196.748 114.845L203.832 127.115C204.178 127.713 204.942 127.918 205.54 127.573C206.095 127.252 206.312 126.57 206.063 125.996L205.998 125.865L198.899 113.57C198.23 114.063 197.509 114.491 196.748 114.845ZM201.5 103.5C201.5 97.9868 197.013 93.5 191.5 93.5C185.987 93.5 181.5 97.9868 181.5 103.5C181.5 109.013 185.987 113.5 191.5 113.5C197.013 113.5 201.5 109.013 201.5 103.5Z" fill="#E1000F"/>
<path d="M210.242 68.3542C210.169 67.7326 209.641 67.25 209 67.25H141.5L141.354 67.2584C140.733 67.3306 140.25 67.859 140.25 68.5V126L140.258 126.146C140.331 126.767 140.859 127.25 141.5 127.25H194L194.146 127.242C194.767 127.169 195.25 126.641 195.25 126L195.242 125.854C195.169 125.233 194.641 124.75 194 124.75H142.75V79.75H189L189.146 79.7416C189.767 79.6694 190.25 79.141 190.25 78.5C190.25 77.8096 189.69 77.25 189 77.25H142.75V69.75H207.75V77.25H196.5L196.354 77.2584C195.733 77.3306 195.25 77.859 195.25 78.5C195.25 79.1904 195.81 79.75 196.5 79.75H207.75V116L207.758 116.146C207.831 116.767 208.359 117.25 209 117.25C209.69 117.25 210.25 116.69 210.25 116V68.5L210.242 68.3542Z" fill="#000091"/>
<path d="M146.5 74.75C145.811 74.75 145.25 74.1892 145.25 73.5C145.25 72.8107 145.811 72.25 146.5 72.25C147.189 72.25 147.75 72.8107 147.75 73.5C147.75 74.1892 147.189 74.75 146.5 74.75Z" fill="#000091"/>
<path d="M150.25 73.5C150.25 74.1892 150.811 74.75 151.5 74.75C152.189 74.75 152.75 74.1892 152.75 73.5C152.75 72.8107 152.189 72.25 151.5 72.25C150.811 72.25 150.25 72.8107 150.25 73.5Z" fill="#000091"/>
<path d="M156.5 74.75C155.811 74.75 155.25 74.1892 155.25 73.5C155.25 72.8107 155.811 72.25 156.5 72.25C157.189 72.25 157.75 72.8107 157.75 73.5C157.75 74.1892 157.189 74.75 156.5 74.75Z" fill="#000091"/>
<path d="M204 72.25C204.69 72.25 205.25 72.8096 205.25 73.5C205.25 74.141 204.767 74.6694 204.146 74.7416L204 74.75H166.5C165.81 74.75 165.25 74.1904 165.25 73.5C165.25 72.859 165.732 72.3306 166.354 72.2584L166.5 72.25H204Z" fill="#000091"/>
<path d="M175.25 88.5C175.25 87.8096 174.69 87.25 174 87.25H151.5L151.354 87.2584C150.733 87.3306 150.25 87.859 150.25 88.5C150.25 89.1904 150.81 89.75 151.5 89.75H174L174.146 89.7416C174.767 89.6694 175.25 89.141 175.25 88.5Z" fill="#000091"/>
<path d="M169 94.75C169.69 94.75 170.25 95.3096 170.25 96C170.25 96.641 169.768 97.1694 169.146 97.2416L169 97.25H151.5C150.81 97.25 150.25 96.6904 150.25 96C150.25 95.359 150.733 94.8306 151.354 94.7584L151.5 94.75H169Z" fill="#000091"/>
<path d="M167.75 103.5C167.75 102.81 167.19 102.25 166.5 102.25H151.5L151.354 102.258C150.733 102.331 150.25 102.859 150.25 103.5C150.25 104.19 150.81 104.75 151.5 104.75H166.5L166.646 104.742C167.268 104.669 167.75 104.141 167.75 103.5Z" fill="#000091"/>
</g>
</g>
</g>
<path d="M128.523 179V167.8H132.923C136.475 167.8 138.875 170.376 138.875 173.4C138.875 176.424 136.475 179 132.923 179H128.523ZM132.955 169.864H130.795V176.936H132.955C135.035 176.936 136.539 175.384 136.539 173.4C136.539 171.4 135.035 169.864 132.955 169.864ZM145.529 169.656H143.577L145.241 167H147.449L145.529 169.656ZM148.265 177.688C147.513 178.696 146.265 179.32 144.745 179.32C141.881 179.32 140.265 177.32 140.265 174.968C140.265 172.584 141.769 170.616 144.409 170.616C146.649 170.616 148.121 172.136 148.121 174.248C148.121 174.696 148.057 175.112 147.993 175.384H142.345C142.537 176.888 143.465 177.496 144.729 177.496C145.609 177.496 146.377 177.112 146.809 176.536L148.265 177.688ZM144.361 172.28C143.321 172.28 142.633 172.856 142.409 173.912H146.121C146.089 173.096 145.497 172.28 144.361 172.28ZM153.916 177.4C154.716 177.4 155.356 177.032 155.74 176.472L157.324 177.688C156.572 178.68 155.388 179.32 153.916 179.32C151.132 179.32 149.468 177.32 149.468 174.968C149.468 172.616 151.132 170.616 153.916 170.616C155.388 170.616 156.572 171.256 157.324 172.248L155.74 173.464C155.356 172.904 154.716 172.536 153.884 172.536C152.556 172.536 151.58 173.56 151.58 174.968C151.58 176.392 152.556 177.4 153.916 177.4ZM162.368 170.616C164.992 170.616 166.784 172.552 166.784 174.968C166.784 177.384 164.992 179.32 162.368 179.32C159.744 179.32 157.952 177.384 157.952 174.968C157.952 172.552 159.744 170.616 162.368 170.616ZM162.4 177.4C163.696 177.4 164.672 176.36 164.672 174.968C164.672 173.56 163.696 172.536 162.4 172.536C161.056 172.536 160.064 173.56 160.064 174.968C160.064 176.376 161.056 177.4 162.4 177.4ZM173.95 175.512V170.936H175.998V175.416C175.998 177.832 174.59 179.32 172.222 179.32C169.854 179.32 168.462 177.832 168.462 175.416V170.936H170.51V175.512C170.51 176.68 171.118 177.4 172.238 177.4C173.342 177.4 173.95 176.68 173.95 175.512ZM177.22 170.936H179.396L181.492 176.696L183.572 170.936H185.764L182.82 179H180.148L177.22 170.936ZM187.044 179V170.936H189.076V171.736C189.604 171.192 190.292 170.776 191.204 170.776C191.476 170.776 191.716 170.824 191.908 170.888V172.888C191.652 172.824 191.38 172.776 191.012 172.776C190.02 172.776 189.38 173.32 189.076 173.832V179H187.044ZM194.568 169.528C193.848 169.528 193.24 168.92 193.24 168.2C193.24 167.48 193.848 166.872 194.568 166.872C195.288 166.872 195.88 167.48 195.88 168.2C195.88 168.92 195.288 169.528 194.568 169.528ZM193.544 179V170.936H195.576V179H193.544ZM198.013 179V170.936H200.045V171.736C200.573 171.192 201.261 170.776 202.173 170.776C202.445 170.776 202.685 170.824 202.877 170.888V172.888C202.621 172.824 202.349 172.776 201.981 172.776C200.989 172.776 200.349 173.32 200.045 173.832V179H198.013ZM208.825 179V167H210.857V179H208.825ZM215.566 179.24C213.95 179.24 212.846 178.312 212.846 176.824C212.846 175.608 213.79 174.696 215.518 174.408L217.982 173.992V173.784C217.982 172.936 217.342 172.392 216.414 172.392C215.63 172.392 215.022 172.76 214.59 173.352L213.102 172.216C213.822 171.224 215.006 170.616 216.478 170.616C218.814 170.616 220.014 172.008 220.014 173.784V179H217.982V178.216C217.47 178.84 216.51 179.24 215.566 179.24ZM214.862 176.728C214.862 177.272 215.294 177.624 215.982 177.624C216.91 177.624 217.582 177.192 217.982 176.552V175.416L216.062 175.736C215.214 175.88 214.862 176.232 214.862 176.728ZM111.115 194.936H112.619V194.088C112.619 192.376 113.755 191 115.771 191C116.507 191 117.131 191.176 117.643 191.448L116.779 193.144C116.539 192.968 116.219 192.824 115.803 192.824C115.115 192.824 114.667 193.304 114.667 194.04V194.936H117.131V196.76H114.667V203H112.619V196.76H111.115V194.936ZM122.056 194.616C124.68 194.616 126.472 196.552 126.472 198.968C126.472 201.384 124.68 203.32 122.056 203.32C119.432 203.32 117.64 201.384 117.64 198.968C117.64 196.552 119.432 194.616 122.056 194.616ZM122.088 201.4C123.384 201.4 124.36 200.36 124.36 198.968C124.36 197.56 123.384 196.536 122.088 196.536C120.744 196.536 119.752 197.56 119.752 198.968C119.752 200.376 120.744 201.4 122.088 201.4ZM128.325 203V194.936H130.357V195.736C130.885 195.192 131.573 194.776 132.485 194.776C132.757 194.776 132.997 194.824 133.189 194.888V196.888C132.933 196.824 132.661 196.776 132.293 196.776C131.301 196.776 130.661 197.32 130.357 197.832V203H128.325ZM134.825 203V194.936H136.857V195.544C137.401 195.016 138.089 194.616 139.081 194.616C140.105 194.616 141.001 195.064 141.529 195.928C142.105 195.224 142.873 194.616 144.233 194.616C145.897 194.616 147.209 195.768 147.209 198.04V203H145.161V198.12C145.161 197.144 144.633 196.536 143.721 196.536C142.841 196.536 142.361 197.144 142.041 197.688C142.057 197.8 142.057 197.912 142.057 198.04V203H140.009V198.12C140.009 197.144 139.481 196.536 138.569 196.536C137.641 196.536 137.161 197.224 136.857 197.736V203H134.825ZM151.8 203.24C150.184 203.24 149.08 202.312 149.08 200.824C149.08 199.608 150.024 198.696 151.752 198.408L154.216 197.992V197.784C154.216 196.936 153.576 196.392 152.648 196.392C151.864 196.392 151.256 196.76 150.824 197.352L149.336 196.216C150.056 195.224 151.24 194.616 152.712 194.616C155.048 194.616 156.248 196.008 156.248 197.784V203H154.216V202.216C153.704 202.84 152.744 203.24 151.8 203.24ZM151.096 200.728C151.096 201.272 151.528 201.624 152.216 201.624C153.144 201.624 153.816 201.192 154.216 200.552V199.416L152.296 199.736C151.448 199.88 151.096 200.232 151.096 200.728ZM159.087 200.056V196.76H157.583V194.936H159.087V192.92H161.135V194.936H163.599V196.76H161.135V200.056C161.135 200.952 161.615 201.304 162.415 201.304C162.975 201.304 163.343 201.24 163.615 201.128V202.904C163.215 203.08 162.735 203.16 162.063 203.16C160.047 203.16 159.087 202.024 159.087 200.056ZM166.443 193.528C165.723 193.528 165.115 192.92 165.115 192.2C165.115 191.48 165.723 190.872 166.443 190.872C167.163 190.872 167.755 191.48 167.755 192.2C167.755 192.92 167.163 193.528 166.443 193.528ZM165.419 203V194.936H167.451V203H165.419ZM173.728 194.616C176.352 194.616 178.144 196.552 178.144 198.968C178.144 201.384 176.352 203.32 173.728 203.32C171.104 203.32 169.312 201.384 169.312 198.968C169.312 196.552 171.104 194.616 173.728 194.616ZM173.76 201.4C175.056 201.4 176.032 200.36 176.032 198.968C176.032 197.56 175.056 196.536 173.76 196.536C172.416 196.536 171.424 197.56 171.424 198.968C171.424 200.376 172.416 201.4 173.76 201.4ZM179.997 203V194.936H182.029V195.576C182.589 195.032 183.341 194.616 184.413 194.616C186.157 194.616 187.549 195.816 187.549 198.2V203H185.501V198.28C185.501 197.208 184.893 196.536 183.901 196.536C182.877 196.536 182.333 197.224 182.029 197.736V203H179.997ZM201.593 201.688C200.841 202.696 199.593 203.32 198.073 203.32C195.209 203.32 193.593 201.32 193.593 198.968C193.593 196.584 195.097 194.616 197.737 194.616C199.977 194.616 201.449 196.136 201.449 198.248C201.449 198.696 201.385 199.112 201.321 199.384H195.673C195.865 200.888 196.793 201.496 198.057 201.496C198.937 201.496 199.705 201.112 200.137 200.536L201.593 201.688ZM197.689 196.28C196.649 196.28 195.961 196.856 195.737 197.912H199.449C199.417 197.096 198.825 196.28 197.689 196.28ZM203.931 200.056V196.76H202.427V194.936H203.931V192.92H205.979V194.936H208.443V196.76H205.979V200.056C205.979 200.952 206.459 201.304 207.259 201.304C207.819 201.304 208.187 201.24 208.459 201.128V202.904C208.059 203.08 207.579 203.16 206.907 203.16C204.891 203.16 203.931 202.024 203.931 200.056ZM213.871 201.832L215.215 200.616C215.711 201.24 216.303 201.688 217.071 201.688C217.727 201.688 218.063 201.304 218.063 200.824C218.063 199.416 214.207 199.944 214.207 197.112C214.207 195.688 215.407 194.616 217.087 194.616C218.319 194.616 219.439 195.208 220.015 195.992L218.671 197.176C218.255 196.664 217.727 196.248 217.103 196.248C216.463 196.248 216.159 196.6 216.159 197.016C216.159 198.392 220.015 197.912 220.015 200.696C219.983 202.392 218.623 203.32 217.103 203.32C215.663 203.32 214.639 202.744 213.871 201.832ZM229.281 201.688C228.529 202.696 227.281 203.32 225.761 203.32C222.897 203.32 221.281 201.32 221.281 198.968C221.281 196.584 222.785 194.616 225.425 194.616C227.665 194.616 229.137 196.136 229.137 198.248C229.137 198.696 229.073 199.112 229.009 199.384H223.361C223.553 200.888 224.481 201.496 225.745 201.496C226.625 201.496 227.393 201.112 227.825 200.536L229.281 201.688ZM225.377 196.28C224.337 196.28 223.649 196.856 223.425 197.912H227.137C227.105 197.096 226.513 196.28 225.377 196.28ZM230.309 201.832L231.653 200.616C232.149 201.24 232.741 201.688 233.509 201.688C234.165 201.688 234.501 201.304 234.501 200.824C234.501 199.416 230.645 199.944 230.645 197.112C230.645 195.688 231.845 194.616 233.525 194.616C234.757 194.616 235.877 195.208 236.453 195.992L235.109 197.176C234.693 196.664 234.165 196.248 233.541 196.248C232.901 196.248 232.597 196.6 232.597 197.016C232.597 198.392 236.453 197.912 236.453 200.696C236.421 202.392 235.061 203.32 233.541 203.32C232.101 203.32 231.077 202.744 230.309 201.832ZM117.15 225.4C117.95 225.4 118.59 225.032 118.974 224.472L120.558 225.688C119.806 226.68 118.622 227.32 117.15 227.32C114.366 227.32 112.702 225.32 112.702 222.968C112.702 220.616 114.366 218.616 117.15 218.616C118.622 218.616 119.806 219.256 120.558 220.248L118.974 221.464C118.59 220.904 117.95 220.536 117.118 220.536C115.79 220.536 114.814 221.56 114.814 222.968C114.814 224.392 115.79 225.4 117.15 225.4ZM124.207 227.24C122.591 227.24 121.487 226.312 121.487 224.824C121.487 223.608 122.431 222.696 124.159 222.408L126.623 221.992V221.784C126.623 220.936 125.983 220.392 125.055 220.392C124.271 220.392 123.663 220.76 123.231 221.352L121.743 220.216C122.463 219.224 123.647 218.616 125.119 218.616C127.455 218.616 128.655 220.008 128.655 221.784V227H126.623V226.216C126.111 226.84 125.151 227.24 124.207 227.24ZM123.503 224.728C123.503 225.272 123.935 225.624 124.623 225.624C125.551 225.624 126.223 225.192 126.623 224.552V223.416L124.703 223.736C123.855 223.88 123.503 224.232 123.503 224.728ZM130.982 227V218.936H133.014V219.736C133.542 219.192 134.23 218.776 135.142 218.776C135.414 218.776 135.654 218.824 135.846 218.888V220.888C135.59 220.824 135.318 220.776 134.95 220.776C133.958 220.776 133.318 221.32 133.014 221.832V227H130.982ZM139.363 227.24C137.747 227.24 136.643 226.312 136.643 224.824C136.643 223.608 137.587 222.696 139.315 222.408L141.779 221.992V221.784C141.779 220.936 141.139 220.392 140.211 220.392C139.427 220.392 138.819 220.76 138.387 221.352L136.899 220.216C137.619 219.224 138.803 218.616 140.275 218.616C142.611 218.616 143.811 220.008 143.811 221.784V227H141.779V226.216C141.267 226.84 140.307 227.24 139.363 227.24ZM138.659 224.728C138.659 225.272 139.091 225.624 139.779 225.624C140.707 225.624 141.379 225.192 141.779 224.552V223.416L139.859 223.736C139.011 223.88 138.659 224.232 138.659 224.728ZM150.01 225.4C150.81 225.4 151.45 225.032 151.834 224.472L153.418 225.688C152.666 226.68 151.482 227.32 150.01 227.32C147.226 227.32 145.562 225.32 145.562 222.968C145.562 220.616 147.226 218.616 150.01 218.616C151.482 218.616 152.666 219.256 153.418 220.248L151.834 221.464C151.45 220.904 150.81 220.536 149.978 220.536C148.65 220.536 147.674 221.56 147.674 222.968C147.674 224.392 148.65 225.4 150.01 225.4ZM155.525 224.056V220.76H154.021V218.936H155.525V216.92H157.573V218.936H160.037V220.76H157.573V224.056C157.573 224.952 158.053 225.304 158.853 225.304C159.413 225.304 159.781 225.24 160.053 225.128V226.904C159.653 227.08 159.173 227.16 158.501 227.16C156.485 227.16 155.525 226.024 155.525 224.056ZM166.388 217.656H164.436L166.1 215H168.308L166.388 217.656ZM169.124 225.688C168.372 226.696 167.124 227.32 165.604 227.32C162.74 227.32 161.124 225.32 161.124 222.968C161.124 220.584 162.628 218.616 165.268 218.616C167.508 218.616 168.98 220.136 168.98 222.248C168.98 222.696 168.916 223.112 168.852 223.384H163.204C163.396 224.888 164.324 225.496 165.588 225.496C166.468 225.496 167.236 225.112 167.668 224.536L169.124 225.688ZM165.22 220.28C164.18 220.28 163.492 220.856 163.268 221.912H166.98C166.948 221.096 166.356 220.28 165.22 220.28ZM170.966 227V218.936H172.998V219.736C173.526 219.192 174.214 218.776 175.126 218.776C175.398 218.776 175.638 218.824 175.83 218.888V220.888C175.574 220.824 175.302 220.776 174.934 220.776C173.942 220.776 173.302 221.32 172.998 221.832V227H170.966ZM178.49 217.528C177.77 217.528 177.162 216.92 177.162 216.2C177.162 215.48 177.77 214.872 178.49 214.872C179.21 214.872 179.802 215.48 179.802 216.2C179.802 216.92 179.21 217.528 178.49 217.528ZM177.466 227V218.936H179.498V227H177.466ZM181.121 225.832L182.465 224.616C182.961 225.24 183.553 225.688 184.321 225.688C184.977 225.688 185.313 225.304 185.313 224.824C185.313 223.416 181.457 223.944 181.457 221.112C181.457 219.688 182.657 218.616 184.337 218.616C185.569 218.616 186.689 219.208 187.265 219.992L185.921 221.176C185.505 220.664 184.977 220.248 184.353 220.248C183.713 220.248 183.409 220.6 183.409 221.016C183.409 222.392 187.265 221.912 187.265 224.696C187.233 226.392 185.873 227.32 184.353 227.32C182.913 227.32 181.889 226.744 181.121 225.832ZM189.775 224.056V220.76H188.271V218.936H189.775V216.92H191.823V218.936H194.287V220.76H191.823V224.056C191.823 224.952 192.303 225.304 193.103 225.304C193.663 225.304 194.031 225.24 194.303 225.128V226.904C193.903 227.08 193.423 227.16 192.751 227.16C190.735 227.16 189.775 226.024 189.775 224.056ZM197.131 217.528C196.411 217.528 195.803 216.92 195.803 216.2C195.803 215.48 196.411 214.872 197.131 214.872C197.851 214.872 198.443 215.48 198.443 216.2C198.443 216.92 197.851 217.528 197.131 217.528ZM196.107 227V218.936H198.139V227H196.107ZM199.999 222.968C199.999 220.616 201.535 218.616 204.095 218.616C205.183 218.616 205.967 218.968 206.591 219.592V218.936H208.639V230.936H206.591V226.344C205.967 226.968 205.183 227.32 204.095 227.32C201.535 227.32 199.999 225.32 199.999 222.968ZM202.111 222.968C202.111 224.376 202.991 225.4 204.367 225.4C205.311 225.4 206.095 224.984 206.591 224.248V221.688C206.047 220.936 205.279 220.536 204.367 220.536C202.991 220.536 202.111 221.56 202.111 222.968ZM216.387 223.512V218.936H218.435V223.416C218.435 225.832 217.027 227.32 214.659 227.32C212.291 227.32 210.899 225.832 210.899 223.416V218.936H212.947V223.512C212.947 224.68 213.555 225.4 214.675 225.4C215.779 225.4 216.387 224.68 216.387 223.512ZM228.109 225.688C227.357 226.696 226.109 227.32 224.589 227.32C221.725 227.32 220.109 225.32 220.109 222.968C220.109 220.584 221.613 218.616 224.253 218.616C226.493 218.616 227.965 220.136 227.965 222.248C227.965 222.696 227.901 223.112 227.837 223.384H222.189C222.381 224.888 223.309 225.496 224.573 225.496C225.453 225.496 226.221 225.112 226.653 224.536L228.109 225.688ZM224.205 220.28C223.165 220.28 222.477 220.856 222.253 221.912H225.965C225.933 221.096 225.341 220.28 224.205 220.28ZM229.137 225.832L230.481 224.616C230.977 225.24 231.569 225.688 232.337 225.688C232.993 225.688 233.329 225.304 233.329 224.824C233.329 223.416 229.473 223.944 229.473 221.112C229.473 219.688 230.673 218.616 232.353 218.616C233.585 218.616 234.705 219.208 235.281 219.992L233.937 221.176C233.521 220.664 232.993 220.248 232.369 220.248C231.729 220.248 231.425 220.6 231.425 221.016C231.425 222.392 235.281 221.912 235.281 224.696C235.249 226.392 233.889 227.32 232.369 227.32C230.929 227.32 229.905 226.744 229.137 225.832Z" fill="#000091"/>
<mask id="path-14-inside-2_395_2101" fill="white">
<path d="M347.785 24H695.785V264H347.785V24Z"/>
</mask>
<path d="M347.785 24H695.785V264H347.785V24Z" fill="white"/>
<path d="M347.785 24V23H346.785V24H347.785ZM695.785 24H696.785V23H695.785V24ZM695.785 264V269H696.785V264H695.785ZM347.785 264H346.785V269H347.785V264ZM347.785 25H695.785V23H347.785V25ZM694.785 24V264H696.785V24H694.785ZM695.785 259H347.785V269H695.785V259ZM348.785 264V24H346.785V264H348.785Z" fill="#ECECFE" mask="url(#path-14-inside-2_395_2101)"/>
<g clip-path="url(#clip5_395_2101)">
<g clip-path="url(#clip6_395_2101)">
<g clip-path="url(#clip7_395_2101)">
<mask id="mask0_395_2101" style="mask-type:luminance" maskUnits="userSpaceOnUse" x="486" y="57" width="73" height="79">
<path d="M558.035 57.9736H486.572V135.079H558.035V57.9736Z" fill="white"/>
</mask>
<g mask="url(#mask0_395_2101)">
<path d="M557.599 112.968C557.019 112.399 556.089 112.371 555.509 112.939C550.282 117.884 543.661 120.925 536.547 121.75L536.75 121.551C537.331 120.982 537.331 120.073 536.75 119.476C536.169 118.908 535.24 118.908 534.63 119.476L531.639 122.403C531.494 122.545 531.407 122.688 531.32 122.887V122.915C531.262 123.085 531.204 123.256 531.204 123.455C531.204 123.654 531.233 123.824 531.32 123.995V124.023C531.407 124.194 531.494 124.364 531.639 124.506L534.63 127.434C535.211 128.002 536.14 128.002 536.75 127.434C537.331 126.865 537.331 125.956 536.75 125.359L536.14 124.762C544.184 124.023 551.705 120.641 557.57 115.071C558.151 114.474 558.18 113.565 557.599 112.968Z" fill="#D60F32"/>
<path d="M517.614 60.9862C517.846 60.2188 517.381 59.3946 516.597 59.1957L512.561 58.0588C511.748 57.8031 510.935 58.2578 510.703 59.0251C510.47 59.7925 510.935 60.5883 511.719 60.8441L512.561 61.0714C508.351 63.8851 504.779 67.5513 502.136 71.8429C500.394 74.6849 499.058 77.7544 498.187 80.9375C497.984 81.6764 498.419 82.4722 499.174 82.6996C499.203 82.6996 499.203 82.6996 499.232 82.728C500.016 82.9269 500.83 82.4722 501.062 81.7048C501.846 78.7775 503.066 75.9923 504.692 73.3776C507.015 69.6261 510.064 66.4145 513.665 63.8851L513.577 64.1409C513.345 64.8798 513.81 65.6756 514.565 65.9314H514.594C515.378 66.1587 516.22 65.704 516.423 64.9366L517.614 60.9862Z" fill="#D60F32"/>
<path d="M537.186 114.673H528.242C527.429 114.673 526.761 114.019 526.761 113.223V109.472C525.396 109.074 524.06 108.534 522.812 107.852L520.082 110.523C519.792 110.808 519.414 110.95 519.037 110.95C518.63 110.95 518.253 110.808 517.991 110.523L511.69 104.328C511.109 103.759 511.109 102.85 511.69 102.253L514.42 99.5815C513.723 98.3595 513.2 97.0521 512.764 95.7163H508.902C508.089 95.7163 507.421 95.0627 507.421 94.2669V85.5417C507.421 84.746 508.089 84.0923 508.902 84.0923H512.735C513.142 82.7565 513.694 81.4492 514.391 80.2271L511.661 77.5555C511.08 76.9871 511.08 76.0777 511.661 75.4808L517.962 69.3135C518.543 68.7451 519.472 68.7451 520.082 69.3135L522.812 71.9851C524.06 71.303 525.396 70.7914 526.761 70.3651V66.6136C526.761 65.8178 527.429 65.1641 528.242 65.1641H537.186C537.999 65.1641 538.667 65.8178 538.667 66.6136V70.3651C540.031 70.763 541.367 71.303 542.616 71.9851L545.345 69.3135C545.926 68.7451 546.855 68.7451 547.465 69.3135L553.767 75.4808C554.347 76.0492 554.347 76.9587 553.767 77.5555L551.037 80.2271C551.734 81.4492 552.257 82.7565 552.692 84.0923H556.525C557.338 84.0923 558.006 84.746 558.006 85.5417V94.2953C558.006 95.0911 557.338 95.7448 556.525 95.7448H552.692C552.286 97.0805 551.734 98.3879 551.037 99.61L553.767 102.281C554.347 102.85 554.347 103.759 553.767 104.356L547.465 110.552C547.175 110.836 546.797 110.978 546.42 110.978C546.013 110.978 545.636 110.836 545.375 110.552L542.645 107.88C541.396 108.562 540.061 109.074 538.696 109.5V113.252C538.667 114.019 537.999 114.673 537.186 114.673ZM529.752 111.774H535.705V108.363C535.705 107.681 536.169 107.113 536.837 106.942C538.696 106.516 540.467 105.806 542.093 104.811C542.674 104.441 543.429 104.555 543.923 105.01L546.391 107.426L550.601 103.305L548.133 100.889C547.64 100.406 547.552 99.6668 547.93 99.0984C548.946 97.5068 549.672 95.7732 550.108 93.9543C550.253 93.3006 550.863 92.8458 551.56 92.8458H555.044V87.0196H551.56C550.863 87.0196 550.282 86.5649 550.108 85.9112C549.672 84.0923 548.946 82.3586 547.93 80.7671C547.552 80.1702 547.64 79.4313 548.133 78.9481L550.601 76.5324L546.391 72.4114L543.923 74.8271C543.429 75.3103 542.674 75.3956 542.093 75.0261C540.467 74.0314 538.696 73.3209 536.837 72.8945C536.169 72.7524 535.705 72.1556 535.705 71.4735V68.063H529.752V71.4735C529.752 72.1556 529.287 72.724 528.619 72.8945C526.732 73.3209 524.961 74.0598 523.334 75.0261C522.754 75.3956 521.999 75.2819 521.505 74.8271L519.037 72.4114L514.826 76.5324L517.294 78.9481C517.788 79.4313 517.875 80.1702 517.498 80.7386C516.481 82.3302 515.755 84.0639 515.32 85.8828C515.175 86.5365 514.565 86.9912 513.868 86.9912H510.383V92.8174H513.868C514.565 92.8174 515.146 93.2722 515.32 93.9258C515.755 95.7448 516.481 97.4784 517.498 99.07C517.875 99.6384 517.759 100.377 517.294 100.86L514.826 103.276L519.037 107.397L521.505 104.981C521.999 104.498 522.754 104.413 523.334 104.782C524.961 105.777 526.732 106.488 528.59 106.914C529.258 107.056 529.723 107.653 529.723 108.335L529.752 111.774Z" fill="#000091"/>
<path d="M532.714 103.02C525.338 103.02 519.327 97.1372 519.327 89.9183C519.327 82.6995 525.338 76.8164 532.714 76.8164C540.09 76.8164 546.101 82.6995 546.101 89.9183C546.101 97.1372 540.119 103.02 532.714 103.02ZM532.714 79.7153C526.964 79.7153 522.289 84.291 522.289 89.9183C522.289 95.5456 526.964 100.121 532.714 100.121C538.463 100.121 543.139 95.5456 543.139 89.9183C543.139 84.291 538.463 79.7153 532.714 79.7153Z" fill="#000091"/>
<path d="M520.808 135.079H488.053C487.24 135.079 486.572 134.425 486.572 133.629V98.6719C486.572 98.2741 486.717 97.9046 487.007 97.6488L494.441 90.3731C494.732 90.0889 495.109 89.9468 495.487 89.9468H508.873C509.686 89.9468 510.354 90.6005 510.354 91.3963C510.354 92.192 509.686 92.8457 508.873 92.8457H496.096L489.534 99.2688V132.18H519.298V107.767C519.298 106.971 519.966 106.317 520.779 106.317C521.592 106.317 522.26 106.971 522.26 107.767V133.629C522.289 134.425 521.621 135.079 520.808 135.079Z" fill="#000091"/>
<path d="M495.516 116.151H494.006C493.193 116.151 492.525 115.497 492.525 114.701C492.525 113.906 493.193 113.252 494.006 113.252H495.487C496.3 113.252 496.968 113.906 496.968 114.701C496.968 115.497 496.329 116.151 495.516 116.151Z" fill="#000091"/>
<path d="M514.855 116.151H501.468C500.655 116.151 499.987 115.497 499.987 114.701C499.987 113.906 500.655 113.252 501.468 113.252H514.855C515.668 113.252 516.336 113.906 516.336 114.701C516.336 115.497 515.668 116.151 514.855 116.151Z" fill="#000091"/>
<path d="M495.516 121.977H494.006C493.193 121.977 492.525 121.323 492.525 120.528C492.525 119.732 493.193 119.078 494.006 119.078H495.487C496.3 119.078 496.968 119.732 496.968 120.528C496.968 121.323 496.329 121.977 495.516 121.977Z" fill="#000091"/>
<path d="M514.855 121.977H501.468C500.655 121.977 499.987 121.323 499.987 120.528C499.987 119.732 500.655 119.078 501.468 119.078H514.855C515.668 119.078 516.336 119.732 516.336 120.528C516.336 121.323 515.668 121.977 514.855 121.977Z" fill="#000091"/>
<path d="M495.516 127.803H494.006C493.193 127.803 492.525 127.149 492.525 126.354C492.525 125.558 493.193 124.904 494.006 124.904H495.487C496.3 124.904 496.968 125.558 496.968 126.354C496.968 127.149 496.329 127.803 495.516 127.803Z" fill="#000091"/>
<path d="M514.855 127.803H501.468C500.655 127.803 499.987 127.149 499.987 126.354C499.987 125.558 500.655 124.904 501.468 124.904H514.855C515.668 124.904 516.336 125.558 516.336 126.354C516.336 127.149 515.668 127.803 514.855 127.803Z" fill="#000091"/>
<path d="M504.431 110.325H494.006C493.193 110.325 492.525 109.671 492.525 108.875C492.525 108.079 493.193 107.426 494.006 107.426H504.431C505.244 107.426 505.912 108.079 505.912 108.875C505.912 109.671 505.244 110.325 504.431 110.325Z" fill="#000091"/>
<path d="M504.431 104.498H494.006C493.193 104.498 492.525 103.844 492.525 103.049C492.525 102.253 493.193 101.599 494.006 101.599H504.431C505.244 101.599 505.912 102.253 505.912 103.049C505.912 103.844 505.244 104.498 504.431 104.498Z" fill="#000091"/>
</g>
</g>
</g>
</g>
<path d="M466.699 177.192C467.979 177.192 468.987 176.568 469.627 175.656L471.419 177.032C470.395 178.424 468.731 179.32 466.699 179.32C463.163 179.32 460.747 176.6 460.747 173.4C460.747 170.2 463.163 167.48 466.699 167.48C468.731 167.48 470.395 168.392 471.419 169.752L469.627 171.144C468.987 170.232 467.979 169.608 466.699 169.608C464.587 169.608 463.083 171.256 463.083 173.4C463.083 175.544 464.587 177.192 466.699 177.192ZM476.802 170.616C479.426 170.616 481.218 172.552 481.218 174.968C481.218 177.384 479.426 179.32 476.802 179.32C474.178 179.32 472.386 177.384 472.386 174.968C472.386 172.552 474.178 170.616 476.802 170.616ZM476.834 177.4C478.13 177.4 479.106 176.36 479.106 174.968C479.106 173.56 478.13 172.536 476.834 172.536C475.49 172.536 474.498 173.56 474.498 174.968C474.498 176.376 475.49 177.4 476.834 177.4ZM483.071 179V170.936H485.103V171.544C485.647 171.016 486.335 170.616 487.327 170.616C488.351 170.616 489.247 171.064 489.775 171.928C490.351 171.224 491.119 170.616 492.479 170.616C494.143 170.616 495.455 171.768 495.455 174.04V179H493.407V174.12C493.407 173.144 492.879 172.536 491.967 172.536C491.087 172.536 490.607 173.144 490.287 173.688C490.303 173.8 490.303 173.912 490.303 174.04V179H488.255V174.12C488.255 173.144 487.727 172.536 486.815 172.536C485.887 172.536 485.407 173.224 485.103 173.736V179H483.071ZM497.775 182.936V170.936H499.807V171.592C500.431 170.968 501.215 170.616 502.319 170.616C504.879 170.616 506.415 172.616 506.415 174.968C506.415 177.32 504.879 179.32 502.319 179.32C501.215 179.32 500.431 178.968 499.807 178.344V182.936H497.775ZM502.031 172.536C501.087 172.536 500.319 172.952 499.807 173.704V176.232C500.351 177 501.103 177.4 502.031 177.4C503.407 177.4 504.303 176.376 504.303 174.968C504.303 173.56 503.407 172.536 502.031 172.536ZM508.275 179V170.936H510.307V171.736C510.835 171.192 511.523 170.776 512.435 170.776C512.707 170.776 512.947 170.824 513.139 170.888V172.888C512.883 172.824 512.611 172.776 512.243 172.776C511.251 172.776 510.611 173.32 510.307 173.832V179H508.275ZM521.855 177.688C521.103 178.696 519.855 179.32 518.335 179.32C515.471 179.32 513.855 177.32 513.855 174.968C513.855 172.584 515.359 170.616 517.999 170.616C520.239 170.616 521.711 172.136 521.711 174.248C521.711 174.696 521.647 175.112 521.583 175.384H515.935C516.127 176.888 517.055 177.496 518.319 177.496C519.199 177.496 519.967 177.112 520.399 176.536L521.855 177.688ZM517.951 172.28C516.911 172.28 516.223 172.856 515.999 173.912H519.711C519.679 173.096 519.087 172.28 517.951 172.28ZM523.696 179V170.936H525.728V171.576C526.288 171.032 527.04 170.616 528.112 170.616C529.856 170.616 531.248 171.816 531.248 174.2V179H529.2V174.28C529.2 173.208 528.592 172.536 527.6 172.536C526.576 172.536 526.032 173.224 525.728 173.736V179H523.696ZM532.98 174.968C532.98 172.616 534.532 170.616 537.076 170.616C538.164 170.616 538.948 170.952 539.572 171.576V167H541.62V179H539.572V178.36C538.948 178.984 538.164 179.32 537.076 179.32C534.532 179.32 532.98 177.32 532.98 174.968ZM535.108 174.968C535.108 176.376 535.988 177.4 537.364 177.4C538.276 177.4 539.028 177.016 539.572 176.28V173.656C539.028 172.92 538.276 172.536 537.364 172.536C535.988 172.536 535.108 173.56 535.108 174.968ZM544.056 179V170.936H546.088V171.736C546.616 171.192 547.304 170.776 548.216 170.776C548.488 170.776 548.728 170.824 548.92 170.888V172.888C548.664 172.824 548.392 172.776 548.024 172.776C547.032 172.776 546.392 173.32 546.088 173.832V179H544.056ZM557.636 177.688C556.884 178.696 555.636 179.32 554.116 179.32C551.252 179.32 549.636 177.32 549.636 174.968C549.636 172.584 551.14 170.616 553.78 170.616C556.02 170.616 557.492 172.136 557.492 174.248C557.492 174.696 557.428 175.112 557.364 175.384H551.716C551.908 176.888 552.836 177.496 554.1 177.496C554.98 177.496 555.748 177.112 556.18 176.536L557.636 177.688ZM553.732 172.28C552.692 172.28 552.004 172.856 551.78 173.912H555.492C555.46 173.096 554.868 172.28 553.732 172.28ZM563.79 179V167H565.822V179H563.79ZM575.683 177.688C574.931 178.696 573.683 179.32 572.163 179.32C569.299 179.32 567.683 177.32 567.683 174.968C567.683 172.584 569.187 170.616 571.827 170.616C574.067 170.616 575.539 172.136 575.539 174.248C575.539 174.696 575.475 175.112 575.411 175.384H569.763C569.955 176.888 570.883 177.496 572.147 177.496C573.027 177.496 573.795 177.112 574.227 176.536L575.683 177.688ZM571.779 172.28C570.739 172.28 570.051 172.856 569.827 173.912H573.539C573.507 173.096 572.915 172.28 571.779 172.28ZM576.711 177.832L578.055 176.616C578.551 177.24 579.143 177.688 579.911 177.688C580.567 177.688 580.903 177.304 580.903 176.824C580.903 175.416 577.047 175.944 577.047 173.112C577.047 171.688 578.247 170.616 579.927 170.616C581.159 170.616 582.279 171.208 582.855 171.992L581.511 173.176C581.095 172.664 580.567 172.248 579.943 172.248C579.303 172.248 578.999 172.6 578.999 173.016C578.999 174.392 582.855 173.912 582.855 176.696C582.823 178.392 581.463 179.32 579.943 179.32C578.503 179.32 577.479 178.744 576.711 177.832ZM459.561 201.4C460.361 201.4 461.001 201.032 461.385 200.472L462.969 201.688C462.217 202.68 461.033 203.32 459.561 203.32C456.777 203.32 455.113 201.32 455.113 198.968C455.113 196.616 456.777 194.616 459.561 194.616C461.033 194.616 462.217 195.256 462.969 196.248L461.385 197.464C461.001 196.904 460.361 196.536 459.529 196.536C458.201 196.536 457.225 197.56 457.225 198.968C457.225 200.392 458.201 201.4 459.561 201.4ZM464.486 203V194.936H466.518V195.736C467.046 195.192 467.734 194.776 468.646 194.776C468.918 194.776 469.158 194.824 469.35 194.888V196.888C469.094 196.824 468.822 196.776 468.454 196.776C467.462 196.776 466.822 197.32 466.518 197.832V203H464.486ZM472.01 193.528C471.29 193.528 470.682 192.92 470.682 192.2C470.682 191.48 471.29 190.872 472.01 190.872C472.73 190.872 473.322 191.48 473.322 192.2C473.322 192.92 472.73 193.528 472.01 193.528ZM470.986 203V194.936H473.018V203H470.986ZM475.966 200.056V196.76H474.462V194.936H475.966V192.92H478.014V194.936H480.478V196.76H478.014V200.056C478.014 200.952 478.494 201.304 479.294 201.304C479.854 201.304 480.222 201.24 480.494 201.128V202.904C480.094 203.08 479.614 203.16 478.942 203.16C476.926 203.16 475.966 202.024 475.966 200.056ZM484.718 193.656L482.798 191H485.006L486.654 193.656H484.718ZM489.566 201.688C488.814 202.696 487.566 203.32 486.046 203.32C483.182 203.32 481.566 201.32 481.566 198.968C481.566 196.584 483.07 194.616 485.71 194.616C487.95 194.616 489.422 196.136 489.422 198.248C489.422 198.696 489.358 199.112 489.294 199.384H483.646C483.838 200.888 484.766 201.496 486.03 201.496C486.91 201.496 487.678 201.112 488.11 200.536L489.566 201.688ZM485.662 196.28C484.622 196.28 483.934 196.856 483.71 197.912H487.422C487.39 197.096 486.798 196.28 485.662 196.28ZM491.407 203V194.936H493.439V195.736C493.967 195.192 494.655 194.776 495.567 194.776C495.839 194.776 496.079 194.824 496.271 194.888V196.888C496.015 196.824 495.743 196.776 495.375 196.776C494.383 196.776 493.743 197.32 493.439 197.832V203H491.407ZM504.988 201.688C504.236 202.696 502.988 203.32 501.468 203.32C498.604 203.32 496.988 201.32 496.988 198.968C496.988 196.584 498.492 194.616 501.132 194.616C503.372 194.616 504.844 196.136 504.844 198.248C504.844 198.696 504.78 199.112 504.716 199.384H499.068C499.26 200.888 500.188 201.496 501.452 201.496C502.332 201.496 503.1 201.112 503.532 200.536L504.988 201.688ZM501.084 196.28C500.044 196.28 499.356 196.856 499.132 197.912H502.844C502.812 197.096 502.22 196.28 501.084 196.28ZM506.016 201.832L507.36 200.616C507.856 201.24 508.448 201.688 509.216 201.688C509.872 201.688 510.208 201.304 510.208 200.824C510.208 199.416 506.352 199.944 506.352 197.112C506.352 195.688 507.552 194.616 509.232 194.616C510.464 194.616 511.584 195.208 512.16 195.992L510.816 197.176C510.4 196.664 509.872 196.248 509.248 196.248C508.608 196.248 508.304 196.6 508.304 197.016C508.304 198.392 512.16 197.912 512.16 200.696C512.128 202.392 510.768 203.32 509.248 203.32C507.808 203.32 506.784 202.744 506.016 201.832ZM517.769 198.968C517.769 196.616 519.321 194.616 521.865 194.616C522.953 194.616 523.737 194.952 524.361 195.576V191H526.409V203H524.361V202.36C523.737 202.984 522.953 203.32 521.865 203.32C519.321 203.32 517.769 201.32 517.769 198.968ZM519.897 198.968C519.897 200.376 520.777 201.4 522.153 201.4C523.065 201.4 523.817 201.016 524.361 200.28V197.656C523.817 196.92 523.065 196.536 522.153 196.536C520.777 196.536 519.897 197.56 519.897 198.968ZM529.93 196.408H528.042L529.482 191.8H531.786L529.93 196.408ZM534.914 203.24C533.298 203.24 532.194 202.312 532.194 200.824C532.194 199.608 533.138 198.696 534.866 198.408L537.33 197.992V197.784C537.33 196.936 536.69 196.392 535.762 196.392C534.978 196.392 534.37 196.76 533.938 197.352L532.45 196.216C533.17 195.224 534.354 194.616 535.826 194.616C538.162 194.616 539.362 196.008 539.362 197.784V203H537.33V202.216C536.818 202.84 535.858 203.24 534.914 203.24ZM534.21 200.728C534.21 201.272 534.642 201.624 535.33 201.624C536.258 201.624 536.93 201.192 537.33 200.552V199.416L535.41 199.736C534.562 199.88 534.21 200.232 534.21 200.728ZM541.689 203V194.936H543.721V195.576C544.281 195.032 545.033 194.616 546.105 194.616C547.849 194.616 549.241 195.816 549.241 198.2V203H547.193V198.28C547.193 197.208 546.585 196.536 545.593 196.536C544.569 196.536 544.025 197.224 543.721 197.736V203H541.689ZM553.82 203.24C552.204 203.24 551.1 202.312 551.1 200.824C551.1 199.608 552.044 198.696 553.772 198.408L556.236 197.992V197.784C556.236 196.936 555.596 196.392 554.668 196.392C553.884 196.392 553.276 196.76 552.844 197.352L551.356 196.216C552.076 195.224 553.26 194.616 554.732 194.616C557.068 194.616 558.268 196.008 558.268 197.784V203H556.236V202.216C555.724 202.84 554.764 203.24 553.82 203.24ZM553.116 200.728C553.116 201.272 553.548 201.624 554.236 201.624C555.164 201.624 555.836 201.192 556.236 200.552V199.416L554.316 199.736C553.468 199.88 553.116 200.232 553.116 200.728ZM560.595 203V191H562.627V203H560.595ZM568.68 204.84C568.12 206.168 567.208 207 565.672 207C565.048 207 564.616 206.904 564.232 206.744V204.952C564.488 205.064 564.872 205.144 565.224 205.144C566.024 205.144 566.52 204.872 566.856 204.056L567.304 202.984L563.912 194.936H566.168L568.376 200.36L570.6 194.936H572.744L568.68 204.84ZM573.063 201.832L574.407 200.616C574.903 201.24 575.495 201.688 576.263 201.688C576.919 201.688 577.255 201.304 577.255 200.824C577.255 199.416 573.399 199.944 573.399 197.112C573.399 195.688 574.599 194.616 576.279 194.616C577.511 194.616 578.631 195.208 579.207 195.992L577.863 197.176C577.447 196.664 576.919 196.248 576.295 196.248C575.655 196.248 575.351 196.6 575.351 197.016C575.351 198.392 579.207 197.912 579.207 200.696C579.175 202.392 577.815 203.32 576.295 203.32C574.855 203.32 573.831 202.744 573.063 201.832ZM588.472 201.688C587.72 202.696 586.472 203.32 584.952 203.32C582.088 203.32 580.472 201.32 580.472 198.968C580.472 196.584 581.976 194.616 584.616 194.616C586.856 194.616 588.328 196.136 588.328 198.248C588.328 198.696 588.264 199.112 588.2 199.384H582.552C582.744 200.888 583.672 201.496 584.936 201.496C585.816 201.496 586.584 201.112 587.016 200.536L588.472 201.688ZM584.568 196.28C583.528 196.28 582.84 196.856 582.616 197.912H586.328C586.296 197.096 585.704 196.28 584.568 196.28ZM456.214 222.968C456.214 220.616 457.766 218.616 460.31 218.616C461.398 218.616 462.182 218.952 462.806 219.576V215H464.854V227H462.806V226.36C462.182 226.984 461.398 227.32 460.31 227.32C457.766 227.32 456.214 225.32 456.214 222.968ZM458.342 222.968C458.342 224.376 459.222 225.4 460.598 225.4C461.51 225.4 462.262 225.016 462.806 224.28V221.656C462.262 220.92 461.51 220.536 460.598 220.536C459.222 220.536 458.342 221.56 458.342 222.968ZM474.714 225.688C473.962 226.696 472.714 227.32 471.194 227.32C468.33 227.32 466.714 225.32 466.714 222.968C466.714 220.584 468.218 218.616 470.858 218.616C473.098 218.616 474.57 220.136 474.57 222.248C474.57 222.696 474.506 223.112 474.442 223.384H468.794C468.986 224.888 469.914 225.496 471.178 225.496C472.058 225.496 472.826 225.112 473.258 224.536L474.714 225.688ZM470.81 220.28C469.77 220.28 469.082 220.856 468.858 221.912H472.57C472.538 221.096 471.946 220.28 470.81 220.28ZM475.742 225.832L477.086 224.616C477.582 225.24 478.174 225.688 478.942 225.688C479.598 225.688 479.934 225.304 479.934 224.824C479.934 223.416 476.078 223.944 476.078 221.112C476.078 219.688 477.278 218.616 478.958 218.616C480.19 218.616 481.31 219.208 481.886 219.992L480.542 221.176C480.126 220.664 479.598 220.248 478.974 220.248C478.334 220.248 478.03 220.6 478.03 221.016C478.03 222.392 481.886 221.912 481.886 224.696C481.854 226.392 480.494 227.32 478.974 227.32C477.534 227.32 476.51 226.744 475.742 225.832ZM491.943 225.4C492.743 225.4 493.383 225.032 493.767 224.472L495.351 225.688C494.599 226.68 493.415 227.32 491.943 227.32C489.159 227.32 487.495 225.32 487.495 222.968C487.495 220.616 489.159 218.616 491.943 218.616C493.415 218.616 494.599 219.256 495.351 220.248L493.767 221.464C493.383 220.904 492.743 220.536 491.911 220.536C490.583 220.536 489.607 221.56 489.607 222.968C489.607 224.392 490.583 225.4 491.943 225.4ZM499 227.24C497.384 227.24 496.28 226.312 496.28 224.824C496.28 223.608 497.224 222.696 498.952 222.408L501.416 221.992V221.784C501.416 220.936 500.776 220.392 499.848 220.392C499.064 220.392 498.456 220.76 498.024 221.352L496.536 220.216C497.256 219.224 498.44 218.616 499.912 218.616C502.248 218.616 503.448 220.008 503.448 221.784V227H501.416V226.216C500.904 226.84 499.944 227.24 499 227.24ZM498.296 224.728C498.296 225.272 498.728 225.624 499.416 225.624C500.344 225.624 501.016 225.192 501.416 224.552V223.416L499.496 223.736C498.648 223.88 498.296 224.232 498.296 224.728ZM505.775 227V218.936H507.807V219.576C508.367 219.032 509.119 218.616 510.191 218.616C511.935 218.616 513.327 219.816 513.327 222.2V227H511.279V222.28C511.279 221.208 510.671 220.536 509.679 220.536C508.655 220.536 508.111 221.224 507.807 221.736V227H505.775ZM515.058 222.968C515.058 220.616 516.61 218.616 519.154 218.616C520.242 218.616 521.026 218.952 521.65 219.576V215H523.698V227H521.65V226.36C521.026 226.984 520.242 227.32 519.154 227.32C516.61 227.32 515.058 225.32 515.058 222.968ZM517.186 222.968C517.186 224.376 518.066 225.4 519.442 225.4C520.354 225.4 521.106 225.016 521.65 224.28V221.656C521.106 220.92 520.354 220.536 519.442 220.536C518.066 220.536 517.186 221.56 517.186 222.968ZM527.158 217.528C526.438 217.528 525.83 216.92 525.83 216.2C525.83 215.48 526.438 214.872 527.158 214.872C527.878 214.872 528.47 215.48 528.47 216.2C528.47 216.92 527.878 217.528 527.158 217.528ZM526.134 227V218.936H528.166V227H526.134ZM530.027 222.968C530.027 220.616 531.579 218.616 534.123 218.616C535.211 218.616 535.995 218.952 536.619 219.576V215H538.667V227H536.619V226.36C535.995 226.984 535.211 227.32 534.123 227.32C531.579 227.32 530.027 225.32 530.027 222.968ZM532.155 222.968C532.155 224.376 533.035 225.4 534.411 225.4C535.323 225.4 536.075 225.016 536.619 224.28V221.656C536.075 220.92 535.323 220.536 534.411 220.536C533.035 220.536 532.155 221.56 532.155 222.968ZM543.375 227.24C541.759 227.24 540.655 226.312 540.655 224.824C540.655 223.608 541.599 222.696 543.327 222.408L545.791 221.992V221.784C545.791 220.936 545.151 220.392 544.223 220.392C543.439 220.392 542.831 220.76 542.399 221.352L540.911 220.216C541.631 219.224 542.815 218.616 544.287 218.616C546.623 218.616 547.823 220.008 547.823 221.784V227H545.791V226.216C545.279 226.84 544.319 227.24 543.375 227.24ZM542.671 224.728C542.671 225.272 543.103 225.624 543.791 225.624C544.719 225.624 545.391 225.192 545.791 224.552V223.416L543.871 223.736C543.023 223.88 542.671 224.232 542.671 224.728ZM550.662 224.056V220.76H549.158V218.936H550.662V216.92H552.71V218.936H555.174V220.76H552.71V224.056C552.71 224.952 553.19 225.304 553.99 225.304C554.55 225.304 554.918 225.24 555.19 225.128V226.904C554.79 227.08 554.31 227.16 553.638 227.16C551.622 227.16 550.662 226.024 550.662 224.056ZM562.29 223.512V218.936H564.338V223.416C564.338 225.832 562.93 227.32 560.562 227.32C558.194 227.32 556.802 225.832 556.802 223.416V218.936H558.85V223.512C558.85 224.68 559.458 225.4 560.578 225.4C561.682 225.4 562.29 224.68 562.29 223.512ZM566.587 227V218.936H568.619V219.736C569.147 219.192 569.835 218.776 570.747 218.776C571.019 218.776 571.259 218.824 571.451 218.888V220.888C571.195 220.824 570.923 220.776 570.555 220.776C569.563 220.776 568.923 221.32 568.619 221.832V227H566.587ZM580.167 225.688C579.415 226.696 578.167 227.32 576.647 227.32C573.783 227.32 572.167 225.32 572.167 222.968C572.167 220.584 573.671 218.616 576.311 218.616C578.551 218.616 580.023 220.136 580.023 222.248C580.023 222.696 579.959 223.112 579.895 223.384H574.247C574.439 224.888 575.367 225.496 576.631 225.496C577.511 225.496 578.279 225.112 578.711 224.536L580.167 225.688ZM576.263 220.28C575.223 220.28 574.535 220.856 574.311 221.912H578.023C577.991 221.096 577.399 220.28 576.263 220.28ZM581.196 225.832L582.54 224.616C583.036 225.24 583.628 225.688 584.396 225.688C585.052 225.688 585.388 225.304 585.388 224.824C585.388 223.416 581.532 223.944 581.532 221.112C581.532 219.688 582.732 218.616 584.412 218.616C585.644 218.616 586.764 219.208 587.34 219.992L585.996 221.176C585.58 220.664 585.052 220.248 584.428 220.248C583.788 220.248 583.484 220.6 583.484 221.016C583.484 222.392 587.34 221.912 587.34 224.696C587.308 226.392 585.948 227.32 584.428 227.32C582.988 227.32 581.964 226.744 581.196 225.832Z" fill="#161616"/>
<mask id="path-31-inside-3_395_2101" fill="white">
<path d="M696 24H1043V264H696V24Z"/>
</mask>
<path d="M696 24H1043V264H696V24Z" fill="white"/>
<path d="M696 24V23H695V24H696ZM1043 24H1044V23H1043V24ZM1043 264V269H1044V264H1043ZM696 264H695V269H696V264ZM696 25H1043V23H696V25ZM1042 24V264H1044V24H1042ZM1043 259H696V269H1043V259ZM697 264V24H695V264H697Z" fill="#ECECFE" mask="url(#path-31-inside-3_395_2101)"/>
<g clip-path="url(#clip8_395_2101)">
<g clip-path="url(#clip9_395_2101)">
<g clip-path="url(#clip10_395_2101)">
<path fill-rule="evenodd" clip-rule="evenodd" d="M887.314 95.9938L892.169 84.2921C892.698 83.0168 894.161 82.4119 895.436 82.941C896.045 83.1937 896.53 83.6768 896.784 84.2851L901.682 95.9888C901.963 96.6603 901.937 97.4208 901.612 98.0719L899.713 101.868C899.651 101.992 899.58 102.11 899.5 102.22V106.797L901.936 114.105C901.979 114.236 902.001 114.372 902 114.509L901.991 114.646L900.224 129.646C900.155 130.227 899.695 130.676 899.127 130.742L898.982 130.75H890.017C889.432 130.75 888.933 130.346 888.801 129.789L888.776 129.646L888.196 124.725C888.115 124.039 888.605 123.418 889.291 123.337C889.928 123.262 890.509 123.679 890.653 124.288L890.679 124.432L891.129 128.25H897.87L899.475 114.629L897.349 108.25H891.65L889.436 114.895C889.233 115.504 888.608 115.852 887.996 115.724L887.855 115.686C887.246 115.483 886.898 114.858 887.026 114.246L887.064 114.105L889.5 106.797V102.22C889.42 102.11 889.348 101.992 889.286 101.868L887.387 98.0698C887.063 97.4212 887.036 96.6636 887.314 95.9938ZM892 103.25V105.75H897V103.25H892ZM893.25 88.2102L889.623 96.9518L891.522 100.75H897.477L899.375 96.9539L895.75 88.2898V94.5001C895.75 95.1905 895.19 95.7501 894.5 95.7501C893.859 95.7501 893.33 95.2676 893.258 94.6459L893.25 94.5001V88.2102Z" fill="#E1000F"/>
<path d="M878.25 108.25C880.607 108.25 882 109.643 882 112C882 112.102 881.987 112.204 881.963 112.303C881.331 114.83 878.522 116.472 873.51 117.378L872.701 117.514C872.425 117.558 872.143 117.6 871.854 117.639L870.971 117.752C870.821 117.77 870.669 117.787 870.516 117.804L869.578 117.899L868.603 117.982L867.592 118.054L866.544 118.115C866.366 118.124 866.186 118.132 866.006 118.141L864.902 118.184L863.762 118.216L862.585 118.238L860.75 118.25C860.06 118.25 859.5 117.69 859.5 117C859.5 116.31 860.06 115.75 860.75 115.75L861.938 115.745C862.132 115.743 862.325 115.741 862.517 115.738L863.647 115.716L864.738 115.685L865.791 115.642L866.806 115.59L867.782 115.528L868.719 115.456L869.618 115.374C869.765 115.359 869.91 115.345 870.053 115.329L870.894 115.233C871.305 115.183 871.702 115.129 872.083 115.072L872.828 114.953L873.533 114.825L874.2 114.688C877.222 114.03 878.978 113.092 879.455 111.946L879.496 111.831L879.488 111.684C879.43 111.011 879.152 110.781 878.415 110.753L878.25 110.75C876.951 110.75 875.584 111.434 874.134 112.884C873.381 113.637 872.116 113.16 872.007 112.142L872 112C872 111.024 871.726 110.75 870.75 110.75C869.451 110.75 868.084 111.434 866.634 112.884C866.146 113.372 865.354 113.372 864.866 112.884C864.378 112.396 864.378 111.604 864.866 111.116C866.749 109.233 868.715 108.25 870.75 108.25C872.181 108.25 873.257 108.764 873.881 109.695L873.93 109.774L874.174 109.604C875.396 108.779 876.649 108.323 877.929 108.258L878.25 108.25Z" fill="#E1000F"/>
<path d="M889.492 56.8542C889.419 56.2326 888.891 55.75 888.25 55.75H840.75L840.604 55.7584C839.983 55.8306 839.5 56.359 839.5 57V124.5L839.508 124.646C839.581 125.267 840.109 125.75 840.75 125.75H880.75L880.896 125.742C881.517 125.669 882 125.141 882 124.5L881.992 124.354C881.919 123.733 881.391 123.25 880.75 123.25H842V58.25H887V82L887.008 82.1458C887.081 82.7675 887.609 83.25 888.25 83.25C888.94 83.25 889.5 82.6904 889.5 82V57L889.492 56.8542Z" fill="#000091"/>
<path d="M869.5 64.5C869.5 63.8096 868.94 63.25 868.25 63.25H848.25L848.104 63.2584C847.483 63.3306 847 63.859 847 64.5C847 65.1904 847.56 65.75 848.25 65.75H868.25L868.396 65.7416C869.018 65.6694 869.5 65.141 869.5 64.5Z" fill="#000091"/>
<path d="M880.75 70.75C881.44 70.75 882 71.3096 882 72C882 72.641 881.517 73.1694 880.896 73.2416L880.75 73.25H848.25C847.56 73.25 847 72.6904 847 72C847 71.359 847.483 70.8306 848.104 70.7584L848.25 70.75H880.75Z" fill="#000091"/>
<path d="M874.5 79.5C874.5 78.8096 873.94 78.25 873.25 78.25H848.25L848.104 78.2584C847.483 78.3306 847 78.859 847 79.5C847 80.1904 847.56 80.75 848.25 80.75H873.25L873.396 80.7416C874.017 80.6694 874.5 80.141 874.5 79.5Z" fill="#000091"/>
<path d="M880.75 85.75C881.44 85.75 882 86.3096 882 87C882 87.641 881.517 88.1694 880.896 88.2416L880.75 88.25H848.25C847.56 88.25 847 87.6904 847 87C847 86.359 847.483 85.8306 848.104 85.7584L848.25 85.75H880.75Z" fill="#000091"/>
<path d="M894.492 66.8542C894.419 66.2325 893.891 65.75 893.25 65.75C892.56 65.75 892 66.3096 892 67V77L892.008 77.1458C892.081 77.7675 892.609 78.25 893.25 78.25C893.94 78.25 894.5 77.6904 894.5 77V67L894.492 66.8542Z" fill="#000091"/>
<path d="M883.25 128.25C883.94 128.25 884.5 128.81 884.5 129.5C884.5 130.141 884.017 130.669 883.396 130.742L883.25 130.75H850.75C850.06 130.75 849.5 130.19 849.5 129.5C849.5 128.859 849.983 128.331 850.604 128.258L850.75 128.25H883.25Z" fill="#000091"/>
<path d="M874.5 94.5C874.5 93.8096 873.94 93.25 873.25 93.25H848.25L848.104 93.2584C847.483 93.3306 847 93.859 847 94.5C847 95.1904 847.56 95.75 848.25 95.75H873.25L873.396 95.7416C874.017 95.6694 874.5 95.141 874.5 94.5Z" fill="#000091"/>
</g>
</g>
</g>
<path d="M825.765 177.192C827.045 177.192 828.053 176.568 828.693 175.656L830.485 177.032C829.461 178.424 827.797 179.32 825.765 179.32C822.229 179.32 819.813 176.6 819.813 173.4C819.813 170.2 822.229 167.48 825.765 167.48C827.797 167.48 829.461 168.392 830.485 169.752L828.693 171.144C828.053 170.232 827.045 169.608 825.765 169.608C823.653 169.608 822.149 171.256 822.149 173.4C822.149 175.544 823.653 177.192 825.765 177.192ZM835.869 170.616C838.493 170.616 840.285 172.552 840.285 174.968C840.285 177.384 838.493 179.32 835.869 179.32C833.245 179.32 831.453 177.384 831.453 174.968C831.453 172.552 833.245 170.616 835.869 170.616ZM835.901 177.4C837.197 177.4 838.173 176.36 838.173 174.968C838.173 173.56 837.197 172.536 835.901 172.536C834.557 172.536 833.565 173.56 833.565 174.968C833.565 176.376 834.557 177.4 835.901 177.4ZM842.138 179V170.936H844.17V171.576C844.73 171.032 845.482 170.616 846.554 170.616C848.298 170.616 849.69 171.816 849.69 174.2V179H847.642V174.28C847.642 173.208 847.034 172.536 846.042 172.536C845.018 172.536 844.474 173.224 844.17 173.736V179H842.138ZM851.293 177.832L852.637 176.616C853.133 177.24 853.725 177.688 854.493 177.688C855.149 177.688 855.485 177.304 855.485 176.824C855.485 175.416 851.629 175.944 851.629 173.112C851.629 171.688 852.829 170.616 854.509 170.616C855.741 170.616 856.861 171.208 857.437 171.992L856.093 173.176C855.677 172.664 855.149 172.248 854.525 172.248C853.885 172.248 853.581 172.6 853.581 173.016C853.581 174.392 857.437 173.912 857.437 176.696C857.405 178.392 856.045 179.32 854.525 179.32C853.085 179.32 852.061 178.744 851.293 177.832ZM864.622 175.512V170.936H866.67V175.416C866.67 177.832 865.262 179.32 862.894 179.32C860.526 179.32 859.134 177.832 859.134 175.416V170.936H861.182V175.512C861.182 176.68 861.79 177.4 862.91 177.4C864.014 177.4 864.622 176.68 864.622 175.512ZM868.919 179V167H870.951V179H868.919ZM873.9 176.056V172.76H872.396V170.936H873.9V168.92H875.948V170.936H878.412V172.76H875.948V176.056C875.948 176.952 876.428 177.304 877.228 177.304C877.788 177.304 878.156 177.24 878.428 177.128V178.904C878.028 179.08 877.548 179.16 876.876 179.16C874.86 179.16 873.9 178.024 873.9 176.056ZM887.499 177.688C886.747 178.696 885.499 179.32 883.979 179.32C881.115 179.32 879.499 177.32 879.499 174.968C879.499 172.584 881.003 170.616 883.643 170.616C885.883 170.616 887.355 172.136 887.355 174.248C887.355 174.696 887.291 175.112 887.227 175.384H881.579C881.771 176.888 882.699 177.496 883.963 177.496C884.843 177.496 885.611 177.112 886.043 176.536L887.499 177.688ZM883.595 172.28C882.555 172.28 881.867 172.856 881.643 173.912H885.355C885.323 173.096 884.731 172.28 883.595 172.28ZM889.341 179V170.936H891.373V171.736C891.901 171.192 892.589 170.776 893.501 170.776C893.773 170.776 894.013 170.824 894.205 170.888V172.888C893.949 172.824 893.677 172.776 893.309 172.776C892.317 172.776 891.677 173.32 891.373 173.832V179H889.341ZM900.154 179V167H902.186V179H900.154ZM912.046 177.688C911.294 178.696 910.046 179.32 908.526 179.32C905.662 179.32 904.046 177.32 904.046 174.968C904.046 172.584 905.55 170.616 908.19 170.616C910.43 170.616 911.902 172.136 911.902 174.248C911.902 174.696 911.838 175.112 911.774 175.384H906.126C906.318 176.888 907.246 177.496 908.51 177.496C909.39 177.496 910.158 177.112 910.59 176.536L912.046 177.688ZM908.142 172.28C907.102 172.28 906.414 172.856 906.19 173.912H909.902C909.87 173.096 909.278 172.28 908.142 172.28ZM913.075 177.832L914.419 176.616C914.915 177.24 915.507 177.688 916.275 177.688C916.931 177.688 917.267 177.304 917.267 176.824C917.267 175.416 913.411 175.944 913.411 173.112C913.411 171.688 914.611 170.616 916.291 170.616C917.523 170.616 918.643 171.208 919.219 171.992L917.875 173.176C917.459 172.664 916.931 172.248 916.307 172.248C915.667 172.248 915.363 172.6 915.363 173.016C915.363 174.392 919.219 173.912 919.219 176.696C919.187 178.392 917.827 179.32 916.307 179.32C914.867 179.32 913.843 178.744 913.075 177.832ZM820.411 203V194.936H822.443V195.544C822.987 195.016 823.675 194.616 824.667 194.616C825.691 194.616 826.587 195.064 827.115 195.928C827.691 195.224 828.459 194.616 829.819 194.616C831.483 194.616 832.795 195.768 832.795 198.04V203H830.747V198.12C830.747 197.144 830.219 196.536 829.307 196.536C828.427 196.536 827.947 197.144 827.627 197.688C827.643 197.8 827.643 197.912 827.643 198.04V203H825.595V198.12C825.595 197.144 825.067 196.536 824.155 196.536C823.227 196.536 822.747 197.224 822.443 197.736V203H820.411ZM838.955 194.616C841.579 194.616 843.371 196.552 843.371 198.968C843.371 201.384 841.579 203.32 838.955 203.32C836.331 203.32 834.539 201.384 834.539 198.968C834.539 196.552 836.331 194.616 838.955 194.616ZM838.987 201.4C840.283 201.4 841.259 200.36 841.259 198.968C841.259 197.56 840.283 196.536 838.987 196.536C837.643 196.536 836.651 197.56 836.651 198.968C836.651 200.376 837.643 201.4 838.987 201.4ZM844.726 198.968C844.726 196.616 846.278 194.616 848.822 194.616C849.91 194.616 850.694 194.952 851.318 195.576V191H853.366V203H851.318V202.36C850.694 202.984 849.91 203.32 848.822 203.32C846.278 203.32 844.726 201.32 844.726 198.968ZM846.854 198.968C846.854 200.376 847.734 201.4 849.11 201.4C850.022 201.4 850.774 201.016 851.318 200.28V197.656C850.774 196.92 850.022 196.536 849.11 196.536C847.734 196.536 846.854 197.56 846.854 198.968ZM858.074 203.24C856.458 203.24 855.354 202.312 855.354 200.824C855.354 199.608 856.298 198.696 858.026 198.408L860.49 197.992V197.784C860.49 196.936 859.85 196.392 858.922 196.392C858.138 196.392 857.53 196.76 857.098 197.352L855.61 196.216C856.33 195.224 857.514 194.616 858.986 194.616C861.322 194.616 862.522 196.008 862.522 197.784V203H860.49V202.216C859.978 202.84 859.018 203.24 858.074 203.24ZM857.37 200.728C857.37 201.272 857.802 201.624 858.49 201.624C859.418 201.624 860.09 201.192 860.49 200.552V199.416L858.57 199.736C857.722 199.88 857.37 200.232 857.37 200.728ZM864.849 203V191H866.881V203H864.849ZM870.342 193.528C869.622 193.528 869.014 192.92 869.014 192.2C869.014 191.48 869.622 190.872 870.342 190.872C871.062 190.872 871.654 191.48 871.654 192.2C871.654 192.92 871.062 193.528 870.342 193.528ZM869.318 203V194.936H871.35V203H869.318ZM874.298 200.056V196.76H872.794V194.936H874.298V192.92H876.346V194.936H878.81V196.76H876.346V200.056C876.346 200.952 876.826 201.304 877.626 201.304C878.186 201.304 878.554 201.24 878.826 201.128V202.904C878.426 203.08 877.946 203.16 877.274 203.16C875.258 203.16 874.298 202.024 874.298 200.056ZM885.162 193.656H883.21L884.874 191H887.082L885.162 193.656ZM887.898 201.688C887.146 202.696 885.898 203.32 884.378 203.32C881.514 203.32 879.898 201.32 879.898 198.968C879.898 196.584 881.402 194.616 884.042 194.616C886.282 194.616 887.754 196.136 887.754 198.248C887.754 198.696 887.69 199.112 887.626 199.384H881.978C882.17 200.888 883.098 201.496 884.362 201.496C885.242 201.496 886.01 201.112 886.442 200.536L887.898 201.688ZM883.994 196.28C882.954 196.28 882.266 196.856 882.042 197.912H885.754C885.722 197.096 885.13 196.28 883.994 196.28ZM888.926 201.832L890.27 200.616C890.766 201.24 891.358 201.688 892.126 201.688C892.782 201.688 893.118 201.304 893.118 200.824C893.118 199.416 889.262 199.944 889.262 197.112C889.262 195.688 890.462 194.616 892.142 194.616C893.374 194.616 894.494 195.208 895.07 195.992L893.726 197.176C893.31 196.664 892.782 196.248 892.158 196.248C891.518 196.248 891.214 196.6 891.214 197.016C891.214 198.392 895.07 197.912 895.07 200.696C895.038 202.392 893.678 203.32 892.158 203.32C890.718 203.32 889.694 202.744 888.926 201.832ZM900.679 198.968C900.679 196.616 902.231 194.616 904.775 194.616C905.863 194.616 906.647 194.952 907.271 195.576V191H909.319V203H907.271V202.36C906.647 202.984 905.863 203.32 904.775 203.32C902.231 203.32 900.679 201.32 900.679 198.968ZM902.807 198.968C902.807 200.376 903.687 201.4 905.063 201.4C905.975 201.4 906.727 201.016 907.271 200.28V197.656C906.727 196.92 905.975 196.536 905.063 196.536C903.687 196.536 902.807 197.56 902.807 198.968ZM919.179 201.688C918.427 202.696 917.179 203.32 915.659 203.32C912.795 203.32 911.179 201.32 911.179 198.968C911.179 196.584 912.683 194.616 915.323 194.616C917.563 194.616 919.035 196.136 919.035 198.248C919.035 198.696 918.971 199.112 918.907 199.384H913.259C913.451 200.888 914.379 201.496 915.643 201.496C916.523 201.496 917.291 201.112 917.723 200.536L919.179 201.688ZM915.275 196.28C914.235 196.28 913.547 196.856 913.323 197.912H917.035C917.003 197.096 916.411 196.28 915.275 196.28ZM824.018 225.4C824.818 225.4 825.458 225.032 825.842 224.472L827.426 225.688C826.674 226.68 825.49 227.32 824.018 227.32C821.234 227.32 819.57 225.32 819.57 222.968C819.57 220.616 821.234 218.616 824.018 218.616C825.49 218.616 826.674 219.256 827.426 220.248L825.842 221.464C825.458 220.904 824.818 220.536 823.986 220.536C822.658 220.536 821.682 221.56 821.682 222.968C821.682 224.392 822.658 225.4 824.018 225.4ZM831.074 227.24C829.458 227.24 828.354 226.312 828.354 224.824C828.354 223.608 829.298 222.696 831.026 222.408L833.49 221.992V221.784C833.49 220.936 832.85 220.392 831.922 220.392C831.138 220.392 830.53 220.76 830.098 221.352L828.61 220.216C829.33 219.224 830.514 218.616 831.986 218.616C834.322 218.616 835.522 220.008 835.522 221.784V227H833.49V226.216C832.978 226.84 832.018 227.24 831.074 227.24ZM830.37 224.728C830.37 225.272 830.802 225.624 831.49 225.624C832.418 225.624 833.09 225.192 833.49 224.552V223.416L831.57 223.736C830.722 223.88 830.37 224.232 830.37 224.728ZM837.849 227V218.936H839.881V219.576C840.441 219.032 841.193 218.616 842.265 218.616C844.009 218.616 845.401 219.816 845.401 222.2V227H843.353V222.28C843.353 221.208 842.745 220.536 841.753 220.536C840.729 220.536 840.185 221.224 839.881 221.736V227H837.849ZM847.132 222.968C847.132 220.616 848.684 218.616 851.228 218.616C852.316 218.616 853.1 218.952 853.724 219.576V215H855.772V227H853.724V226.36C853.1 226.984 852.316 227.32 851.228 227.32C848.684 227.32 847.132 225.32 847.132 222.968ZM849.26 222.968C849.26 224.376 850.14 225.4 851.516 225.4C852.428 225.4 853.18 225.016 853.724 224.28V221.656C853.18 220.92 852.428 220.536 851.516 220.536C850.14 220.536 849.26 221.56 849.26 222.968ZM859.232 217.528C858.512 217.528 857.904 216.92 857.904 216.2C857.904 215.48 858.512 214.872 859.232 214.872C859.952 214.872 860.544 215.48 860.544 216.2C860.544 216.92 859.952 217.528 859.232 217.528ZM858.208 227V218.936H860.24V227H858.208ZM862.101 222.968C862.101 220.616 863.653 218.616 866.197 218.616C867.285 218.616 868.069 218.952 868.693 219.576V215H870.741V227H868.693V226.36C868.069 226.984 867.285 227.32 866.197 227.32C863.653 227.32 862.101 225.32 862.101 222.968ZM864.229 222.968C864.229 224.376 865.109 225.4 866.485 225.4C867.397 225.4 868.149 225.016 868.693 224.28V221.656C868.149 220.92 867.397 220.536 866.485 220.536C865.109 220.536 864.229 221.56 864.229 222.968ZM875.449 227.24C873.833 227.24 872.729 226.312 872.729 224.824C872.729 223.608 873.673 222.696 875.401 222.408L877.865 221.992V221.784C877.865 220.936 877.225 220.392 876.297 220.392C875.513 220.392 874.905 220.76 874.473 221.352L872.985 220.216C873.705 219.224 874.889 218.616 876.361 218.616C878.697 218.616 879.897 220.008 879.897 221.784V227H877.865V226.216C877.353 226.84 876.393 227.24 875.449 227.24ZM874.745 224.728C874.745 225.272 875.177 225.624 875.865 225.624C876.793 225.624 877.465 225.192 877.865 224.552V223.416L875.945 223.736C875.097 223.88 874.745 224.232 874.745 224.728ZM882.736 224.056V220.76H881.232V218.936H882.736V216.92H884.784V218.936H887.248V220.76H884.784V224.056C884.784 224.952 885.264 225.304 886.064 225.304C886.624 225.304 886.992 225.24 887.264 225.128V226.904C886.864 227.08 886.384 227.16 885.712 227.16C883.696 227.16 882.736 226.024 882.736 224.056ZM894.364 223.512V218.936H896.412V223.416C896.412 225.832 895.004 227.32 892.636 227.32C890.268 227.32 888.876 225.832 888.876 223.416V218.936H890.924V223.512C890.924 224.68 891.532 225.4 892.652 225.4C893.756 225.4 894.364 224.68 894.364 223.512ZM898.661 227V218.936H900.693V219.736C901.221 219.192 901.909 218.776 902.821 218.776C903.093 218.776 903.333 218.824 903.525 218.888V220.888C903.269 220.824 902.997 220.776 902.629 220.776C901.637 220.776 900.997 221.32 900.693 221.832V227H898.661ZM912.242 225.688C911.49 226.696 910.242 227.32 908.722 227.32C905.858 227.32 904.242 225.32 904.242 222.968C904.242 220.584 905.746 218.616 908.386 218.616C910.626 218.616 912.098 220.136 912.098 222.248C912.098 222.696 912.034 223.112 911.97 223.384H906.322C906.514 224.888 907.442 225.496 908.706 225.496C909.586 225.496 910.354 225.112 910.786 224.536L912.242 225.688ZM908.338 220.28C907.298 220.28 906.61 220.856 906.386 221.912H910.098C910.066 221.096 909.474 220.28 908.338 220.28ZM913.27 225.832L914.614 224.616C915.11 225.24 915.702 225.688 916.47 225.688C917.126 225.688 917.462 225.304 917.462 224.824C917.462 223.416 913.606 223.944 913.606 221.112C913.606 219.688 914.806 218.616 916.486 218.616C917.718 218.616 918.838 219.208 919.414 219.992L918.07 221.176C917.654 220.664 917.126 220.248 916.502 220.248C915.862 220.248 915.558 220.6 915.558 221.016C915.558 222.392 919.414 221.912 919.414 224.696C919.382 226.392 918.022 227.32 916.502 227.32C915.062 227.32 914.038 226.744 913.27 225.832Z" fill="#3A3A3A"/>
</g>
<mask id="path-44-inside-4_395_2101" fill="white">
<path d="M0 304.5H409V353.5H0V304.5Z"/>
</mask>
<path d="M0 304.5H409V353.5H0V304.5Z" fill="white"/>
<path d="M409 352.5H0V354.5H409V352.5Z" fill="#000091" mask="url(#path-44-inside-4_395_2101)"/>
<path d="M21.776 336V324.8H23.744L30.08 334.16V324.8H31.584V336H29.616L23.28 326.64V336H21.776ZM38.4169 327.616C41.0089 327.616 42.7849 329.616 42.7849 331.968C42.7849 334.32 41.0089 336.32 38.4169 336.32C35.8089 336.32 34.0489 334.32 34.0489 331.968C34.0489 329.616 35.8089 327.616 38.4169 327.616ZM38.4329 335.04C40.1129 335.04 41.3449 333.632 41.3449 331.968C41.3449 330.288 40.1129 328.896 38.4329 328.896C36.7049 328.896 35.4729 330.288 35.4729 331.968C35.4729 333.648 36.7049 335.04 38.4329 335.04ZM44.9713 336V327.936H46.3313V328.816C46.9393 328.112 47.7393 327.616 48.8593 327.616C50.0273 327.616 50.9873 328.144 51.4833 329.168C52.1233 328.288 52.9713 327.616 54.3633 327.616C56.0913 327.616 57.3553 328.768 57.3553 330.96V336H55.9953V331.008C55.9953 329.664 55.2433 328.896 54.0913 328.896C53.0673 328.896 52.3472 329.472 51.8193 330.416C51.8353 330.592 51.8513 330.768 51.8513 330.96V336H50.4913V331.008C50.4913 329.664 49.7553 328.896 48.5873 328.896C47.4833 328.896 46.7953 329.584 46.3313 330.416V336H44.9713Z" fill="black"/>
<path d="M373.829 319.634H367.207C365.988 319.634 365 320.622 365 321.841V337.293C365 338.512 365.988 339.5 367.207 339.5H382.659C383.878 339.5 384.866 338.512 384.866 337.293V330.671" stroke="black" stroke-linecap="round" stroke-linejoin="round"/>
<path d="M372.174 329.015L381.003 320.186C381.917 319.271 383.4 319.271 384.314 320.186C385.228 321.1 385.228 322.582 384.314 323.497L375.485 332.326L370.518 333.982L372.174 329.015Z" stroke="black" stroke-linecap="round" stroke-linejoin="round"/>
<mask id="path-49-inside-5_395_2101" fill="white">
<path d="M0 363.5H409V412.5H0V363.5Z"/>
</mask>
<path d="M0 363.5H409V412.5H0V363.5Z" fill="white"/>
<path d="M409 411.5H0V413.5H409V411.5Z" fill="#000091" mask="url(#path-49-inside-5_395_2101)"/>
<path d="M21.776 395V383.8H25.056C27.296 383.8 28.688 385.032 28.688 386.952C28.688 388.872 27.296 390.088 25.056 390.088H23.28V395H21.776ZM25.088 385.08H23.28V388.808H25.088C26.368 388.808 27.136 388.12 27.136 386.92C27.136 385.784 26.368 385.08 25.088 385.08ZM30.5338 395V386.936H31.8938V387.944C32.4858 387.24 33.2218 386.776 34.2458 386.776C34.5018 386.776 34.7418 386.808 34.9338 386.872V388.2C34.6938 388.136 34.4538 388.104 34.1338 388.104C33.0778 388.104 32.3898 388.648 31.8938 389.464V395H30.5338ZM40.5048 385.656H39.1768L40.8408 383H42.3768L40.5048 385.656ZM43.5768 393.672C42.8248 394.68 41.6248 395.32 40.1208 395.32C37.4008 395.32 35.7208 393.32 35.7208 390.968C35.7208 388.52 37.2888 386.616 39.7848 386.616C41.9768 386.616 43.4008 388.152 43.4008 390.136C43.4008 390.456 43.3528 390.76 43.3048 390.984H37.1128C37.1608 392.92 38.3928 394.088 40.1208 394.088C41.1608 394.088 42.0408 393.608 42.5688 392.888L43.5768 393.672ZM39.7528 387.768C38.4248 387.768 37.4968 388.552 37.2088 389.944H42.0408C41.9928 388.76 41.1768 387.768 39.7528 387.768ZM45.7056 395V386.936H47.0656V387.848C47.7216 387.128 48.5536 386.616 49.7536 386.616C51.5616 386.616 52.9056 387.832 52.9056 390.12V395H51.5456V390.168C51.5456 388.728 50.7296 387.896 49.4816 387.896C48.3136 387.896 47.5776 388.568 47.0656 389.416V395H45.7056ZM59.3231 386.616C61.9151 386.616 63.6911 388.616 63.6911 390.968C63.6911 393.32 61.9151 395.32 59.3231 395.32C56.7151 395.32 54.9551 393.32 54.9551 390.968C54.9551 388.616 56.7151 386.616 59.3231 386.616ZM59.3391 394.04C61.0191 394.04 62.2511 392.632 62.2511 390.968C62.2511 389.288 61.0191 387.896 59.3391 387.896C57.6111 387.896 56.3791 389.288 56.3791 390.968C56.3791 392.648 57.6111 394.04 59.3391 394.04ZM65.8775 395V386.936H67.2375V387.816C67.8455 387.112 68.6455 386.616 69.7655 386.616C70.9335 386.616 71.8935 387.144 72.3895 388.168C73.0295 387.288 73.8775 386.616 75.2695 386.616C76.9975 386.616 78.2615 387.768 78.2615 389.96V395H76.9015V390.008C76.9015 388.664 76.1495 387.896 74.9975 387.896C73.9735 387.896 73.2535 388.472 72.7255 389.416C72.7415 389.592 72.7575 389.768 72.7575 389.96V395H71.3975V390.008C71.3975 388.664 70.6615 387.896 69.4935 387.896C68.3895 387.896 67.7015 388.584 67.2375 389.416V395H65.8775Z" fill="black"/>
<path d="M373.829 378.634H367.207C365.988 378.634 365 379.622 365 380.841V396.293C365 397.512 365.988 398.5 367.207 398.5H382.659C383.878 398.5 384.866 397.512 384.866 396.293V389.671" stroke="black" stroke-linecap="round" stroke-linejoin="round"/>
<path d="M372.174 388.015L381.003 379.186C381.917 378.271 383.4 378.271 384.314 379.186C385.228 380.1 385.228 381.582 384.314 382.497L375.485 391.326L370.518 392.982L372.174 388.015Z" stroke="black" stroke-linecap="round" stroke-linejoin="round"/>
<mask id="path-54-inside-6_395_2101" fill="white">
<path d="M0 422.5H409V471.5H0V422.5Z"/>
</mask>
<path d="M0 422.5H409V471.5H0V422.5Z" fill="white"/>
<path d="M409 470.5H0V472.5H409V470.5Z" fill="#000091" mask="url(#path-54-inside-6_395_2101)"/>
<path d="M21.776 454V442.8H27.792V444.08H23.28V447.664H27.152V448.928H23.28V452.72H27.792V454H21.776ZM29.3356 449.248H33.6556V450.56H29.3356V449.248ZM35.4088 454V445.936H36.7688V446.816C37.3768 446.112 38.1768 445.616 39.2968 445.616C40.4648 445.616 41.4248 446.144 41.9208 447.168C42.5608 446.288 43.4088 445.616 44.8008 445.616C46.5288 445.616 47.7928 446.768 47.7928 448.96V454H46.4328V449.008C46.4328 447.664 45.6808 446.896 44.5288 446.896C43.5048 446.896 42.7847 447.472 42.2568 448.416C42.2728 448.592 42.2888 448.768 42.2888 448.96V454H40.9288V449.008C40.9288 447.664 40.1928 446.896 39.0248 446.896C37.9208 446.896 37.2328 447.584 36.7688 448.416V454H35.4088ZM52.7258 454.224C51.1418 454.224 50.0698 453.344 50.0698 451.968C50.0698 450.752 50.9978 449.888 52.7098 449.6L55.4298 449.152V448.592C55.4298 447.472 54.6298 446.832 53.4778 446.832C52.5498 446.832 51.7978 447.264 51.3018 447.952L50.2778 447.168C50.9818 446.208 52.1178 445.616 53.5258 445.616C55.5738 445.616 56.7898 446.816 56.7898 448.592V454H55.4298V452.976C54.8218 453.76 53.7658 454.224 52.7258 454.224ZM51.4457 451.92C51.4457 452.608 52.0058 453.104 52.9498 453.104C54.0218 453.104 54.9018 452.592 55.4298 451.728V450.144L53.0458 450.544C51.9418 450.736 51.4457 451.232 51.4457 451.92ZM60.2061 443.84C59.6781 443.84 59.2461 443.408 59.2461 442.88C59.2461 442.368 59.6781 441.936 60.2061 441.936C60.7341 441.936 61.1501 442.368 61.1501 442.88C61.1501 443.408 60.7341 443.84 60.2061 443.84ZM59.5181 454V445.936H60.8781V454H59.5181ZM63.7525 454V442H65.1125V454H63.7525Z" fill="black"/>
<path d="M373.829 437.634H367.207C365.988 437.634 365 438.622 365 439.841V455.293C365 456.512 365.988 457.5 367.207 457.5H382.659C383.878 457.5 384.866 456.512 384.866 455.293V448.671" stroke="black" stroke-linecap="round" stroke-linejoin="round"/>
<path d="M372.174 447.015L381.003 438.186C381.917 437.271 383.4 437.271 384.314 438.186C385.228 439.1 385.228 440.582 384.314 441.497L375.485 450.326L370.518 451.982L372.174 447.015Z" stroke="black" stroke-linecap="round" stroke-linejoin="round"/>
<mask id="path-59-inside-7_395_2101" fill="white">
<path d="M0 481.5H409V530.5H0V481.5Z"/>
</mask>
<path d="M0 481.5H409V530.5H0V481.5Z" fill="white"/>
<path d="M409 529.5H0V531.5H409V529.5Z" fill="#000091" mask="url(#path-59-inside-7_395_2101)"/>
<path d="M21.776 513V501.8H27.792V503.08H23.28V506.664H27.152V507.928H23.28V511.72H27.792V513H21.776ZM30.8259 510.296V506.168H29.3059V504.936H30.8259V502.92H32.2019V504.936H35.0019V506.168H32.2019V510.296C32.2019 511.56 32.8419 511.912 33.8179 511.912C34.3459 511.912 34.7139 511.848 35.0179 511.72V512.936C34.6339 513.096 34.2019 513.16 33.6259 513.16C31.8339 513.16 30.8259 512.264 30.8259 510.296ZM39.2726 513.224C37.6886 513.224 36.6166 512.344 36.6166 510.968C36.6166 509.752 37.5446 508.888 39.2566 508.6L41.9766 508.152V507.592C41.9766 506.472 41.1766 505.832 40.0246 505.832C39.0966 505.832 38.3446 506.264 37.8486 506.952L36.8246 506.168C37.5286 505.208 38.6646 504.616 40.0726 504.616C42.1206 504.616 43.3366 505.816 43.3366 507.592V513H41.9766V511.976C41.3686 512.76 40.3126 513.224 39.2726 513.224ZM37.9926 510.92C37.9926 511.608 38.5526 512.104 39.4966 512.104C40.5686 512.104 41.4486 511.592 41.9766 510.728V509.144L39.5926 509.544C38.4886 509.736 37.9926 510.232 37.9926 510.92ZM54.433 508.968C54.433 511.32 52.817 513.32 50.289 513.32C49.089 513.32 48.145 512.856 47.425 512.04V513H46.065V501H47.425V505.896C48.145 505.08 49.089 504.616 50.289 504.616C52.817 504.616 54.433 506.616 54.433 508.968ZM50.129 505.896C49.009 505.896 48.017 506.44 47.425 507.384V510.552C48.049 511.512 49.025 512.04 50.129 512.04C51.841 512.04 53.009 510.68 53.009 508.968C53.009 507.256 51.841 505.896 50.129 505.896ZM56.6431 513V501H58.0031V513H56.6431ZM61.5655 502.84C61.0375 502.84 60.6055 502.408 60.6055 501.88C60.6055 501.368 61.0375 500.936 61.5655 500.936C62.0935 500.936 62.5095 501.368 62.5095 501.88C62.5095 502.408 62.0935 502.84 61.5655 502.84ZM60.8775 513V504.936H62.2375V513H60.8775ZM64.1854 511.896L65.1454 511.08C65.7054 511.784 66.3774 512.184 67.1934 512.184C68.0894 512.184 68.6014 511.64 68.6014 510.936C68.6014 509.128 64.5694 509.768 64.5694 506.92C64.5694 505.656 65.6414 504.616 67.1934 504.616C68.3454 504.616 69.3374 505.16 69.8974 505.944L68.9534 506.744C68.5214 506.136 67.9134 505.752 67.2094 505.752C66.3454 505.752 65.8814 506.264 65.8814 506.888C65.8814 508.696 69.9294 508.12 69.9294 510.872C69.9134 512.376 68.7134 513.32 67.2094 513.32C65.9294 513.32 64.9214 512.808 64.1854 511.896ZM71.2166 511.896L72.1766 511.08C72.7366 511.784 73.4086 512.184 74.2246 512.184C75.1206 512.184 75.6326 511.64 75.6326 510.936C75.6326 509.128 71.6006 509.768 71.6006 506.92C71.6006 505.656 72.6726 504.616 74.2246 504.616C75.3766 504.616 76.3686 505.16 76.9286 505.944L75.9846 506.744C75.5526 506.136 74.9446 505.752 74.2406 505.752C73.3766 505.752 72.9126 506.264 72.9126 506.888C72.9126 508.696 76.9606 508.12 76.9606 510.872C76.9446 512.376 75.7446 513.32 74.2406 513.32C72.9606 513.32 71.9526 512.808 71.2166 511.896ZM86.2486 511.672C85.4966 512.68 84.2966 513.32 82.7926 513.32C80.0726 513.32 78.3926 511.32 78.3926 508.968C78.3926 506.52 79.9606 504.616 82.4566 504.616C84.6486 504.616 86.0726 506.152 86.0726 508.136C86.0726 508.456 86.0246 508.76 85.9766 508.984H79.7846C79.8326 510.92 81.0646 512.088 82.7926 512.088C83.8326 512.088 84.7126 511.608 85.2406 510.888L86.2486 511.672ZM82.4246 505.768C81.0966 505.768 80.1686 506.552 79.8806 507.944H84.7126C84.6646 506.76 83.8486 505.768 82.4246 505.768ZM88.3775 513V504.936H89.7375V505.816C90.3455 505.112 91.1455 504.616 92.2655 504.616C93.4335 504.616 94.3935 505.144 94.8895 506.168C95.5295 505.288 96.3775 504.616 97.7695 504.616C99.4975 504.616 100.762 505.768 100.762 507.96V513H99.4015V508.008C99.4015 506.664 98.6495 505.896 97.4975 505.896C96.4735 505.896 95.7535 506.472 95.2255 507.416C95.2415 507.592 95.2575 507.768 95.2575 507.96V513H93.8975V508.008C93.8975 506.664 93.1615 505.896 91.9935 505.896C90.8895 505.896 90.2015 506.584 89.7375 507.416V513H88.3775ZM110.671 511.672C109.919 512.68 108.719 513.32 107.215 513.32C104.495 513.32 102.815 511.32 102.815 508.968C102.815 506.52 104.383 504.616 106.879 504.616C109.071 504.616 110.495 506.152 110.495 508.136C110.495 508.456 110.447 508.76 110.399 508.984H104.207C104.255 510.92 105.487 512.088 107.215 512.088C108.255 512.088 109.135 511.608 109.663 510.888L110.671 511.672ZM106.847 505.768C105.519 505.768 104.591 506.552 104.303 507.944H109.135C109.087 506.76 108.271 505.768 106.847 505.768ZM112.799 513V504.936H114.159V505.848C114.815 505.128 115.647 504.616 116.847 504.616C118.655 504.616 119.999 505.832 119.999 508.12V513H118.639V508.168C118.639 506.728 117.823 505.896 116.575 505.896C115.407 505.896 114.671 506.568 114.159 507.416V513H112.799ZM123.201 510.296V506.168H121.681V504.936H123.201V502.92H124.577V504.936H127.377V506.168H124.577V510.296C124.577 511.56 125.217 511.912 126.193 511.912C126.721 511.912 127.089 511.848 127.393 511.72V512.936C127.009 513.096 126.577 513.16 126.001 513.16C124.209 513.16 123.201 512.264 123.201 510.296Z" fill="black"/>
<path d="M373.829 496.634H367.207C365.988 496.634 365 497.622 365 498.841V514.293C365 515.512 365.988 516.5 367.207 516.5H382.659C383.878 516.5 384.866 515.512 384.866 514.293V507.671" stroke="black" stroke-linecap="round" stroke-linejoin="round"/>
<path d="M372.174 506.015L381.003 497.186C381.917 496.271 383.4 496.271 384.314 497.186C385.228 498.1 385.228 499.582 384.314 500.497L375.485 509.326L370.518 510.982L372.174 506.015Z" stroke="black" stroke-linecap="round" stroke-linejoin="round"/>
<mask id="path-64-inside-8_395_2101" fill="white">
<path d="M0 540.5H409V589.5H0V540.5Z"/>
</mask>
<path d="M0 540.5H409V589.5H0V540.5Z" fill="white"/>
<path d="M409 588.5H0V590.5H409V588.5Z" fill="#000091" mask="url(#path-64-inside-8_395_2101)"/>
<path d="M20.432 560.8H22.032L25.904 570.48L29.776 560.8H31.376L26.896 572H24.912L20.432 560.8ZM36.0419 563.616C38.6339 563.616 40.4099 565.616 40.4099 567.968C40.4099 570.32 38.6339 572.32 36.0419 572.32C33.4339 572.32 31.6739 570.32 31.6739 567.968C31.6739 565.616 33.4339 563.616 36.0419 563.616ZM36.0579 571.04C37.7379 571.04 38.9699 569.632 38.9699 567.968C38.9699 566.288 37.7379 564.896 36.0579 564.896C34.3299 564.896 33.0979 566.288 33.0979 567.968C33.0979 569.648 34.3299 571.04 36.0579 571.04ZM42.9353 569.296V565.168H41.4153V563.936H42.9353V561.92H44.3113V563.936H47.1113V565.168H44.3113V569.296C44.3113 570.56 44.9513 570.912 45.9273 570.912C46.4553 570.912 46.8233 570.848 47.1273 570.72V571.936C46.7433 572.096 46.3113 572.16 45.7352 572.16C43.9433 572.16 42.9353 571.264 42.9353 569.296ZM49.19 572V563.936H50.55V564.944C51.142 564.24 51.878 563.776 52.902 563.776C53.158 563.776 53.398 563.808 53.59 563.872V565.2C53.35 565.136 53.11 565.104 52.79 565.104C51.734 565.104 51.046 565.648 50.55 566.464V572H49.19ZM62.233 570.672C61.481 571.68 60.281 572.32 58.777 572.32C56.057 572.32 54.377 570.32 54.377 567.968C54.377 565.52 55.945 563.616 58.441 563.616C60.633 563.616 62.057 565.152 62.057 567.136C62.057 567.456 62.009 567.76 61.961 567.984H55.769C55.817 569.92 57.049 571.088 58.777 571.088C59.817 571.088 60.697 570.608 61.225 569.888L62.233 570.672ZM58.409 564.768C57.081 564.768 56.153 565.552 55.865 566.944H60.697C60.649 565.76 59.833 564.768 58.409 564.768ZM70.8664 572.224C69.2824 572.224 68.2104 571.344 68.2104 569.968C68.2104 568.752 69.1384 567.888 70.8504 567.6L73.5704 567.152V566.592C73.5704 565.472 72.7704 564.832 71.6184 564.832C70.6904 564.832 69.9384 565.264 69.4424 565.952L68.4184 565.168C69.1224 564.208 70.2584 563.616 71.6664 563.616C73.7144 563.616 74.9304 564.816 74.9304 566.592V572H73.5704V570.976C72.9624 571.76 71.9064 572.224 70.8664 572.224ZM69.5864 569.92C69.5864 570.608 70.1464 571.104 71.0904 571.104C72.1624 571.104 73.0424 570.592 73.5704 569.728V568.144L71.1864 568.544C70.0824 568.736 69.5864 569.232 69.5864 569.92ZM76.9708 567.968C76.9708 565.616 78.5868 563.616 81.1148 563.616C82.3148 563.616 83.2588 564.08 83.9788 564.896V560H85.3388V572H83.9788V571.04C83.2588 571.856 82.3148 572.32 81.1148 572.32C78.5868 572.32 76.9708 570.32 76.9708 567.968ZM78.4108 567.968C78.4108 569.68 79.5628 571.04 81.2748 571.04C82.3948 571.04 83.3868 570.496 83.9788 569.552V566.384C83.3548 565.424 82.3788 564.896 81.2748 564.896C79.5628 564.896 78.4108 566.256 78.4108 567.968ZM88.2056 572V563.936H89.5656V564.944C90.1576 564.24 90.8936 563.776 91.9176 563.776C92.1736 563.776 92.4136 563.808 92.6056 563.872V565.2C92.3656 565.136 92.1256 565.104 91.8056 565.104C90.7496 565.104 90.0616 565.648 89.5656 566.464V572H88.2056ZM101.249 570.672C100.497 571.68 99.2966 572.32 97.7926 572.32C95.0726 572.32 93.3926 570.32 93.3926 567.968C93.3926 565.52 94.9606 563.616 97.4566 563.616C99.6486 563.616 101.073 565.152 101.073 567.136C101.073 567.456 101.025 567.76 100.977 567.984H94.7846C94.8326 569.92 96.0646 571.088 97.7926 571.088C98.8326 571.088 99.7126 570.608 100.241 569.888L101.249 570.672ZM97.4246 564.768C96.0966 564.768 95.1686 565.552 94.8806 566.944H99.7126C99.6646 565.76 98.8486 564.768 97.4246 564.768ZM102.451 570.896L103.411 570.08C103.971 570.784 104.643 571.184 105.459 571.184C106.355 571.184 106.867 570.64 106.867 569.936C106.867 568.128 102.835 568.768 102.835 565.92C102.835 564.656 103.907 563.616 105.459 563.616C106.611 563.616 107.603 564.16 108.163 564.944L107.219 565.744C106.787 565.136 106.179 564.752 105.475 564.752C104.611 564.752 104.147 565.264 104.147 565.888C104.147 567.696 108.195 567.12 108.195 569.872C108.179 571.376 106.979 572.32 105.475 572.32C104.195 572.32 103.187 571.808 102.451 570.896ZM109.482 570.896L110.442 570.08C111.002 570.784 111.674 571.184 112.49 571.184C113.386 571.184 113.898 570.64 113.898 569.936C113.898 568.128 109.866 568.768 109.866 565.92C109.866 564.656 110.938 563.616 112.49 563.616C113.642 563.616 114.634 564.16 115.194 564.944L114.25 565.744C113.818 565.136 113.21 564.752 112.506 564.752C111.642 564.752 111.178 565.264 111.178 565.888C111.178 567.696 115.226 567.12 115.226 569.872C115.21 571.376 114.01 572.32 112.506 572.32C111.226 572.32 110.218 571.808 109.482 570.896ZM124.514 570.672C123.762 571.68 122.562 572.32 121.058 572.32C118.338 572.32 116.658 570.32 116.658 567.968C116.658 565.52 118.226 563.616 120.722 563.616C122.914 563.616 124.338 565.152 124.338 567.136C124.338 567.456 124.29 567.76 124.242 567.984H118.05C118.098 569.92 119.33 571.088 121.058 571.088C122.098 571.088 122.978 570.608 123.506 569.888L124.514 570.672ZM120.69 564.768C119.362 564.768 118.434 565.552 118.146 566.944H122.978C122.93 565.76 122.114 564.768 120.69 564.768Z" fill="black"/>
<path d="M373.829 555.634H367.207C365.988 555.634 365 556.622 365 557.841V573.293C365 574.512 365.988 575.5 367.207 575.5H382.659C383.878 575.5 384.866 574.512 384.866 573.293V566.671" stroke="black" stroke-linecap="round" stroke-linejoin="round"/>
<path d="M372.174 565.015L381.003 556.186C381.917 555.271 383.4 555.271 384.314 556.186C385.228 557.1 385.228 558.582 384.314 559.497L375.485 568.326L370.518 569.982L372.174 565.015Z" stroke="black" stroke-linecap="round" stroke-linejoin="round"/>
<g clip-path="url(#clip11_395_2101)">
<mask id="path-69-inside-9_395_2101" fill="white">
<path d="M629 307.5H1038V356.5H629V307.5Z"/>
</mask>
<path d="M629 307.5H1038V356.5H629V307.5Z" fill="white"/>
<path d="M1038 355.5H629V357.5H1038V355.5Z" fill="#000091" mask="url(#path-69-inside-9_395_2101)"/>
<path d="M650.776 339V327.8H652.28V339H650.776ZM655.839 339V327.8H657.807L664.143 337.16V327.8H665.647V339H663.679L657.343 329.64V339H655.839ZM669.198 339V327.8H675.214V329.08H670.702V332.664H674.574V333.928H670.702V337.72H675.214V339H669.198Z" fill="black"/>
<path d="M1002.83 322.634H996.207C994.988 322.634 994 323.622 994 324.841V340.293C994 341.512 994.988 342.5 996.207 342.5H1011.66C1012.88 342.5 1013.87 341.512 1013.87 340.293V333.671" stroke="black" stroke-linecap="round" stroke-linejoin="round"/>
<path d="M1001.17 332.015L1010 323.186C1010.92 322.271 1012.4 322.271 1013.31 323.186C1014.23 324.1 1014.23 325.582 1013.31 326.497L1004.48 335.326L999.518 336.982L1001.17 332.015Z" stroke="black" stroke-linecap="round" stroke-linejoin="round"/>
<mask id="path-74-inside-10_395_2101" fill="white">
<path d="M629 366.5H1038V415.5H629V366.5Z"/>
</mask>
<path d="M629 366.5H1038V415.5H629V366.5Z" fill="white"/>
<path d="M1038 414.5H629V416.5H1038V414.5Z" fill="#000091" mask="url(#path-74-inside-10_395_2101)"/>
<path d="M650.776 398V386.8H653.544C655.688 386.8 656.984 387.936 656.984 389.712C656.984 390.72 656.52 391.536 655.64 392.016C656.952 392.48 657.656 393.504 657.656 394.784C657.656 396.752 656.2 398 653.816 398H650.776ZM653.56 388.08H652.28V391.456H653.56C654.744 391.456 655.432 390.848 655.432 389.744C655.432 388.688 654.744 388.08 653.56 388.08ZM653.88 392.736H652.28V396.72H653.88C655.272 396.72 656.104 395.984 656.104 394.72C656.104 393.456 655.272 392.736 653.88 392.736ZM658.807 398L663.271 386.8H665.287L669.751 398H668.151L666.855 394.704H661.703L660.407 398H658.807ZM662.199 393.408H666.359L664.279 388.112L662.199 393.408ZM676.61 396.912C678.114 396.912 679.346 396.176 680.098 395.088L681.298 396.016C680.274 397.408 678.626 398.32 676.61 398.32C673.106 398.32 670.722 395.6 670.722 392.4C670.722 389.2 673.106 386.48 676.61 386.48C678.626 386.48 680.274 387.408 681.298 388.784L680.098 389.712C679.346 388.624 678.114 387.888 676.61 387.888C674.082 387.888 672.274 389.904 672.274 392.4C672.274 394.896 674.082 396.912 676.61 396.912Z" fill="black"/>
<path d="M1002.83 381.634H996.207C994.988 381.634 994 382.622 994 383.841V399.293C994 400.512 994.988 401.5 996.207 401.5H1011.66C1012.88 401.5 1013.87 400.512 1013.87 399.293V392.671" stroke="black" stroke-linecap="round" stroke-linejoin="round"/>
<path d="M1001.17 391.015L1010 382.186C1010.92 381.271 1012.4 381.271 1013.31 382.186C1014.23 383.1 1014.23 384.582 1013.31 385.497L1004.48 394.326L999.518 395.982L1001.17 391.015Z" stroke="black" stroke-linecap="round" stroke-linejoin="round"/>
<mask id="path-79-inside-11_395_2101" fill="white">
<path d="M629 425.5H1038V474.5H629V425.5Z"/>
</mask>
<path d="M629 425.5H1038V474.5H629V425.5Z" fill="white"/>
<path d="M1038 473.5H629V475.5H1038V473.5Z" fill="#000091" mask="url(#path-79-inside-11_395_2101)"/>
<path d="M655.704 455.912C657.208 455.912 658.44 455.176 659.192 454.088L660.392 455.016C659.368 456.408 657.72 457.32 655.704 457.32C652.2 457.32 649.816 454.6 649.816 451.4C649.816 448.2 652.2 445.48 655.704 445.48C657.72 445.48 659.368 446.408 660.392 447.784L659.192 448.712C658.44 447.624 657.208 446.888 655.704 446.888C653.176 446.888 651.368 448.904 651.368 451.4C651.368 453.896 653.176 455.912 655.704 455.912ZM666.073 448.616C668.665 448.616 670.441 450.616 670.441 452.968C670.441 455.32 668.665 457.32 666.073 457.32C663.465 457.32 661.705 455.32 661.705 452.968C661.705 450.616 663.465 448.616 666.073 448.616ZM666.089 456.04C667.769 456.04 669.001 454.632 669.001 452.968C669.001 451.288 667.769 449.896 666.089 449.896C664.361 449.896 663.129 451.288 663.129 452.968C663.129 454.648 664.361 456.04 666.089 456.04ZM676.386 448.616C678.978 448.616 680.754 450.616 680.754 452.968C680.754 455.32 678.978 457.32 676.386 457.32C673.778 457.32 672.018 455.32 672.018 452.968C672.018 450.616 673.778 448.616 676.386 448.616ZM676.402 456.04C678.082 456.04 679.314 454.632 679.314 452.968C679.314 451.288 678.082 449.896 676.402 449.896C674.674 449.896 673.442 451.288 673.442 452.968C673.442 454.648 674.674 456.04 676.402 456.04ZM682.94 457V448.936H684.3V449.944C684.892 449.24 685.628 448.776 686.652 448.776C686.908 448.776 687.148 448.808 687.34 448.872V450.2C687.1 450.136 686.86 450.104 686.54 450.104C685.484 450.104 684.796 450.648 684.3 451.464V457H682.94ZM688.127 452.968C688.127 450.616 689.743 448.616 692.271 448.616C693.471 448.616 694.415 449.08 695.135 449.896V445H696.495V457H695.135V456.04C694.415 456.856 693.471 457.32 692.271 457.32C689.743 457.32 688.127 455.32 688.127 452.968ZM689.567 452.968C689.567 454.68 690.719 456.04 692.431 456.04C693.551 456.04 694.543 455.496 695.135 454.552V451.384C694.511 450.424 693.535 449.896 692.431 449.896C690.719 449.896 689.567 451.256 689.567 452.968ZM703.042 448.616C705.634 448.616 707.41 450.616 707.41 452.968C707.41 455.32 705.634 457.32 703.042 457.32C700.434 457.32 698.674 455.32 698.674 452.968C698.674 450.616 700.434 448.616 703.042 448.616ZM703.058 456.04C704.738 456.04 705.97 454.632 705.97 452.968C705.97 451.288 704.738 449.896 703.058 449.896C701.33 449.896 700.098 451.288 700.098 452.968C700.098 454.648 701.33 456.04 703.058 456.04ZM709.596 457V448.936H710.956V449.848C711.612 449.128 712.444 448.616 713.644 448.616C715.452 448.616 716.796 449.832 716.796 452.12V457H715.436V452.168C715.436 450.728 714.62 449.896 713.372 449.896C712.204 449.896 711.468 450.568 710.956 451.416V457H709.596ZM719.534 457V448.936H720.894V449.848C721.55 449.128 722.382 448.616 723.582 448.616C725.39 448.616 726.734 449.832 726.734 452.12V457H725.374V452.168C725.374 450.728 724.558 449.896 723.31 449.896C722.142 449.896 721.406 450.568 720.894 451.416V457H719.534ZM733.567 447.656H732.239L733.903 445H735.439L733.567 447.656ZM736.639 455.672C735.887 456.68 734.687 457.32 733.183 457.32C730.463 457.32 728.783 455.32 728.783 452.968C728.783 450.52 730.351 448.616 732.847 448.616C735.039 448.616 736.463 450.152 736.463 452.136C736.463 452.456 736.415 452.76 736.367 452.984H730.175C730.223 454.92 731.455 456.088 733.183 456.088C734.223 456.088 735.103 455.608 735.631 454.888L736.639 455.672ZM732.815 449.768C731.487 449.768 730.559 450.552 730.271 451.944H735.103C735.055 450.76 734.239 449.768 732.815 449.768ZM745.905 455.672C745.153 456.68 743.953 457.32 742.449 457.32C739.729 457.32 738.049 455.32 738.049 452.968C738.049 450.52 739.617 448.616 742.113 448.616C744.305 448.616 745.729 450.152 745.729 452.136C745.729 452.456 745.681 452.76 745.633 452.984H739.441C739.489 454.92 740.721 456.088 742.449 456.088C743.489 456.088 744.369 455.608 744.897 454.888L745.905 455.672ZM742.081 449.768C740.753 449.768 739.825 450.552 739.537 451.944H744.369C744.321 450.76 743.505 449.768 742.081 449.768ZM747.107 455.896L748.067 455.08C748.627 455.784 749.299 456.184 750.115 456.184C751.011 456.184 751.523 455.64 751.523 454.936C751.523 453.128 747.491 453.768 747.491 450.92C747.491 449.656 748.563 448.616 750.115 448.616C751.267 448.616 752.259 449.16 752.819 449.944L751.875 450.744C751.443 450.136 750.835 449.752 750.131 449.752C749.267 449.752 748.803 450.264 748.803 450.888C748.803 452.696 752.851 452.12 752.851 454.872C752.835 456.376 751.635 457.32 750.131 457.32C748.851 457.32 747.843 456.808 747.107 455.896Z" fill="black"/>
<path d="M1002.83 440.634H996.207C994.988 440.634 994 441.622 994 442.841V458.293C994 459.512 994.988 460.5 996.207 460.5H1011.66C1012.88 460.5 1013.87 459.512 1013.87 458.293V451.671" stroke="black" stroke-linecap="round" stroke-linejoin="round"/>
<path d="M1001.17 450.015L1010 441.186C1010.92 440.271 1012.4 440.271 1013.31 441.186C1014.23 442.1 1014.23 443.582 1013.31 444.497L1004.48 453.326L999.518 454.982L1001.17 450.015Z" stroke="black" stroke-linecap="round" stroke-linejoin="round"/>
</g>
</g>
<defs>
<clipPath id="clip0_395_2101">
<rect width="1042.79" height="842" fill="white"/>
</clipPath>
<clipPath id="clip1_395_2101">
<rect width="1042.79" height="240" fill="white" transform="translate(0 24)"/>
</clipPath>
<clipPath id="clip2_395_2101">
<rect width="80" height="80" fill="white" transform="translate(134 56)"/>
</clipPath>
<clipPath id="clip3_395_2101">
<rect width="100" height="100" fill="white" transform="translate(124 46)"/>
</clipPath>
<clipPath id="clip4_395_2101">
<rect width="100" height="100" fill="white" transform="translate(124 46)"/>
</clipPath>
<clipPath id="clip5_395_2101">
<rect width="80" height="80" fill="white" transform="translate(481.785 56)"/>
</clipPath>
<clipPath id="clip6_395_2101">
<rect width="100" height="100" fill="white" transform="translate(471.785 46)"/>
</clipPath>
<clipPath id="clip7_395_2101">
<rect width="100" height="100" fill="white" transform="translate(471.785 46)"/>
</clipPath>
<clipPath id="clip8_395_2101">
<rect width="80" height="80" fill="white" transform="translate(829.5 52)"/>
</clipPath>
<clipPath id="clip9_395_2101">
<rect width="100" height="100" fill="white" transform="translate(819.5 42)"/>
</clipPath>
<clipPath id="clip10_395_2101">
<rect width="100" height="100" fill="white" transform="translate(819.5 42)"/>
</clipPath>
<clipPath id="clip11_395_2101">
<rect width="409" height="279" fill="white" transform="translate(629 307.5)"/>
</clipPath>
</defs>
</svg>
