<svg width="100" height="100" viewBox="0 0 100 100" fill="none" xmlns="http://www.w3.org/2000/svg">
<g clip-path="url(#clip0_588_2109)">
<path d="M67.5456 50.9148C67.7308 50.2497 68.4201 49.8607 69.0851 50.0459C72.0095 50.8602 74.2515 53.1539 74.845 55.9979C74.9861 56.6737 74.5526 57.3359 73.8768 57.4769C73.201 57.6179 72.5389 57.1844 72.3979 56.5086C71.9997 54.6006 70.4579 53.0233 68.4146 52.4543C67.7495 52.2691 67.3604 51.5798 67.5456 50.9148Z" fill="#E1000F"/>
<path fill-rule="evenodd" clip-rule="evenodd" d="M55 57.5C55 50.606 60.6062 45 67.5 45C74.3938 45 80 50.606 80 57.5C80 60.7077 78.7861 63.6366 76.7936 65.8517L84.1627 78.6154C85.1982 80.409 84.5837 82.7024 82.7901 83.738C81.0605 84.7365 78.8662 84.2008 77.7832 82.553L77.6675 82.3654L70.3405 69.6746C69.4277 69.8874 68.4768 70 67.5 70C60.6064 70 55 64.3936 55 57.5ZM72.748 68.8447L79.8325 81.1154C80.1777 81.7132 80.9422 81.9181 81.5401 81.5729C82.0952 81.2524 82.3115 80.5703 82.0632 79.9958L81.9976 79.8654L74.8989 67.57C74.2295 68.0631 73.5094 68.4911 72.748 68.8447ZM77.5 57.5C77.5 51.9868 73.0131 47.5 67.5 47.5C61.9869 47.5 57.5 51.9868 57.5 57.5C57.5 63.0129 61.9871 67.5 67.5 67.5C73.0129 67.5 77.5 63.0129 77.5 57.5Z" fill="#E1000F"/>
<path d="M86.2416 22.3542C86.1694 21.7326 85.641 21.25 85 21.25H17.5L17.3542 21.2584C16.7326 21.3306 16.25 21.859 16.25 22.5V80L16.2584 80.1458C16.3306 80.7674 16.859 81.25 17.5 81.25H70L70.1458 81.2416C70.7674 81.1694 71.25 80.641 71.25 80L71.2416 79.8542C71.1694 79.2326 70.641 78.75 70 78.75H18.75V33.75H65L65.1458 33.7416C65.7674 33.6694 66.25 33.141 66.25 32.5C66.25 31.8096 65.6904 31.25 65 31.25H18.75V23.75H83.75V31.25H72.5L72.3542 31.2584C71.7326 31.3306 71.25 31.859 71.25 32.5C71.25 33.1904 71.8096 33.75 72.5 33.75H83.75V70L83.7584 70.1458C83.8306 70.7674 84.359 71.25 85 71.25C85.6904 71.25 86.25 70.6904 86.25 70V22.5L86.2416 22.3542Z" fill="#000091"/>
<path d="M22.5 28.75C21.8108 28.75 21.25 28.1892 21.25 27.5C21.25 26.8107 21.8108 26.25 22.5 26.25C23.1892 26.25 23.75 26.8107 23.75 27.5C23.75 28.1892 23.1892 28.75 22.5 28.75Z" fill="#000091"/>
<path d="M26.25 27.5C26.25 28.1892 26.8108 28.75 27.5 28.75C28.1892 28.75 28.75 28.1892 28.75 27.5C28.75 26.8107 28.1892 26.25 27.5 26.25C26.8108 26.25 26.25 26.8107 26.25 27.5Z" fill="#000091"/>
<path d="M32.5 28.75C31.8108 28.75 31.25 28.1892 31.25 27.5C31.25 26.8107 31.8108 26.25 32.5 26.25C33.1893 26.25 33.75 26.8107 33.75 27.5C33.75 28.1892 33.1893 28.75 32.5 28.75Z" fill="#000091"/>
<path d="M80 26.25C80.6904 26.25 81.25 26.8096 81.25 27.5C81.25 28.141 80.7674 28.6694 80.1458 28.7416L80 28.75H42.5C41.8096 28.75 41.25 28.1904 41.25 27.5C41.25 26.859 41.7325 26.3306 42.3542 26.2584L42.5 26.25H80Z" fill="#000091"/>
<path d="M51.25 42.5C51.25 41.8096 50.6904 41.25 50 41.25H27.5L27.3542 41.2584C26.7325 41.3306 26.25 41.859 26.25 42.5C26.25 43.1904 26.8096 43.75 27.5 43.75H50L50.1458 43.7416C50.7674 43.6694 51.25 43.141 51.25 42.5Z" fill="#000091"/>
<path d="M45 48.75C45.6904 48.75 46.25 49.3096 46.25 50C46.25 50.641 45.7675 51.1694 45.1458 51.2416L45 51.25H27.5C26.8096 51.25 26.25 50.6904 26.25 50C26.25 49.359 26.7325 48.8306 27.3542 48.7584L27.5 48.75H45Z" fill="#000091"/>
<path d="M43.75 57.5C43.75 56.8096 43.1904 56.25 42.5 56.25H27.5L27.3542 56.2584C26.7325 56.3306 26.25 56.859 26.25 57.5C26.25 58.1904 26.8096 58.75 27.5 58.75H42.5L42.6458 58.7416C43.2675 58.6694 43.75 58.141 43.75 57.5Z" fill="#000091"/>
</g>
<defs>
<clipPath id="clip0_588_2109">
<rect width="100" height="100" fill="white"/>
</clipPath>
</defs>
</svg>
