<svg width="19" height="19" viewBox="0 0 19 19" fill="none" xmlns="http://www.w3.org/2000/svg">
<path d="M17.0345 19L13.4966 15.5455C12.8414 16.0769 12.0879 16.4977 11.2362 16.8077C10.3845 17.1177 9.47816 17.2727 8.51724 17.2727C6.13678 17.2727 4.12213 16.4368 2.47328 14.7649C0.824425 13.093 0 11.0501 0 8.63637C0 6.22262 0.824425 4.17978 2.47328 2.50787C4.12213 0.835956 6.13678 0 8.51724 0C10.8977 0 12.9124 0.835956 14.5612 2.50787C16.2101 4.17978 17.0345 6.22262 17.0345 8.63637C17.0345 9.61073 16.8816 10.5297 16.5759 11.3934C16.2701 12.257 15.8552 13.021 15.331 13.6853L19 17.472L17.0345 19ZM8.51724 14.6154C10.1552 14.6154 11.5474 14.0341 12.694 12.8715C13.8405 11.7089 14.4138 10.2972 14.4138 8.63637C14.4138 6.97553 13.8405 5.56382 12.694 4.40123C11.5474 3.23864 10.1552 2.65734 8.51724 2.65734C6.87931 2.65734 5.48707 3.23864 4.34052 4.40123C3.19397 5.56382 2.62069 6.97553 2.62069 8.63637C2.62069 10.2972 3.19397 11.7089 4.34052 12.8715C5.48707 14.0341 6.87931 14.6154 8.51724 14.6154Z" fill="white"/>
</svg>
